{
copyright = "Copyright (c) 2015, Cadson Demak (info@cadsondemak.com)";
customParameters = (
{
name = vendorID;
value = CDK;
},
{
name = description;
value = "Copyright (c) 2015, Cadson Demak (info@cadsondemak.com)";
},
{
name = license;

glyphs = (
{
glyphname = A;
lastChange = "2015-11-30 02:19:02 +0000";
layers = (
{
layerId = "13D241F5-3870-466E-AD79-DAA9175309D3";
name = Bold;
paths = (
{
closed = 1;
nodes = (
"232 0 LINE",
"285 133 LINE",
"514 133 LINE",
"566 0 LINE",
"778 0 LINE",
"499 699 LINE",
"300 699 LINE",
"20 0 LINE"
);
},
{
closed = 1;
nodes = (
"399 486 LINE",
"466 290 LINE",
"332 290 LINE"
);
}
);
width = 798;
}
);
leftKerningGroup = A;
note = A;
rightKerningGroup = A;
unicode = 0041;
},
{
glyphname = Aacute;
lastChange = "2015-11-30 02:19:02 +0000";
layers = (
{
layerId = "13D241F5-3870-466E-AD79-DAA9175309D3";
name = Bold;
paths = (
{
closed = 1;
nodes = (
"232 0 LINE",
"285 133 LINE",
"514 133 LINE",
"566 0 LINE",
"778 0 LINE",
"499 699 LINE",
"300 699 LINE",
"20 0 LINE"
);
},
{
closed = 1;
nodes = (
"399 486 LINE",
"466 290 LINE",
"332 290 LINE"
);
},
{
closed = 1;
nodes = (
"497 737 LINE",
"590 917 LINE",
"389 917 LINE",
"320 737 LINE"
);
}
);
width = 798;
}
);
leftKerningGroup = A;
note = Aacute;
rightKerningGroup = A;
unicode = 00C1;
},
{
glyphname = Abreve;
lastChange = "2015-11-30 02:19:02 +0000";
layers = (
{
layerId = "13D241F5-3870-466E-AD79-DAA9175309D3";
name = Bold;
paths = (
{
closed = 1;
nodes = (
"232 0 LINE",
"285 133 LINE",
"514 133 LINE",
"566 0 LINE",
"778 0 LINE",
"499 699 LINE",
"300 699 LINE",
"20 0 LINE"
);
},
{
closed = 1;
nodes = (
"399 486 LINE",
"466 290 LINE",
"332 290 LINE"
);
},
{
closed = 1;
nodes = (
"524 742 OFFCURVE",
"593 813 OFFCURVE",
"593 926 CURVE",
"444 926 LINE",
"444 886 OFFCURVE",
"428 866 OFFCURVE",
"399 866 CURVE SMOOTH",
"369 866 OFFCURVE",
"354 886 OFFCURVE",
"354 926 CURVE",
"205 926 LINE",
"205 813 OFFCURVE",
"274 742 OFFCURVE",
"399 742 CURVE SMOOTH"
);
}
);
width = 798;
}
);
leftKerningGroup = A;
note = Abreve;
rightKerningGroup = A;
unicode = 0102;
},
{
glyphname = Abreveacute;
lastChange = "2015-11-30 02:19:02 +0000";
layers = (
{
layerId = "13D241F5-3870-466E-AD79-DAA9175309D3";
name = Bold;
paths = (
{
closed = 1;
nodes = (
"232 0 LINE",
"285 133 LINE",
"514 133 LINE",
"566 0 LINE",
"778 0 LINE",
"499 699 LINE",
"300 699 LINE",
"20 0 LINE"
);
},
{
closed = 1;
nodes = (
"399 486 LINE",
"466 290 LINE",
"332 290 LINE"
);
},
{
closed = 1;
nodes = (
"507 741 OFFCURVE",
"581 800 OFFCURVE",
"581 897 CURVE",
"454 897 LINE",
"454 862 OFFCURVE",
"436 844 OFFCURVE",
"400 844 CURVE SMOOTH",
"363 844 OFFCURVE",
"345 862 OFFCURVE",
"345 897 CURVE",
"218 897 LINE",
"218 800 OFFCURVE",
"293 741 OFFCURVE",
"400 741 CURVE SMOOTH"
);
},
{
closed = 1;
nodes = (
"470 917 LINE",
"545 1051 LINE",
"380 1051 LINE",
"328 917 LINE"
);
}
);
width = 798;
}
);
leftKerningGroup = A;
note = Abreveacute;
rightKerningGroup = A;
unicode = 1EAE;
},
{
glyphname = Abrevedotbelow;
lastChange = "2015-11-30 02:19:02 +0000";
layers = (
{
layerId = "13D241F5-3870-466E-AD79-DAA9175309D3";
name = Bold;
paths = (
{
closed = 1;
nodes = (
"232 0 LINE",
"285 133 LINE",
"514 133 LINE",
"566 0 LINE",
"778 0 LINE",
"499 699 LINE",
"300 699 LINE",
"20 0 LINE"
);
},
{
closed = 1;
nodes = (
"445 -210 OFFCURVE",
"481 -174 OFFCURVE",
"481 -128 CURVE SMOOTH",
"481 -82 OFFCURVE",
"445 -46 OFFCURVE",
"400 -46 CURVE SMOOTH",
"355 -46 OFFCURVE",
"317 -82 OFFCURVE",
"317 -128 CURVE SMOOTH",
"317 -174 OFFCURVE",
"355 -210 OFFCURVE",
"400 -210 CURVE SMOOTH"
);
},
{
closed = 1;
nodes = (
"399 486 LINE",
"466 290 LINE",
"332 290 LINE"
);
},
{
closed = 1;
nodes = (
"524 741 OFFCURVE",
"593 812 OFFCURVE",
"593 925 CURVE",
"444 925 LINE",
"444 885 OFFCURVE",
"428 865 OFFCURVE",
"399 865 CURVE SMOOTH",
"369 865 OFFCURVE",
"354 885 OFFCURVE",
"354 925 CURVE",
"205 925 LINE",
"205 812 OFFCURVE",
"274 741 OFFCURVE",
"399 741 CURVE SMOOTH"
);
}
);
width = 798;
}
);
leftKerningGroup = A;
note = Abrevedotbelow;
rightKerningGroup = A;
unicode = 1EB6;
},
{
glyphname = Abrevegrave;
lastChange = "2015-11-30 02:19:03 +0000";
layers = (
{
layerId = "13D241F5-3870-466E-AD79-DAA9175309D3";
name = Bold;
paths = (
{
closed = 1;
nodes = (
"232 0 LINE",
"285 133 LINE",
"514 133 LINE",
"566 0 LINE",
"778 0 LINE",
"499 699 LINE",
"300 699 LINE",
"20 0 LINE"
);
},
{
closed = 1;
nodes = (
"399 486 LINE",
"466 290 LINE",
"332 290 LINE"
);
},
{
closed = 1;
nodes = (
"507 741 OFFCURVE",
"581 800 OFFCURVE",
"581 897 CURVE",
"454 897 LINE",
"454 862 OFFCURVE",
"436 844 OFFCURVE",
"400 844 CURVE SMOOTH",
"363 844 OFFCURVE",
"346 862 OFFCURVE",
"346 897 CURVE",
"218 897 LINE",
"218 800 OFFCURVE",
"293 741 OFFCURVE",
"400 741 CURVE SMOOTH"
);
},
{
closed = 1;
nodes = (
"472 917 LINE",
"420 1051 LINE",
"255 1051 LINE",
"329 917 LINE"
);
}
);
width = 798;
}
);
leftKerningGroup = A;
note = Abrevegrave;
rightKerningGroup = A;
unicode = 1EB0;
},
{
glyphname = Abrevehookabove;
lastChange = "2015-11-30 02:19:02 +0000";
layers = (
{
layerId = "13D241F5-3870-466E-AD79-DAA9175309D3";
name = Bold;
paths = (
{
closed = 1;
nodes = (
"232 0 LINE",
"285 133 LINE",
"514 133 LINE",
"566 0 LINE",
"778 0 LINE",
"499 699 LINE",
"300 699 LINE",
"20 0 LINE"
);
},
{
closed = 1;
nodes = (
"399 486 LINE",
"466 290 LINE",
"332 290 LINE"
);
},
{
closed = 1;
nodes = (
"507 741 OFFCURVE",
"581 800 OFFCURVE",
"581 897 CURVE",
"454 897 LINE",
"454 862 OFFCURVE",
"436 844 OFFCURVE",
"400 844 CURVE SMOOTH",
"363 844 OFFCURVE",
"346 862 OFFCURVE",
"346 897 CURVE",
"218 897 LINE",
"218 800 OFFCURVE",
"293 741 OFFCURVE",
"400 741 CURVE SMOOTH"
);
},
{
closed = 1;
nodes = (
"465 911 LINE",
"465 931 LINE",
"503 941 OFFCURVE",
"524 963 OFFCURVE",
"524 998 CURVE SMOOTH",
"524 1043 OFFCURVE",
"487 1073 OFFCURVE",
"410 1073 CURVE SMOOTH",
"381 1073 OFFCURVE",
"340 1068 OFFCURVE",
"318 1061 CURVE",
"318 997 LINE",
"325 1001 OFFCURVE",
"341 1003 OFFCURVE",
"352 1003 CURVE SMOOTH",
"378 1003 OFFCURVE",
"391 996 OFFCURVE",
"391 982 CURVE SMOOTH",
"391 964 OFFCURVE",
"372 958 OFFCURVE",
"342 958 CURVE",
"342 911 LINE"
);
}
);
width = 798;
}
);
leftKerningGroup = A;
note = Abrevehookabove;
rightKerningGroup = A;
unicode = 1EB2;
},
{
glyphname = Abrevetilde;
lastChange = "2015-11-30 02:19:02 +0000";
layers = (
{
layerId = "13D241F5-3870-466E-AD79-DAA9175309D3";
name = Bold;
paths = (
{
closed = 1;
nodes = (
"232 0 LINE",
"285 133 LINE",
"514 133 LINE",
"566 0 LINE",
"778 0 LINE",
"499 699 LINE",
"300 699 LINE",
"20 0 LINE"
);
},
{
closed = 1;
nodes = (
"399 486 LINE",
"466 290 LINE",
"332 290 LINE"
);
},
{
closed = 1;
nodes = (
"507 741 OFFCURVE",
"581 800 OFFCURVE",
"581 897 CURVE",
"454 897 LINE",
"454 862 OFFCURVE",
"436 844 OFFCURVE",
"400 844 CURVE SMOOTH",
"363 844 OFFCURVE",
"346 862 OFFCURVE",
"346 897 CURVE",
"218 897 LINE",
"218 800 OFFCURVE",
"293 741 OFFCURVE",
"400 741 CURVE SMOOTH"
);
},
{
closed = 1;
nodes = (
"517 920 OFFCURVE",
"546 929 OFFCURVE",
"566 952 CURVE",
"566 1060 LINE",
"542 1032 OFFCURVE",
"513 1020 OFFCURVE",
"481 1020 CURVE SMOOTH",
"429 1020 OFFCURVE",
"372 1061 OFFCURVE",
"318 1061 CURVE SMOOTH",
"282 1061 OFFCURVE",
"253 1051 OFFCURVE",
"233 1028 CURVE",
"233 921 LINE",
"257 949 OFFCURVE",
"286 961 OFFCURVE",
"318 961 CURVE SMOOTH",
"369 961 OFFCURVE",
"423 920 OFFCURVE",
"481 920 CURVE SMOOTH"
);
}
);
width = 798;
}
);
leftKerningGroup = A;
note = Abrevetilde;
rightKerningGroup = A;
unicode = 1EB4;
},
{
glyphname = Acaron;
lastChange = "2015-11-30 02:19:03 +0000";
layers = (
{
layerId = "13D241F5-3870-466E-AD79-DAA9175309D3";
name = Bold;
paths = (
{
closed = 1;
nodes = (
"232 0 LINE",
"285 133 LINE",
"514 133 LINE",
"566 0 LINE",
"778 0 LINE",
"499 699 LINE",
"300 699 LINE",
"20 0 LINE"
);
},
{
closed = 1;
nodes = (
"399 486 LINE",
"466 290 LINE",
"332 290 LINE"
);
},
{
closed = 1;
nodes = (
"482 748 LINE",
"630 920 LINE",
"458 920 LINE",
"400 849 LINE",
"342 920 LINE",
"169 920 LINE",
"317 748 LINE"
);
}
);
width = 798;
}
);
leftKerningGroup = A;
note = Acaron;
rightKerningGroup = A;
unicode = 01CD;
},
{
glyphname = Acircumflex;
lastChange = "2015-11-30 02:19:02 +0000";
layers = (
{
layerId = "13D241F5-3870-466E-AD79-DAA9175309D3";
name = Bold;
paths = (
{
closed = 1;
nodes = (
"232 0 LINE",
"285 133 LINE",
"514 133 LINE",
"566 0 LINE",
"778 0 LINE",
"499 699 LINE",
"300 699 LINE",
"20 0 LINE"
);
},
{
closed = 1;
nodes = (
"399 486 LINE",
"466 290 LINE",
"332 290 LINE"
);
},
{
closed = 1;
nodes = (
"342 748 LINE",
"400 819 LINE",
"458 748 LINE",
"630 748 LINE",
"482 920 LINE",
"317 920 LINE",
"169 748 LINE"
);
}
);
width = 798;
}
);
leftKerningGroup = A;
note = Acircumflex;
rightKerningGroup = A;
unicode = 00C2;
},
{
glyphname = Acircumflexacute;
lastChange = "2015-11-30 02:19:03 +0000";
layers = (
{
layerId = "13D241F5-3870-466E-AD79-DAA9175309D3";
name = Bold;
paths = (
{
closed = 1;
nodes = (
"232 0 LINE",
"285 133 LINE",
"514 133 LINE",
"566 0 LINE",
"778 0 LINE",
"499 699 LINE",
"300 699 LINE",
"20 0 LINE"
);
},
{
closed = 1;
nodes = (
"399 486 LINE",
"466 290 LINE",
"332 290 LINE"
);
},
{
closed = 1;
nodes = (
"336 744 LINE",
"397 812 LINE",
"458 744 LINE",
"622 744 LINE",
"463 903 LINE",
"330 903 LINE",
"172 744 LINE"
);
},
{
closed = 1;
nodes = (
"672 868 LINE",
"754 1012 LINE",
"590 1012 LINE",
"532 868 LINE"
);
}
);
width = 797;
}
);
leftKerningGroup = A;
note = Acircumflexacute;
rightKerningGroup = A;
unicode = 1EA4;
},
{
glyphname = Acircumflexdotbelow;
lastChange = "2015-11-30 02:19:03 +0000";
layers = (
{
layerId = "13D241F5-3870-466E-AD79-DAA9175309D3";
name = Bold;
paths = (
{
closed = 1;
nodes = (
"232 0 LINE",
"285 133 LINE",
"514 133 LINE",
"566 0 LINE",
"778 0 LINE",
"499 699 LINE",
"300 699 LINE",
"20 0 LINE"
);
},
{
closed = 1;
nodes = (
"445 -210 OFFCURVE",
"481 -174 OFFCURVE",
"481 -128 CURVE SMOOTH",
"481 -82 OFFCURVE",
"445 -46 OFFCURVE",
"400 -46 CURVE SMOOTH",
"355 -46 OFFCURVE",
"317 -82 OFFCURVE",
"317 -128 CURVE SMOOTH",
"317 -174 OFFCURVE",
"355 -210 OFFCURVE",
"400 -210 CURVE SMOOTH"
);
},
{
closed = 1;
nodes = (
"399 486 LINE",
"466 290 LINE",
"332 290 LINE"
);
},
{
closed = 1;
nodes = (
"342 748 LINE",
"400 819 LINE",
"458 748 LINE",
"630 748 LINE",
"482 920 LINE",
"317 920 LINE",
"169 748 LINE"
);
}
);
width = 798;
}
);
leftKerningGroup = A;
note = Acircumflexdotbelow;
rightKerningGroup = A;
unicode = 1EAC;
},
{
glyphname = Acircumflexgrave;
lastChange = "2015-11-30 02:19:03 +0000";
layers = (
{
layerId = "13D241F5-3870-466E-AD79-DAA9175309D3";
name = Bold;
paths = (
{
closed = 1;
nodes = (
"228 0 LINE",
"281 133 LINE",
"510 133 LINE",
"562 0 LINE",
"774 0 LINE",
"495 699 LINE",
"296 699 LINE",
"16 0 LINE"
);
},
{
closed = 1;
nodes = (
"395 486 LINE",
"462 290 LINE",
"328 290 LINE"
);
},
{
closed = 1;
nodes = (
"261 865 LINE",
"203 1009 LINE",
"39 1009 LINE",
"121 865 LINE"
);
},
{
closed = 1;
nodes = (
"335 741 LINE",
"396 809 LINE",
"457 741 LINE",
"621 741 LINE",
"463 900 LINE",
"330 900 LINE",
"171 741 LINE"
);
}
);
width = 795;
}
);
leftKerningGroup = A;
note = Acircumflexgrave;
rightKerningGroup = A;
unicode = 1EA6;
},
{
glyphname = Acircumflexhookabove;
lastChange = "2015-11-30 02:19:03 +0000";
layers = (
{
layerId = "13D241F5-3870-466E-AD79-DAA9175309D3";
name = Bold;
paths = (
{
closed = 1;
nodes = (
"232 0 LINE",
"285 133 LINE",
"514 133 LINE",
"566 0 LINE",
"778 0 LINE",
"499 699 LINE",
"300 699 LINE",
"20 0 LINE"
);
},
{
closed = 1;
nodes = (
"399 486 LINE",
"466 290 LINE",
"332 290 LINE"
);
},
{
closed = 1;
nodes = (
"342 744 LINE",
"403 812 LINE",
"464 744 LINE",
"628 744 LINE",
"469 903 LINE",
"336 903 LINE",
"178 744 LINE"
);
},
{
closed = 1;
nodes = (
"655 857 LINE",
"655 882 LINE",
"692 893 OFFCURVE",
"715 915 OFFCURVE",
"715 948 CURVE SMOOTH",
"715 993 OFFCURVE",
"676 1023 OFFCURVE",
"601 1023 CURVE SMOOTH",
"572 1023 OFFCURVE",
"531 1017 OFFCURVE",
"508 1011 CURVE",
"508 947 LINE",
"517 951 OFFCURVE",
"532 953 OFFCURVE",
"543 953 CURVE SMOOTH",
"569 953 OFFCURVE",
"582 946 OFFCURVE",
"582 932 CURVE SMOOTH",
"582 914 OFFCURVE",
"563 908 OFFCURVE",
"533 908 CURVE",
"533 857 LINE"
);
}
);
width = 798;
}
);
leftKerningGroup = A;
note = Acircumflexhookabove;
rightKerningGroup = A;
unicode = 1EA8;
},
{
glyphname = Acircumflextilde;
lastChange = "2015-11-30 02:19:03 +0000";
layers = (
{
layerId = "13D241F5-3870-466E-AD79-DAA9175309D3";
name = Bold;
paths = (
{
closed = 1;
nodes = (
"232 0 LINE",
"285 133 LINE",
"514 133 LINE",
"566 0 LINE",
"778 0 LINE",
"499 699 LINE",
"300 699 LINE",
"20 0 LINE"
);
},
{
closed = 1;
nodes = (
"399 486 LINE",
"466 290 LINE",
"332 290 LINE"
);
},
{
closed = 1;
nodes = (
"338 741 LINE",
"399 809 LINE",
"460 741 LINE",
"624 741 LINE",
"465 900 LINE",
"332 900 LINE",
"174 741 LINE"
);
},
{
closed = 1;
nodes = (
"526 911 OFFCURVE",
"555 920 OFFCURVE",
"575 943 CURVE",
"575 1051 LINE",
"551 1023 OFFCURVE",
"522 1011 OFFCURVE",
"489 1011 CURVE SMOOTH",
"438 1011 OFFCURVE",
"381 1052 OFFCURVE",
"327 1052 CURVE SMOOTH",
"291 1052 OFFCURVE",
"262 1042 OFFCURVE",
"242 1019 CURVE",
"242 912 LINE",
"266 940 OFFCURVE",
"295 952 OFFCURVE",
"327 952 CURVE SMOOTH",
"378 952 OFFCURVE",
"432 911 OFFCURVE",
"489 911 CURVE SMOOTH"
);
}
);
width = 798;
}
);
leftKerningGroup = A;
note = Acircumflextilde;
rightKerningGroup = A;
unicode = 1EAA;
},
{
glyphname = Adieresis;
lastChange = "2015-11-30 02:19:03 +0000";
layers = (
{
layerId = "13D241F5-3870-466E-AD79-DAA9175309D3";
name = Bold;
paths = (
{
closed = 1;
nodes = (
"232 0 LINE",
"285 133 LINE",
"514 133 LINE",
"566 0 LINE",
"778 0 LINE",
"499 699 LINE",
"300 699 LINE",
"20 0 LINE"
);
},
{
closed = 1;
nodes = (
"399 486 LINE",
"466 290 LINE",
"332 290 LINE"
);
},
{
closed = 1;
nodes = (
"327 742 OFFCURVE",
"364 777 OFFCURVE",
"364 823 CURVE SMOOTH",
"364 869 OFFCURVE",
"327 906 OFFCURVE",
"282 906 CURVE SMOOTH",
"238 906 OFFCURVE",
"199 869 OFFCURVE",
"199 823 CURVE SMOOTH",
"199 777 OFFCURVE",
"238 742 OFFCURVE",
"282 742 CURVE SMOOTH"
);
},
{
closed = 1;
nodes = (
"562 742 OFFCURVE",
"599 777 OFFCURVE",
"599 823 CURVE SMOOTH",
"599 869 OFFCURVE",
"562 906 OFFCURVE",
"518 906 CURVE SMOOTH",
"473 906 OFFCURVE",
"435 869 OFFCURVE",
"435 823 CURVE SMOOTH",
"435 777 OFFCURVE",
"473 742 OFFCURVE",
"518 742 CURVE SMOOTH"
);
}
);
width = 798;
}
);
leftKerningGroup = A;
note = Adieresis;
rightKerningGroup = A;
unicode = 00C4;
},
{
glyphname = Adotbelow;
lastChange = "2015-11-30 02:19:02 +0000";
layers = (
{
layerId = "13D241F5-3870-466E-AD79-DAA9175309D3";
name = Bold;
paths = (
{
closed = 1;
nodes = (
"232 0 LINE",
"285 133 LINE",
"514 133 LINE",
"566 0 LINE",
"778 0 LINE",
"499 699 LINE",
"300 699 LINE",
"20 0 LINE"
);
},
{
closed = 1;
nodes = (
"445 -210 OFFCURVE",
"481 -174 OFFCURVE",
"481 -128 CURVE SMOOTH",
"481 -82 OFFCURVE",
"445 -46 OFFCURVE",
"400 -46 CURVE SMOOTH",
"355 -46 OFFCURVE",
"317 -82 OFFCURVE",
"317 -128 CURVE SMOOTH",
"317 -174 OFFCURVE",
"355 -210 OFFCURVE",
"400 -210 CURVE SMOOTH"
);
},
{
closed = 1;
nodes = (
"399 486 LINE",
"466 290 LINE",
"332 290 LINE"
);
}
);
width = 798;
}
);
leftKerningGroup = A;
note = Adotbelow;
rightKerningGroup = A;
unicode = 1EA0;
},
{
glyphname = Agrave;
lastChange = "2015-11-30 02:19:03 +0000";
layers = (
{
layerId = "13D241F5-3870-466E-AD79-DAA9175309D3";
name = Bold;
paths = (
{
closed = 1;
nodes = (
"232 0 LINE",
"285 133 LINE",
"514 133 LINE",
"566 0 LINE",
"778 0 LINE",
"499 699 LINE",
"300 699 LINE",
"20 0 LINE"
);
},
{
closed = 1;
nodes = (
"399 486 LINE",
"466 290 LINE",
"332 290 LINE"
);
},
{
closed = 1;
nodes = (
"483 737 LINE",
"414 917 LINE",
"213 917 LINE",
"306 737 LINE"
);
}
);
width = 798;
}
);
leftKerningGroup = A;
note = Agrave;
rightKerningGroup = A;
unicode = 00C0;
},
{
glyphname = Ahookabove;
lastChange = "2015-11-30 02:19:03 +0000";
layers = (
{
layerId = "13D241F5-3870-466E-AD79-DAA9175309D3";
name = Bold;
paths = (
{
closed = 1;
nodes = (
"232 0 LINE",
"285 133 LINE",
"514 133 LINE",
"566 0 LINE",
"778 0 LINE",
"499 699 LINE",
"300 699 LINE",
"20 0 LINE"
);
},
{
closed = 1;
nodes = (
"399 486 LINE",
"466 290 LINE",
"332 290 LINE"
);
},
{
closed = 1;
nodes = (
"474 742 LINE",
"474 772 LINE",
"540 783 OFFCURVE",
"571 820 OFFCURVE",
"571 868 CURVE SMOOTH",
"571 933 OFFCURVE",
"516 978 OFFCURVE",
"403 978 CURVE SMOOTH",
"351 978 OFFCURVE",
"304 970 OFFCURVE",
"273 960 CURVE",
"273 876 LINE",
"285 881 OFFCURVE",
"312 886 OFFCURVE",
"335 886 CURVE SMOOTH",
"382 886 OFFCURVE",
"397 871 OFFCURVE",
"397 853 CURVE SMOOTH",
"397 825 OFFCURVE",
"363 814 OFFCURVE",
"308 814 CURVE",
"308 742 LINE"
);
}
);
width = 798;
}
);
leftKerningGroup = A;
note = Ahookabove;
rightKerningGroup = A;
unicode = 1EA2;
},
{
glyphname = Amacron;
lastChange = "2015-11-30 02:19:02 +0000";
layers = (
{
layerId = "13D241F5-3870-466E-AD79-DAA9175309D3";
name = Bold;
paths = (
{
closed = 1;
nodes = (
"232 0 LINE",
"285 133 LINE",
"514 133 LINE",
"566 0 LINE",
"778 0 LINE",
"499 699 LINE",
"300 699 LINE",
"20 0 LINE"
);
},
{
closed = 1;
nodes = (
"399 486 LINE",
"466 290 LINE",
"332 290 LINE"
);
},
{
closed = 1;
nodes = (
"577 752 LINE",
"577 870 LINE",
"221 870 LINE",
"221 752 LINE"
);
}
);
width = 798;
}
);
leftKerningGroup = A;
note = Amacron;
rightKerningGroup = A;
unicode = 0100;
},
{
glyphname = Aogonek;
lastChange = "2015-11-30 02:19:03 +0000";
layers = (
{
layerId = "13D241F5-3870-466E-AD79-DAA9175309D3";
name = Bold;
paths = (
{
closed = 1;
nodes = (
"232 0 LINE",
"285 133 LINE",
"514 133 LINE",
"566 0 LINE",
"778 0 LINE",
"499 699 LINE",
"300 699 LINE",
"20 0 LINE"
);
},
{
closed = 1;
nodes = (
"675 -218 OFFCURVE",
"719 -211 OFFCURVE",
"748 -202 CURVE",
"748 -94 LINE",
"732 -102 OFFCURVE",
"715 -106 OFFCURVE",
"699 -106 CURVE SMOOTH",
"680 -106 OFFCURVE",
"669 -95 OFFCURVE",
"669 -78 CURVE SMOOTH",
"669 -50 OFFCURVE",
"693 -28 OFFCURVE",
"748 0 CURVE",
"566 0 LINE",
"524 -25 OFFCURVE",
"496 -65 OFFCURVE",
"496 -118 CURVE SMOOTH",
"496 -188 OFFCURVE",
"555 -218 OFFCURVE",
"632 -218 CURVE SMOOTH"
);
},
{
closed = 1;
nodes = (
"399 486 LINE",
"466 290 LINE",
"332 290 LINE"
);
}
);
width = 798;
}
);
leftKerningGroup = A;
note = Aogonek;
rightKerningGroup = A;
unicode = 0104;
},
{
glyphname = Aring;
lastChange = "2015-11-30 02:19:03 +0000";
layers = (
{
layerId = "13D241F5-3870-466E-AD79-DAA9175309D3";
name = Bold;
paths = (
{
closed = 1;
nodes = (
"232 0 LINE",
"285 133 LINE",
"514 133 LINE",
"566 0 LINE",
"778 0 LINE",
"499 699 LINE",
"300 699 LINE",
"20 0 LINE"
);
},
{
closed = 1;
nodes = (
"399 486 LINE",
"466 290 LINE",
"332 290 LINE"
);
},
{
closed = 1;
nodes = (
"482 626 OFFCURVE",
"549 690 OFFCURVE",
"549 772 CURVE SMOOTH",
"549 855 OFFCURVE",
"482 919 OFFCURVE",
"399 919 CURVE SMOOTH",
"317 919 OFFCURVE",
"250 855 OFFCURVE",
"250 772 CURVE SMOOTH",
"250 690 OFFCURVE",
"317 626 OFFCURVE",
"399 626 CURVE SMOOTH"
);
},
{
closed = 1;
nodes = (
"371 721 OFFCURVE",
"348 744 OFFCURVE",
"348 772 CURVE SMOOTH",
"348 802 OFFCURVE",
"371 824 OFFCURVE",
"399 824 CURVE SMOOTH",
"429 824 OFFCURVE",
"451 802 OFFCURVE",
"451 772 CURVE SMOOTH",
"451 744 OFFCURVE",
"429 721 OFFCURVE",
"399 721 CURVE SMOOTH"
);
}
);
width = 798;
}
);
leftKerningGroup = A;
note = Aring;
rightKerningGroup = A;
unicode = 00C5;
},
{
glyphname = Aringacute;
lastChange = "2015-11-30 02:19:03 +0000";
layers = (
{
layerId = "13D241F5-3870-466E-AD79-DAA9175309D3";
name = Bold;
paths = (
{
closed = 1;
nodes = (
"232 0 LINE",
"285 133 LINE",
"514 133 LINE",
"566 0 LINE",
"778 0 LINE",
"499 699 LINE",
"300 699 LINE",
"20 0 LINE"
);
},
{
closed = 1;
nodes = (
"399 486 LINE",
"466 290 LINE",
"332 290 LINE"
);
},
{
closed = 1;
nodes = (
"482 626 OFFCURVE",
"549 690 OFFCURVE",
"549 772 CURVE SMOOTH",
"549 855 OFFCURVE",
"482 919 OFFCURVE",
"399 919 CURVE SMOOTH",
"317 919 OFFCURVE",
"250 855 OFFCURVE",
"250 772 CURVE SMOOTH",
"250 690 OFFCURVE",
"317 626 OFFCURVE",
"399 626 CURVE SMOOTH"
);
},
{
closed = 1;
nodes = (
"371 721 OFFCURVE",
"348 744 OFFCURVE",
"348 772 CURVE SMOOTH",
"348 802 OFFCURVE",
"371 824 OFFCURVE",
"399 824 CURVE SMOOTH",
"429 824 OFFCURVE",
"451 802 OFFCURVE",
"451 772 CURVE SMOOTH",
"451 744 OFFCURVE",
"429 721 OFFCURVE",
"399 721 CURVE SMOOTH"
);
},
{
closed = 1;
nodes = (
"483 935 LINE",
"576 1079 LINE",
"375 1079 LINE",
"306 935 LINE"
);
}
);
width = 798;
}
);
leftKerningGroup = A;
note = Aringacute;
rightKerningGroup = A;
unicode = 01FA;
},
{
glyphname = Atilde;
lastChange = "2015-11-30 02:19:03 +0000";
layers = (
{
layerId = "13D241F5-3870-466E-AD79-DAA9175309D3";
name = Bold;
paths = (
{
closed = 1;
nodes = (
"232 0 LINE",
"285 133 LINE",
"514 133 LINE",
"566 0 LINE",
"778 0 LINE",
"499 699 LINE",
"300 699 LINE",
"20 0 LINE"
);
},
{
closed = 1;
nodes = (
"399 486 LINE",
"466 290 LINE",
"332 290 LINE"
);
},
{
closed = 1;
nodes = (
"222 778 OFFCURVE",
"258 792 OFFCURVE",
"298 792 CURVE SMOOTH",
"362 792 OFFCURVE",
"426 742 OFFCURVE",
"499 742 CURVE SMOOTH",
"544 742 OFFCURVE",
"581 753 OFFCURVE",
"606 783 CURVE",
"606 923 LINE",
"576 888 OFFCURVE",
"540 874 OFFCURVE",
"499 874 CURVE SMOOTH",
"434 874 OFFCURVE",
"366 924 OFFCURVE",
"298 924 CURVE SMOOTH",
"254 924 OFFCURVE",
"216 912 OFFCURVE",
"191 883 CURVE",
"191 742 LINE"
);
}
);
width = 798;
}
);
leftKerningGroup = A;
note = Atilde;
rightKerningGroup = A;
unicode = 00C3;
},
{
glyphname = AE;
lastChange = "2015-11-30 02:19:02 +0000";
layers = (
{
layerId = "13D241F5-3870-466E-AD79-DAA9175309D3";
name = Bold;
paths = (
{
closed = 1;
nodes = (
"236 0 LINE",
"291 133 LINE",
"432 133 LINE",
"432 0 LINE",
"898 0 LINE",
"898 174 LINE",
"618 174 LINE",
"618 270 LINE",
"815 270 LINE",
"815 429 LINE",
"618 429 LINE",
"618 525 LINE",
"898 525 LINE",
"898 699 LINE",
"313 699 LINE",
"20 0 LINE"
);
},
{
closed = 1;
nodes = (
"426 525 LINE",
"432 525 LINE",
"432 292 LINE",
"334 292 LINE"
);
}
);
width = 908;
}
);
leftKerningGroup = A;
note = AE;
rightKerningGroup = E;
unicode = 00C6;
},
{
glyphname = AEacute;
lastChange = "2015-11-30 02:19:03 +0000";
layers = (
{
layerId = "13D241F5-3870-466E-AD79-DAA9175309D3";
name = Bold;
paths = (
{
closed = 1;
nodes = (
"236 0 LINE",
"291 133 LINE",
"432 133 LINE",
"432 0 LINE",
"898 0 LINE",
"898 174 LINE",
"618 174 LINE",
"618 270 LINE",
"815 270 LINE",
"815 429 LINE",
"618 429 LINE",
"618 525 LINE",
"898 525 LINE",
"898 699 LINE",
"313 699 LINE",
"20 0 LINE"
);
},
{
closed = 1;
nodes = (
"426 525 LINE",
"432 525 LINE",
"432 292 LINE",
"334 292 LINE"
);
},
{
closed = 1;
nodes = (
"631 737 LINE",
"724 917 LINE",
"523 917 LINE",
"454 737 LINE"
);
}
);
width = 918;
}
);
leftKerningGroup = A;
note = AEacute;
rightKerningGroup = E;
unicode = 01FC;
},
{
glyphname = B;
lastChange = "2015-11-30 02:19:03 +0000";
layers = (
{
layerId = "13D241F5-3870-466E-AD79-DAA9175309D3";
name = Bold;
paths = (
{
closed = 1;
nodes = (
"421 0 LINE SMOOTH",
"547 0 OFFCURVE",
"652 79 OFFCURVE",
"652 213 CURVE SMOOTH",
"652 291 OFFCURVE",
"623 336 OFFCURVE",
"558 365 CURVE",
"605 396 OFFCURVE",
"630 449 OFFCURVE",
"630 504 CURVE SMOOTH",
"630 632 OFFCURVE",
"538 699 OFFCURVE",
"405 699 CURVE SMOOTH",
"40 699 LINE",
"40 0 LINE"
);
},
{
closed = 1;
nodes = (
"247 284 LINE",
"361 284 LINE SMOOTH",
"416 284 OFFCURVE",
"442 263 OFFCURVE",
"442 214 CURVE SMOOTH",
"442 163 OFFCURVE",
"416 147 OFFCURVE",
"363 147 CURVE SMOOTH",
"247 147 LINE"
);
},
{
closed = 1;
nodes = (
"247 552 LINE",
"350 552 LINE SMOOTH",
"395 552 OFFCURVE",
"420 539 OFFCURVE",
"420 491 CURVE SMOOTH",
"420 445 OFFCURVE",
"395 428 OFFCURVE",
"351 428 CURVE SMOOTH",
"247 428 LINE"
);
}
);
width = 672;
}
);
note = B;
unicode = 0042;
},
{
glyphname = C;
lastChange = "2015-11-30 02:19:00 +0000";
layers = (
{
layerId = "13D241F5-3870-466E-AD79-DAA9175309D3";
name = Bold;
paths = (
{
closed = 1;
nodes = (
"504 -15 OFFCURVE",
"589 4 OFFCURVE",
"656 46 CURVE",
"656 236 LINE",
"590 190 OFFCURVE",
"517 169 OFFCURVE",
"422 169 CURVE SMOOTH",
"302 169 OFFCURVE",
"231 229 OFFCURVE",
"231 349 CURVE SMOOTH",
"231 468 OFFCURVE",
"298 528 OFFCURVE",
"422 528 CURVE SMOOTH",
"516 528 OFFCURVE",
"588 510 OFFCURVE",
"648 464 CURVE",
"648 655 LINE",
"580 696 OFFCURVE",
"504 714 OFFCURVE",
"404 714 CURVE SMOOTH",
"170 714 OFFCURVE",
"20 575 OFFCURVE",
"20 349 CURVE SMOOTH",
"20 123 OFFCURVE",
"170 -15 OFFCURVE",
"404 -15 CURVE SMOOTH"
);
}
);
width = 676;
}
);
leftKerningGroup = C;
note = C;
rightKerningGroup = C;
unicode = 0043;
},
{
glyphname = Cacute;
lastChange = "2015-11-30 02:19:03 +0000";
layers = (
{
layerId = "13D241F5-3870-466E-AD79-DAA9175309D3";
name = Bold;
paths = (
{
closed = 1;
nodes = (
"504 -15 OFFCURVE",
"589 4 OFFCURVE",
"656 46 CURVE",
"656 236 LINE",
"590 190 OFFCURVE",
"517 169 OFFCURVE",
"422 169 CURVE SMOOTH",
"302 169 OFFCURVE",
"231 229 OFFCURVE",
"231 349 CURVE SMOOTH",
"231 468 OFFCURVE",
"298 528 OFFCURVE",
"422 528 CURVE SMOOTH",
"516 528 OFFCURVE",
"588 510 OFFCURVE",
"648 464 CURVE",
"648 655 LINE",
"580 696 OFFCURVE",
"504 714 OFFCURVE",
"404 714 CURVE SMOOTH",
"170 714 OFFCURVE",
"20 575 OFFCURVE",
"20 349 CURVE SMOOTH",
"20 123 OFFCURVE",
"170 -15 OFFCURVE",
"404 -15 CURVE SMOOTH"
);
},
{
closed = 1;
nodes = (
"494 737 LINE",
"587 917 LINE",
"386 917 LINE",
"317 737 LINE"
);
}
);
width = 676;
}
);
leftKerningGroup = C;
note = Cacute;
rightKerningGroup = C;
unicode = 0106;
},
{
glyphname = Ccaron;
lastChange = "2015-11-30 02:19:02 +0000";
layers = (
{
layerId = "13D241F5-3870-466E-AD79-DAA9175309D3";
name = Bold;
paths = (
{
closed = 1;
nodes = (
"504 -15 OFFCURVE",
"589 4 OFFCURVE",
"656 46 CURVE",
"656 236 LINE",
"590 190 OFFCURVE",
"517 169 OFFCURVE",
"422 169 CURVE SMOOTH",
"302 169 OFFCURVE",
"231 229 OFFCURVE",
"231 349 CURVE SMOOTH",
"231 468 OFFCURVE",
"298 528 OFFCURVE",
"422 528 CURVE SMOOTH",
"516 528 OFFCURVE",
"588 510 OFFCURVE",
"648 464 CURVE",
"648 655 LINE",
"580 696 OFFCURVE",
"504 714 OFFCURVE",
"404 714 CURVE SMOOTH",
"170 714 OFFCURVE",
"20 575 OFFCURVE",
"20 349 CURVE SMOOTH",
"20 123 OFFCURVE",
"170 -15 OFFCURVE",
"404 -15 CURVE SMOOTH"
);
},
{
closed = 1;
nodes = (
"490 748 LINE",
"638 920 LINE",
"466 920 LINE",
"408 849 LINE",
"350 920 LINE",
"177 920 LINE",
"325 748 LINE"
);
}
);
width = 676;
}
);
leftKerningGroup = C;
note = Ccaron;
rightKerningGroup = C;
unicode = 010C;
},
{
glyphname = Ccedilla;
lastChange = "2015-11-30 02:19:03 +0000";
layers = (
{
layerId = "13D241F5-3870-466E-AD79-DAA9175309D3";
name = Bold;
paths = (
{
closed = 1;
nodes = (
"504 -15 OFFCURVE",
"589 4 OFFCURVE",
"656 46 CURVE",
"656 236 LINE",
"590 190 OFFCURVE",
"517 169 OFFCURVE",
"422 169 CURVE SMOOTH",
"302 169 OFFCURVE",
"231 229 OFFCURVE",
"231 349 CURVE SMOOTH",
"231 468 OFFCURVE",
"298 528 OFFCURVE",
"422 528 CURVE SMOOTH",
"516 528 OFFCURVE",
"588 510 OFFCURVE",
"648 464 CURVE",
"648 655 LINE",
"580 696 OFFCURVE",
"504 714 OFFCURVE",
"404 714 CURVE SMOOTH",
"170 714 OFFCURVE",
"20 575 OFFCURVE",
"20 349 CURVE SMOOTH",
"20 123 OFFCURVE",
"170 -15 OFFCURVE",
"404 -15 CURVE SMOOTH"
);
},
{
closed = 1;
nodes = (
"493 -248 OFFCURVE",
"545 -203 OFFCURVE",
"545 -139 CURVE SMOOTH",
"545 -90 OFFCURVE",
"512 -54 OFFCURVE",
"452 -46 CURVE",
"470 0 LINE",
"339 0 LINE",
"306 -87 LINE",
"382 -87 OFFCURVE",
"408 -100 OFFCURVE",
"408 -131 CURVE SMOOTH",
"408 -160 OFFCURVE",
"384 -168 OFFCURVE",
"344 -168 CURVE SMOOTH",
"321 -168 OFFCURVE",
"294 -162 OFFCURVE",
"278 -153 CURVE",
"278 -233 LINE",
"301 -242 OFFCURVE",
"334 -248 OFFCURVE",
"387 -248 CURVE SMOOTH"
);
}
);
width = 676;
}
);
leftKerningGroup = C;
note = Ccedilla;
rightKerningGroup = C;
unicode = 00C7;
},
{
glyphname = Ccircumflex;
lastChange = "2015-11-30 02:19:02 +0000";
layers = (
{
layerId = "13D241F5-3870-466E-AD79-DAA9175309D3";
name = Bold;
paths = (
{
closed = 1;
nodes = (
"504 -15 OFFCURVE",
"589 4 OFFCURVE",
"656 46 CURVE",
"656 236 LINE",
"590 190 OFFCURVE",
"517 169 OFFCURVE",
"422 169 CURVE SMOOTH",
"302 169 OFFCURVE",
"231 229 OFFCURVE",
"231 349 CURVE SMOOTH",
"231 468 OFFCURVE",
"298 528 OFFCURVE",
"422 528 CURVE SMOOTH",
"516 528 OFFCURVE",
"588 510 OFFCURVE",
"648 464 CURVE",
"648 655 LINE",
"580 696 OFFCURVE",
"504 714 OFFCURVE",
"404 714 CURVE SMOOTH",
"170 714 OFFCURVE",
"20 575 OFFCURVE",
"20 349 CURVE SMOOTH",
"20 123 OFFCURVE",
"170 -15 OFFCURVE",
"404 -15 CURVE SMOOTH"
);
},
{
closed = 1;
nodes = (
"332 748 LINE",
"390 819 LINE",
"448 748 LINE",
"620 748 LINE",
"472 920 LINE",
"307 920 LINE",
"159 748 LINE"
);
}
);
width = 676;
}
);
leftKerningGroup = C;
note = Ccircumflex;
rightKerningGroup = C;
unicode = 0108;
},
{
glyphname = Cdotaccent;
lastChange = "2015-11-30 02:19:03 +0000";
layers = (
{
layerId = "13D241F5-3870-466E-AD79-DAA9175309D3";
name = Bold;
paths = (
{
closed = 1;
nodes = (
"504 -15 OFFCURVE",
"589 4 OFFCURVE",
"656 46 CURVE",
"656 236 LINE",
"590 190 OFFCURVE",
"517 169 OFFCURVE",
"422 169 CURVE SMOOTH",
"302 169 OFFCURVE",
"231 229 OFFCURVE",
"231 349 CURVE SMOOTH",
"231 468 OFFCURVE",
"298 528 OFFCURVE",
"422 528 CURVE SMOOTH",
"516 528 OFFCURVE",
"588 510 OFFCURVE",
"648 464 CURVE",
"648 655 LINE",
"580 696 OFFCURVE",
"504 714 OFFCURVE",
"404 714 CURVE SMOOTH",
"170 714 OFFCURVE",
"20 575 OFFCURVE",
"20 349 CURVE SMOOTH",
"20 123 OFFCURVE",
"170 -15 OFFCURVE",
"404 -15 CURVE SMOOTH"
);
},
{
closed = 1;
nodes = (
"465 742 OFFCURVE",
"501 777 OFFCURVE",
"501 823 CURVE SMOOTH",
"501 869 OFFCURVE",
"465 906 OFFCURVE",
"420 906 CURVE SMOOTH",
"375 906 OFFCURVE",
"337 869 OFFCURVE",
"337 823 CURVE SMOOTH",
"337 777 OFFCURVE",
"375 742 OFFCURVE",
"420 742 CURVE SMOOTH"
);
}
);
width = 676;
}
);
leftKerningGroup = C;
note = Cdotaccent;
rightKerningGroup = C;
unicode = 010A;
},
{
glyphname = D;
lastChange = "2015-11-30 02:19:02 +0000";
layers = (
{
layerId = "13D241F5-3870-466E-AD79-DAA9175309D3";
name = Bold;
paths = (
{
closed = 1;
nodes = (
"297 0 LINE SMOOTH",
"531 0 OFFCURVE",
"683 116 OFFCURVE",
"683 353 CURVE SMOOTH",
"683 566 OFFCURVE",
"532 699 OFFCURVE",
"299 699 CURVE SMOOTH",
"40 699 LINE",
"40 0 LINE"
);
},
{
closed = 1;
nodes = (
"247 525 LINE",
"315 525 LINE SMOOTH",
"415 525 OFFCURVE",
"472 449 OFFCURVE",
"472 353 CURVE SMOOTH",
"472 245 OFFCURVE",
"416 174 OFFCURVE",
"312 174 CURVE SMOOTH",
"247 174 LINE"
);
}
);
width = 703;
}
);
note = D;
rightKerningGroup = D;
unicode = 0044;
},
{
glyphname = Eth;
lastChange = "2015-11-30 02:19:03 +0000";
layers = (
{
layerId = "13D241F5-3870-466E-AD79-DAA9175309D3";
name = Bold;
paths = (
{
closed = 1;
nodes = (
"333 0 LINE SMOOTH",
"567 0 OFFCURVE",
"719 116 OFFCURVE",
"719 353 CURVE SMOOTH",
"719 566 OFFCURVE",
"568 699 OFFCURVE",
"335 699 CURVE SMOOTH",
"76 699 LINE",
"76 424 LINE",
"30 424 LINE",
"30 274 LINE",
"76 274 LINE",
"76 0 LINE"
);
},
{
closed = 1;
nodes = (
"283 274 LINE",
"407 274 LINE",
"407 424 LINE",
"283 424 LINE",
"283 514 LINE",
"351 514 LINE SMOOTH",
"451 514 OFFCURVE",
"507 449 OFFCURVE",
"507 353 CURVE SMOOTH",
"507 245 OFFCURVE",
"452 184 OFFCURVE",
"348 184 CURVE SMOOTH",
"283 184 LINE"
);
}
);
width = 739;
}
);
note = Eth;
rightKerningGroup = D;
unicode = 00D0;
},
{
glyphname = Dcaron;
lastChange = "2015-11-30 02:19:03 +0000";
layers = (
{
layerId = "13D241F5-3870-466E-AD79-DAA9175309D3";
name = Bold;
paths = (
{
closed = 1;
nodes = (
"297 0 LINE SMOOTH",
"531 0 OFFCURVE",
"683 116 OFFCURVE",
"683 353 CURVE SMOOTH",
"683 566 OFFCURVE",
"532 699 OFFCURVE",
"299 699 CURVE SMOOTH",
"40 699 LINE",
"40 0 LINE"
);
},
{
closed = 1;
nodes = (
"247 525 LINE",
"315 525 LINE SMOOTH",
"415 525 OFFCURVE",
"472 449 OFFCURVE",
"472 353 CURVE SMOOTH",
"472 245 OFFCURVE",
"416 174 OFFCURVE",
"312 174 CURVE SMOOTH",
"247 174 LINE"
);
},
{
closed = 1;
nodes = (
"409 748 LINE",
"557 920 LINE",
"385 920 LINE",
"327 849 LINE",
"269 920 LINE",
"96 920 LINE",
"244 748 LINE"
);
}
);
width = 703;
}
);
note = Dcaron;
rightKerningGroup = D;
unicode = 010E;
},
{
glyphname = Dcroat;
lastChange = "2015-11-30 02:19:03 +0000";
layers = (
{
layerId = "13D241F5-3870-466E-AD79-DAA9175309D3";
name = Bold;
paths = (
{
closed = 1;
nodes = (
"333 0 LINE SMOOTH",
"567 0 OFFCURVE",
"719 116 OFFCURVE",
"719 353 CURVE SMOOTH",
"719 566 OFFCURVE",
"568 699 OFFCURVE",
"335 699 CURVE SMOOTH",
"76 699 LINE",
"76 424 LINE",
"30 424 LINE",
"30 274 LINE",
"76 274 LINE",
"76 0 LINE"
);
},
{
closed = 1;
nodes = (
"283 274 LINE",
"407 274 LINE",
"407 424 LINE",
"283 424 LINE",
"283 514 LINE",
"351 514 LINE SMOOTH",
"451 514 OFFCURVE",
"507 449 OFFCURVE",
"507 353 CURVE SMOOTH",
"507 245 OFFCURVE",
"452 184 OFFCURVE",
"348 184 CURVE SMOOTH",
"283 184 LINE"
);
}
);
width = 739;
}
);
note = Dcroat;
rightKerningGroup = D;
unicode = 0110;
},
{
glyphname = Ddotbelow;
lastChange = "2015-11-30 02:19:02 +0000";
layers = (
{
layerId = "13D241F5-3870-466E-AD79-DAA9175309D3";
name = Bold;
paths = (
{
closed = 1;
nodes = (
"297 0 LINE SMOOTH",
"531 0 OFFCURVE",
"683 116 OFFCURVE",
"683 353 CURVE SMOOTH",
"683 566 OFFCURVE",
"532 699 OFFCURVE",
"299 699 CURVE SMOOTH",
"40 699 LINE",
"40 0 LINE"
);
},
{
closed = 1;
nodes = (
"359 -210 OFFCURVE",
"395 -174 OFFCURVE",
"395 -128 CURVE SMOOTH",
"395 -82 OFFCURVE",
"359 -46 OFFCURVE",
"314 -46 CURVE SMOOTH",
"269 -46 OFFCURVE",
"231 -82 OFFCURVE",
"231 -128 CURVE SMOOTH",
"231 -174 OFFCURVE",
"269 -210 OFFCURVE",
"314 -210 CURVE SMOOTH"
);
},
{
closed = 1;
nodes = (
"247 525 LINE",
"315 525 LINE SMOOTH",
"415 525 OFFCURVE",
"472 449 OFFCURVE",
"472 353 CURVE SMOOTH",
"472 245 OFFCURVE",
"416 174 OFFCURVE",
"312 174 CURVE SMOOTH",
"247 174 LINE"
);
}
);
width = 703;
}
);
note = Ddotbelow;
rightKerningGroup = D;
unicode = 1E0C;
},
{
glyphname = Dlinebelow;
lastChange = "2015-11-30 02:19:03 +0000";
layers = (
{
layerId = "13D241F5-3870-466E-AD79-DAA9175309D3";
name = Bold;
paths = (
{
closed = 1;
nodes = (
"297 0 LINE SMOOTH",
"531 0 OFFCURVE",
"683 116 OFFCURVE",
"683 353 CURVE SMOOTH",
"683 566 OFFCURVE",
"532 699 OFFCURVE",
"299 699 CURVE SMOOTH",
"40 699 LINE",
"40 0 LINE"
);
},
{
closed = 1;
nodes = (
"490 -172 LINE",
"490 -54 LINE",
"134 -54 LINE",
"134 -172 LINE"
);
},
{
closed = 1;
nodes = (
"247 525 LINE",
"315 525 LINE SMOOTH",
"415 525 OFFCURVE",
"472 449 OFFCURVE",
"472 353 CURVE SMOOTH",
"472 245 OFFCURVE",
"416 174 OFFCURVE",
"312 174 CURVE SMOOTH",
"247 174 LINE"
);
}
);
width = 703;
}
);
note = Dlinebelow;
rightKerningGroup = D;
unicode = 1E0E;
},
{
glyphname = E;
lastChange = "2015-11-30 02:19:00 +0000";
layers = (
{
layerId = "13D241F5-3870-466E-AD79-DAA9175309D3";
name = Bold;
paths = (
{
closed = 1;
nodes = (
"547 0 LINE",
"547 174 LINE",
"247 174 LINE",
"247 270 LINE",
"463 270 LINE",
"463 429 LINE",
"247 429 LINE",
"247 525 LINE",
"547 525 LINE",
"547 699 LINE",
"40 699 LINE",
"40 0 LINE"
);
}
);
width = 557;
}
);
leftKerningGroup = E;
note = E;
rightKerningGroup = E;
unicode = 0045;
},
{
glyphname = Eacute;
lastChange = "2015-11-30 02:19:03 +0000";
layers = (
{
layerId = "13D241F5-3870-466E-AD79-DAA9175309D3";
name = Bold;
paths = (
{
closed = 1;
nodes = (
"547 0 LINE",
"547 174 LINE",
"247 174 LINE",
"247 270 LINE",
"463 270 LINE",
"463 429 LINE",
"247 429 LINE",
"247 525 LINE",
"547 525 LINE",
"547 699 LINE",
"40 699 LINE",
"40 0 LINE"
);
},
{
closed = 1;
nodes = (
"373 737 LINE",
"466 917 LINE",
"265 917 LINE",
"196 737 LINE"
);
}
);
width = 557;
}
);
leftKerningGroup = E;
note = Eacute;
rightKerningGroup = E;
unicode = 00C9;
},
{
glyphname = Ebreve;
lastChange = "2015-11-30 02:19:02 +0000";
layers = (
{
layerId = "13D241F5-3870-466E-AD79-DAA9175309D3";
name = Bold;
paths = (
{
closed = 1;
nodes = (
"547 0 LINE",
"547 174 LINE",
"247 174 LINE",
"247 270 LINE",
"463 270 LINE",
"463 429 LINE",
"247 429 LINE",
"247 525 LINE",
"547 525 LINE",
"547 699 LINE",
"40 699 LINE",
"40 0 LINE"
);
},
{
closed = 1;
nodes = (
"422 741 OFFCURVE",
"491 812 OFFCURVE",
"491 925 CURVE",
"342 925 LINE",
"342 885 OFFCURVE",
"326 865 OFFCURVE",
"297 865 CURVE SMOOTH",
"267 865 OFFCURVE",
"252 885 OFFCURVE",
"252 925 CURVE",
"103 925 LINE",
"103 812 OFFCURVE",
"172 741 OFFCURVE",
"297 741 CURVE SMOOTH"
);
}
);
width = 557;
}
);
leftKerningGroup = E;
note = Ebreve;
rightKerningGroup = E;
unicode = 0114;
},
{
glyphname = Ecaron;
lastChange = "2015-11-30 02:19:02 +0000";
layers = (
{
layerId = "13D241F5-3870-466E-AD79-DAA9175309D3";
name = Bold;
paths = (
{
closed = 1;
nodes = (
"547 0 LINE",
"547 174 LINE",
"247 174 LINE",
"247 270 LINE",
"463 270 LINE",
"463 429 LINE",
"247 429 LINE",
"247 525 LINE",
"547 525 LINE",
"547 699 LINE",
"40 699 LINE",
"40 0 LINE"
);
},
{
closed = 1;
nodes = (
"388 748 LINE",
"536 920 LINE",
"364 920 LINE",
"306 849 LINE",
"248 920 LINE",
"75 920 LINE",
"223 748 LINE"
);
}
);
width = 557;
}
);
leftKerningGroup = E;
note = Ecaron;
rightKerningGroup = E;
unicode = 011A;
},
{
glyphname = Ecircumflex;
lastChange = "2015-11-30 02:19:03 +0000";
layers = (
{
layerId = "13D241F5-3870-466E-AD79-DAA9175309D3";
name = Bold;
paths = (
{
closed = 1;
nodes = (
"547 0 LINE",
"547 174 LINE",
"247 174 LINE",
"247 270 LINE",
"463 270 LINE",
"463 429 LINE",
"247 429 LINE",
"247 525 LINE",
"547 525 LINE",
"547 699 LINE",
"40 699 LINE",
"40 0 LINE"
);
},
{
closed = 1;
nodes = (
"234 744 LINE",
"292 815 LINE",
"350 744 LINE",
"522 744 LINE",
"374 916 LINE",
"209 916 LINE",
"61 744 LINE"
);
}
);
width = 557;
}
);
leftKerningGroup = E;
note = Ecircumflex;
rightKerningGroup = E;
unicode = 00CA;
},
{
glyphname = Ecircumflexacute;
lastChange = "2015-11-30 02:19:02 +0000";
layers = (
{
layerId = "13D241F5-3870-466E-AD79-DAA9175309D3";
name = Bold;
paths = (
{
closed = 1;
nodes = (
"547 0 LINE",
"547 174 LINE",
"247 174 LINE",
"247 270 LINE",
"463 270 LINE",
"463 429 LINE",
"247 429 LINE",
"247 525 LINE",
"547 525 LINE",
"547 699 LINE",
"40 699 LINE",
"40 0 LINE"
);
},
{
closed = 1;
nodes = (
"236 741 LINE",
"297 809 LINE",
"358 741 LINE",
"522 741 LINE",
"363 900 LINE",
"230 900 LINE",
"72 741 LINE"
);
},
{
closed = 1;
nodes = (
"572 865 LINE",
"654 1009 LINE",
"490 1009 LINE",
"432 865 LINE"
);
}
);
width = 557;
}
);
leftKerningGroup = E;
note = Ecircumflexacute;
rightKerningGroup = E;
unicode = 1EBE;
},
{
glyphname = Ecircumflexdotbelow;
lastChange = "2015-11-30 02:19:03 +0000";
layers = (
{
layerId = "13D241F5-3870-466E-AD79-DAA9175309D3";
name = Bold;
paths = (
{
closed = 1;
nodes = (
"547 0 LINE",
"547 174 LINE",
"247 174 LINE",
"247 270 LINE",
"463 270 LINE",
"463 429 LINE",
"247 429 LINE",
"247 525 LINE",
"547 525 LINE",
"547 699 LINE",
"40 699 LINE",
"40 0 LINE"
);
},
{
closed = 1;
nodes = (
"348 -210 OFFCURVE",
"384 -174 OFFCURVE",
"384 -128 CURVE SMOOTH",
"384 -82 OFFCURVE",
"348 -46 OFFCURVE",
"303 -46 CURVE SMOOTH",
"258 -46 OFFCURVE",
"220 -82 OFFCURVE",
"220 -128 CURVE SMOOTH",
"220 -174 OFFCURVE",
"258 -210 OFFCURVE",
"303 -210 CURVE SMOOTH"
);
},
{
closed = 1;
nodes = (
"244 748 LINE",
"302 819 LINE",
"360 748 LINE",
"532 748 LINE",
"384 920 LINE",
"219 920 LINE",
"71 748 LINE"
);
}
);
width = 557;
}
);
leftKerningGroup = E;
note = Ecircumflexdotbelow;
rightKerningGroup = E;
unicode = 1EC6;
},
{
glyphname = Ecircumflexgrave;
lastChange = "2015-11-30 02:19:02 +0000";
layers = (
{
layerId = "13D241F5-3870-466E-AD79-DAA9175309D3";
name = Bold;
paths = (
{
closed = 1;
nodes = (
"547 0 LINE",
"547 174 LINE",
"247 174 LINE",
"247 270 LINE",
"463 270 LINE",
"463 429 LINE",
"247 429 LINE",
"247 525 LINE",
"547 525 LINE",
"547 699 LINE",
"40 699 LINE",
"40 0 LINE"
);
},
{
closed = 1;
nodes = (
"167 865 LINE",
"109 1009 LINE",
"-55 1009 LINE",
"27 865 LINE"
);
},
{
closed = 1;
nodes = (
"241 741 LINE",
"302 809 LINE",
"363 741 LINE",
"527 741 LINE",
"369 900 LINE",
"236 900 LINE",
"77 741 LINE"
);
}
);
width = 557;
}
);
leftKerningGroup = E;
note = Ecircumflexgrave;
rightKerningGroup = E;
unicode = 1EC0;
},
{
glyphname = Ecircumflexhookabove;
lastChange = "2015-11-30 02:19:03 +0000";
layers = (
{
layerId = "13D241F5-3870-466E-AD79-DAA9175309D3";
name = Bold;
paths = (
{
closed = 1;
nodes = (
"547 0 LINE",
"547 174 LINE",
"247 174 LINE",
"247 270 LINE",
"463 270 LINE",
"463 429 LINE",
"247 429 LINE",
"247 525 LINE",
"547 525 LINE",
"547 699 LINE",
"40 699 LINE",
"40 0 LINE"
);
},
{
closed = 1;
nodes = (
"228 741 LINE",
"289 809 LINE",
"350 741 LINE",
"514 741 LINE",
"355 900 LINE",
"222 900 LINE",
"64 741 LINE"
);
},
{
closed = 1;
nodes = (
"541 854 LINE",
"541 879 LINE",
"578 890 OFFCURVE",
"601 912 OFFCURVE",
"601 945 CURVE SMOOTH",
"601 990 OFFCURVE",
"562 1020 OFFCURVE",
"487 1020 CURVE SMOOTH",
"458 1020 OFFCURVE",
"417 1014 OFFCURVE",
"394 1008 CURVE",
"394 944 LINE",
"403 948 OFFCURVE",
"418 950 OFFCURVE",
"429 950 CURVE SMOOTH",
"455 950 OFFCURVE",
"468 943 OFFCURVE",
"468 929 CURVE SMOOTH",
"468 911 OFFCURVE",
"449 905 OFFCURVE",
"419 905 CURVE",
"419 854 LINE"
);
}
);
width = 560;
}
);
leftKerningGroup = E;
note = Ecircumflexhookabove;
rightKerningGroup = E;
unicode = 1EC2;
},
{
glyphname = Ecircumflextilde;
lastChange = "2015-11-30 02:19:03 +0000";
layers = (
{
layerId = "13D241F5-3870-466E-AD79-DAA9175309D3";
name = Bold;
paths = (
{
closed = 1;
nodes = (
"547 0 LINE",
"547 174 LINE",
"247 174 LINE",
"247 270 LINE",
"463 270 LINE",
"463 429 LINE",
"247 429 LINE",
"247 525 LINE",
"547 525 LINE",
"547 699 LINE",
"40 699 LINE",
"40 0 LINE"
);
},
{
closed = 1;
nodes = (
"234 741 LINE",
"295 809 LINE",
"356 741 LINE",
"520 741 LINE",
"361 900 LINE",
"228 900 LINE",
"70 741 LINE"
);
},
{
closed = 1;
nodes = (
"422 911 OFFCURVE",
"451 920 OFFCURVE",
"471 943 CURVE",
"471 1051 LINE",
"447 1023 OFFCURVE",
"418 1011 OFFCURVE",
"385 1011 CURVE SMOOTH",
"334 1011 OFFCURVE",
"277 1052 OFFCURVE",
"223 1052 CURVE SMOOTH",
"187 1052 OFFCURVE",
"158 1042 OFFCURVE",
"138 1019 CURVE",
"138 912 LINE",
"162 940 OFFCURVE",
"191 952 OFFCURVE",
"223 952 CURVE SMOOTH",
"274 952 OFFCURVE",
"328 911 OFFCURVE",
"385 911 CURVE SMOOTH"
);
}
);
width = 557;
}
);
leftKerningGroup = E;
note = Ecircumflextilde;
rightKerningGroup = E;
unicode = 1EC4;
},
{
glyphname = Edieresis;
lastChange = "2015-11-30 02:19:03 +0000";
layers = (
{
layerId = "13D241F5-3870-466E-AD79-DAA9175309D3";
name = Bold;
paths = (
{
closed = 1;
nodes = (
"547 0 LINE",
"547 174 LINE",
"247 174 LINE",
"247 270 LINE",
"463 270 LINE",
"463 429 LINE",
"247 429 LINE",
"247 525 LINE",
"547 525 LINE",
"547 699 LINE",
"40 699 LINE",
"40 0 LINE"
);
},
{
closed = 1;
nodes = (
"229 747 OFFCURVE",
"266 782 OFFCURVE",
"266 828 CURVE SMOOTH",
"266 874 OFFCURVE",
"229 911 OFFCURVE",
"184 911 CURVE SMOOTH",
"140 911 OFFCURVE",
"101 874 OFFCURVE",
"101 828 CURVE SMOOTH",
"101 782 OFFCURVE",
"140 747 OFFCURVE",
"184 747 CURVE SMOOTH"
);
},
{
closed = 1;
nodes = (
"464 747 OFFCURVE",
"501 782 OFFCURVE",
"501 828 CURVE SMOOTH",
"501 874 OFFCURVE",
"464 911 OFFCURVE",
"420 911 CURVE SMOOTH",
"375 911 OFFCURVE",
"337 874 OFFCURVE",
"337 828 CURVE SMOOTH",
"337 782 OFFCURVE",
"375 747 OFFCURVE",
"420 747 CURVE SMOOTH"
);
}
);
width = 557;
}
);
leftKerningGroup = E;
note = Edieresis;
rightKerningGroup = E;
unicode = 00CB;
},
{
glyphname = Edotaccent;
lastChange = "2015-11-30 02:19:03 +0000";
layers = (
{
layerId = "13D241F5-3870-466E-AD79-DAA9175309D3";
name = Bold;
paths = (
{
closed = 1;
nodes = (
"547 0 LINE",
"547 174 LINE",
"247 174 LINE",
"247 270 LINE",
"463 270 LINE",
"463 429 LINE",
"247 429 LINE",
"247 525 LINE",
"547 525 LINE",
"547 699 LINE",
"40 699 LINE",
"40 0 LINE"
);
},
{
closed = 1;
nodes = (
"342 742 OFFCURVE",
"378 777 OFFCURVE",
"378 823 CURVE SMOOTH",
"378 869 OFFCURVE",
"342 906 OFFCURVE",
"297 906 CURVE SMOOTH",
"252 906 OFFCURVE",
"214 869 OFFCURVE",
"214 823 CURVE SMOOTH",
"214 777 OFFCURVE",
"252 742 OFFCURVE",
"297 742 CURVE SMOOTH"
);
}
);
width = 557;
}
);
leftKerningGroup = E;
note = Edotaccent;
rightKerningGroup = E;
unicode = 0116;
},
{
glyphname = Edotbelow;
lastChange = "2015-11-30 02:19:02 +0000";
layers = (
{
layerId = "13D241F5-3870-466E-AD79-DAA9175309D3";
name = Bold;
paths = (
{
closed = 1;
nodes = (
"547 0 LINE",
"547 174 LINE",
"247 174 LINE",
"247 270 LINE",
"463 270 LINE",
"463 429 LINE",
"247 429 LINE",
"247 525 LINE",
"547 525 LINE",
"547 699 LINE",
"40 699 LINE",
"40 0 LINE"
);
},
{
closed = 1;
nodes = (
"332 -210 OFFCURVE",
"368 -174 OFFCURVE",
"368 -128 CURVE SMOOTH",
"368 -82 OFFCURVE",
"332 -46 OFFCURVE",
"287 -46 CURVE SMOOTH",
"242 -46 OFFCURVE",
"204 -82 OFFCURVE",
"204 -128 CURVE SMOOTH",
"204 -174 OFFCURVE",
"242 -210 OFFCURVE",
"287 -210 CURVE SMOOTH"
);
}
);
width = 557;
}
);
leftKerningGroup = E;
note = Edotbelow;
rightKerningGroup = E;
unicode = 1EB8;
},
{
glyphname = Egrave;
lastChange = "2015-11-30 02:19:03 +0000";
layers = (
{
layerId = "13D241F5-3870-466E-AD79-DAA9175309D3";
name = Bold;
paths = (
{
closed = 1;
nodes = (
"547 0 LINE",
"547 174 LINE",
"247 174 LINE",
"247 270 LINE",
"463 270 LINE",
"463 429 LINE",
"247 429 LINE",
"247 525 LINE",
"547 525 LINE",
"547 699 LINE",
"40 699 LINE",
"40 0 LINE"
);
},
{
closed = 1;
nodes = (
"392 743 LINE",
"323 923 LINE",
"122 923 LINE",
"215 743 LINE"
);
}
);
width = 557;
}
);
leftKerningGroup = E;
note = Egrave;
rightKerningGroup = E;
unicode = 00C8;
},
{
glyphname = Ehookabove;
lastChange = "2015-11-30 02:19:03 +0000";
layers = (
{
layerId = "13D241F5-3870-466E-AD79-DAA9175309D3";
name = Bold;
paths = (
{
closed = 1;
nodes = (
"547 0 LINE",
"547 174 LINE",
"247 174 LINE",
"247 270 LINE",
"463 270 LINE",
"463 429 LINE",
"247 429 LINE",
"247 525 LINE",
"547 525 LINE",
"547 699 LINE",
"40 699 LINE",
"40 0 LINE"
);
},
{
closed = 1;
nodes = (
"361 742 LINE",
"361 772 LINE",
"427 783 OFFCURVE",
"458 820 OFFCURVE",
"458 868 CURVE SMOOTH",
"458 933 OFFCURVE",
"403 978 OFFCURVE",
"290 978 CURVE SMOOTH",
"238 978 OFFCURVE",
"191 970 OFFCURVE",
"160 960 CURVE",
"160 876 LINE",
"172 881 OFFCURVE",
"199 886 OFFCURVE",
"222 886 CURVE SMOOTH",
"269 886 OFFCURVE",
"284 871 OFFCURVE",
"284 853 CURVE SMOOTH",
"284 825 OFFCURVE",
"250 814 OFFCURVE",
"195 814 CURVE",
"195 742 LINE"
);
}
);
width = 557;
}
);
leftKerningGroup = E;
note = Ehookabove;
rightKerningGroup = E;
unicode = 1EBA;
},
{
glyphname = Emacron;
lastChange = "2015-11-30 02:19:03 +0000";
layers = (
{
layerId = "13D241F5-3870-466E-AD79-DAA9175309D3";
name = Bold;
paths = (
{
closed = 1;
nodes = (
"547 0 LINE",
"547 174 LINE",
"247 174 LINE",
"247 270 LINE",
"463 270 LINE",
"463 429 LINE",
"247 429 LINE",
"247 525 LINE",
"547 525 LINE",
"547 699 LINE",
"40 699 LINE",
"40 0 LINE"
);
},
{
closed = 1;
nodes = (
"482 757 LINE",
"482 875 LINE",
"126 875 LINE",
"126 757 LINE"
);
}
);
width = 557;
}
);
leftKerningGroup = E;
note = Emacron;
rightKerningGroup = E;
unicode = 0112;
},
{
glyphname = Eogonek;
lastChange = "2015-11-30 02:19:03 +0000";
layers = (
{
layerId = "13D241F5-3870-466E-AD79-DAA9175309D3";
name = Bold;
paths = (
{
closed = 1;
nodes = (
"547 0 LINE",
"547 174 LINE",
"247 174 LINE",
"247 270 LINE",
"463 270 LINE",
"463 429 LINE",
"247 429 LINE",
"247 525 LINE",
"547 525 LINE",
"547 699 LINE",
"40 699 LINE",
"40 0 LINE"
);
},
{
closed = 1;
nodes = (
"476 -218 OFFCURVE",
"520 -211 OFFCURVE",
"549 -202 CURVE",
"549 -94 LINE",
"533 -102 OFFCURVE",
"516 -106 OFFCURVE",
"500 -106 CURVE SMOOTH",
"481 -106 OFFCURVE",
"470 -95 OFFCURVE",
"470 -78 CURVE SMOOTH",
"470 -50 OFFCURVE",
"494 -28 OFFCURVE",
"549 0 CURVE",
"367 0 LINE",
"325 -25 OFFCURVE",
"297 -65 OFFCURVE",
"297 -118 CURVE SMOOTH",
"297 -188 OFFCURVE",
"356 -218 OFFCURVE",
"433 -218 CURVE SMOOTH"
);
}
);
width = 559;
}
);
leftKerningGroup = E;
note = Eogonek;
rightKerningGroup = E;
unicode = 0118;
},
{
glyphname = Etilde;
lastChange = "2015-11-30 02:19:03 +0000";
layers = (
{
layerId = "13D241F5-3870-466E-AD79-DAA9175309D3";
name = Bold;
paths = (
{
closed = 1;
nodes = (
"547 0 LINE",
"547 174 LINE",
"247 174 LINE",
"247 270 LINE",
"463 270 LINE",
"463 429 LINE",
"247 429 LINE",
"247 525 LINE",
"547 525 LINE",
"547 699 LINE",
"40 699 LINE",
"40 0 LINE"
);
},
{
closed = 1;
nodes = (
"131 778 OFFCURVE",
"167 792 OFFCURVE",
"207 792 CURVE SMOOTH",
"271 792 OFFCURVE",
"335 742 OFFCURVE",
"408 742 CURVE SMOOTH",
"453 742 OFFCURVE",
"490 753 OFFCURVE",
"515 783 CURVE",
"515 923 LINE",
"485 888 OFFCURVE",
"449 874 OFFCURVE",
"408 874 CURVE SMOOTH",
"343 874 OFFCURVE",
"275 924 OFFCURVE",
"207 924 CURVE SMOOTH",
"163 924 OFFCURVE",
"125 912 OFFCURVE",
"100 883 CURVE",
"100 742 LINE"
);
}
);
width = 557;
}
);
leftKerningGroup = E;
note = Etilde;
rightKerningGroup = E;
unicode = 1EBC;
},
{
glyphname = F;
lastChange = "2015-11-30 02:19:00 +0000";
layers = (
{
layerId = "13D241F5-3870-466E-AD79-DAA9175309D3";
name = Bold;
paths = (
{
closed = 1;
nodes = (
"247 0 LINE",
"247 270 LINE",
"463 270 LINE",
"463 429 LINE",
"247 429 LINE",
"247 525 LINE",
"547 525 LINE",
"547 699 LINE",
"40 699 LINE",
"40 0 LINE"
);
}
);
width = 547;
}
);
note = F;
unicode = 0046;
},
{
glyphname = G;
lastChange = "2015-11-30 02:19:00 +0000";
layers = (
{
layerId = "13D241F5-3870-466E-AD79-DAA9175309D3";
name = Bold;
paths = (
{
closed = 1;
nodes = (
"516 -15 OFFCURVE",
"605 10 OFFCURVE",
"671 51 CURVE",
"671 401 LINE",
"386 401 LINE",
"386 270 LINE",
"482 270 LINE",
"482 181 LINE",
"464 173 OFFCURVE",
"440 169 OFFCURVE",
"412 169 CURVE SMOOTH",
"295 169 OFFCURVE",
"231 230 OFFCURVE",
"231 349 CURVE SMOOTH",
"231 460 OFFCURVE",
"295 528 OFFCURVE",
"422 528 CURVE SMOOTH",
"516 528 OFFCURVE",
"588 510 OFFCURVE",
"648 465 CURVE",
"648 656 LINE",
"592 693 OFFCURVE",
"510 714 OFFCURVE",
"404 714 CURVE SMOOTH",
"170 714 OFFCURVE",
"20 575 OFFCURVE",
"20 349 CURVE SMOOTH",
"20 123 OFFCURVE",
"170 -15 OFFCURVE",
"404 -15 CURVE SMOOTH"
);
}
);
width = 691;
}
);
leftKerningGroup = C;
note = G;
unicode = 0047;
},
{
glyphname = Gbreve;
lastChange = "2015-11-30 02:19:03 +0000";
layers = (
{
layerId = "13D241F5-3870-466E-AD79-DAA9175309D3";
name = Bold;
paths = (
{
closed = 1;
nodes = (
"516 -15 OFFCURVE",
"605 10 OFFCURVE",
"671 51 CURVE",
"671 401 LINE",
"386 401 LINE",
"386 270 LINE",
"482 270 LINE",
"482 181 LINE",
"464 173 OFFCURVE",
"440 169 OFFCURVE",
"412 169 CURVE SMOOTH",
"295 169 OFFCURVE",
"231 230 OFFCURVE",
"231 349 CURVE SMOOTH",
"231 460 OFFCURVE",
"295 528 OFFCURVE",
"422 528 CURVE SMOOTH",
"516 528 OFFCURVE",
"588 510 OFFCURVE",
"648 465 CURVE",
"648 656 LINE",
"592 693 OFFCURVE",
"510 714 OFFCURVE",
"404 714 CURVE SMOOTH",
"170 714 OFFCURVE",
"20 575 OFFCURVE",
"20 349 CURVE SMOOTH",
"20 123 OFFCURVE",
"170 -15 OFFCURVE",
"404 -15 CURVE SMOOTH"
);
},
{
closed = 1;
nodes = (
"542 741 OFFCURVE",
"611 812 OFFCURVE",
"611 925 CURVE",
"462 925 LINE",
"462 885 OFFCURVE",
"446 865 OFFCURVE",
"417 865 CURVE SMOOTH",
"387 865 OFFCURVE",
"372 885 OFFCURVE",
"372 925 CURVE",
"223 925 LINE",
"223 812 OFFCURVE",
"292 741 OFFCURVE",
"417 741 CURVE SMOOTH"
);
}
);
width = 691;
}
);
leftKerningGroup = C;
note = Gbreve;
unicode = 011E;
},
{
glyphname = Gcaron;
lastChange = "2015-11-30 02:19:03 +0000";
layers = (
{
layerId = "13D241F5-3870-466E-AD79-DAA9175309D3";
name = Bold;
paths = (
{
closed = 1;
nodes = (
"516 -15 OFFCURVE",
"605 10 OFFCURVE",
"671 51 CURVE",
"671 401 LINE",
"386 401 LINE",
"386 270 LINE",
"482 270 LINE",
"482 181 LINE",
"464 173 OFFCURVE",
"440 169 OFFCURVE",
"412 169 CURVE SMOOTH",
"295 169 OFFCURVE",
"231 230 OFFCURVE",
"231 349 CURVE SMOOTH",
"231 460 OFFCURVE",
"295 528 OFFCURVE",
"422 528 CURVE SMOOTH",
"516 528 OFFCURVE",
"588 510 OFFCURVE",
"648 465 CURVE",
"648 656 LINE",
"592 693 OFFCURVE",
"510 714 OFFCURVE",
"404 714 CURVE SMOOTH",
"170 714 OFFCURVE",
"20 575 OFFCURVE",
"20 349 CURVE SMOOTH",
"20 123 OFFCURVE",
"170 -15 OFFCURVE",
"404 -15 CURVE SMOOTH"
);
},
{
closed = 1;
nodes = (
"432 754 LINE",
"580 926 LINE",
"408 926 LINE",
"350 855 LINE",
"292 926 LINE",
"119 926 LINE",
"267 754 LINE"
);
}
);
width = 691;
}
);
leftKerningGroup = C;
note = Gcaron;
unicode = 01E6;
},
{
glyphname = Gcircumflex;
lastChange = "2015-11-30 02:19:02 +0000";
layers = (
{
layerId = "13D241F5-3870-466E-AD79-DAA9175309D3";
name = Bold;
paths = (
{
closed = 1;
nodes = (
"516 -15 OFFCURVE",
"605 10 OFFCURVE",
"671 51 CURVE",
"671 401 LINE",
"386 401 LINE",
"386 270 LINE",
"482 270 LINE",
"482 181 LINE",
"464 173 OFFCURVE",
"440 169 OFFCURVE",
"412 169 CURVE SMOOTH",
"295 169 OFFCURVE",
"231 230 OFFCURVE",
"231 349 CURVE SMOOTH",
"231 460 OFFCURVE",
"295 528 OFFCURVE",
"422 528 CURVE SMOOTH",
"516 528 OFFCURVE",
"588 510 OFFCURVE",
"648 465 CURVE",
"648 656 LINE",
"592 693 OFFCURVE",
"510 714 OFFCURVE",
"404 714 CURVE SMOOTH",
"170 714 OFFCURVE",
"20 575 OFFCURVE",
"20 349 CURVE SMOOTH",
"20 123 OFFCURVE",
"170 -15 OFFCURVE",
"404 -15 CURVE SMOOTH"
);
},
{
closed = 1;
nodes = (
"337 748 LINE",
"395 819 LINE",
"453 748 LINE",
"625 748 LINE",
"477 920 LINE",
"312 920 LINE",
"164 748 LINE"
);
}
);
width = 691;
}
);
leftKerningGroup = C;
note = Gcircumflex;
unicode = 011C;
},
{
glyphname = Gcommaaccent;
lastChange = "2015-11-30 02:19:03 +0000";
layers = (
{
layerId = "13D241F5-3870-466E-AD79-DAA9175309D3";
name = Bold;
paths = (
{
closed = 1;
nodes = (
"516 -15 OFFCURVE",
"605 10 OFFCURVE",
"671 51 CURVE",
"671 401 LINE",
"386 401 LINE",
"386 270 LINE",
"482 270 LINE",
"482 181 LINE",
"464 173 OFFCURVE",
"440 169 OFFCURVE",
"412 169 CURVE SMOOTH",
"295 169 OFFCURVE",
"231 230 OFFCURVE",
"231 349 CURVE SMOOTH",
"231 460 OFFCURVE",
"295 528 OFFCURVE",
"422 528 CURVE SMOOTH",
"516 528 OFFCURVE",
"588 510 OFFCURVE",
"648 465 CURVE",
"648 656 LINE",
"592 693 OFFCURVE",
"510 714 OFFCURVE",
"404 714 CURVE SMOOTH",
"170 714 OFFCURVE",
"20 575 OFFCURVE",
"20 349 CURVE SMOOTH",
"20 123 OFFCURVE",
"170 -15 OFFCURVE",
"404 -15 CURVE SMOOTH"
);
},
{
closed = 1;
nodes = (
"408 -260 LINE",
"516 -45 LINE",
"319 -45 LINE",
"236 -260 LINE"
);
}
);
width = 691;
}
);
leftKerningGroup = C;
note = Gcommaaccent;
unicode = 0122;
},
{
glyphname = Gdotaccent;
lastChange = "2015-11-30 02:19:03 +0000";
layers = (
{
layerId = "13D241F5-3870-466E-AD79-DAA9175309D3";
name = Bold;
paths = (
{
closed = 1;
nodes = (
"516 -15 OFFCURVE",
"605 10 OFFCURVE",
"671 51 CURVE",
"671 401 LINE",
"386 401 LINE",
"386 270 LINE",
"482 270 LINE",
"482 181 LINE",
"464 173 OFFCURVE",
"440 169 OFFCURVE",
"412 169 CURVE SMOOTH",
"295 169 OFFCURVE",
"231 230 OFFCURVE",
"231 349 CURVE SMOOTH",
"231 460 OFFCURVE",
"295 528 OFFCURVE",
"422 528 CURVE SMOOTH",
"516 528 OFFCURVE",
"588 510 OFFCURVE",
"648 465 CURVE",
"648 656 LINE",
"592 693 OFFCURVE",
"510 714 OFFCURVE",
"404 714 CURVE SMOOTH",
"170 714 OFFCURVE",
"20 575 OFFCURVE",
"20 349 CURVE SMOOTH",
"20 123 OFFCURVE",
"170 -15 OFFCURVE",
"404 -15 CURVE SMOOTH"
);
},
{
closed = 1;
nodes = (
"462 742 OFFCURVE",
"498 777 OFFCURVE",
"498 823 CURVE SMOOTH",
"498 869 OFFCURVE",
"462 906 OFFCURVE",
"417 906 CURVE SMOOTH",
"372 906 OFFCURVE",
"334 869 OFFCURVE",
"334 823 CURVE SMOOTH",
"334 777 OFFCURVE",
"372 742 OFFCURVE",
"417 742 CURVE SMOOTH"
);
}
);
width = 691;
}
);
leftKerningGroup = C;
note = Gdotaccent;
unicode = 0120;
},
{
glyphname = Gmacron;
lastChange = "2015-11-30 02:19:02 +0000";
layers = (
{
layerId = "13D241F5-3870-466E-AD79-DAA9175309D3";
name = Bold;
paths = (
{
closed = 1;
nodes = (
"516 -15 OFFCURVE",
"605 10 OFFCURVE",
"671 51 CURVE",
"671 401 LINE",
"386 401 LINE",
"386 270 LINE",
"482 270 LINE",
"482 181 LINE",
"464 173 OFFCURVE",
"440 169 OFFCURVE",
"412 169 CURVE SMOOTH",
"295 169 OFFCURVE",
"231 230 OFFCURVE",
"231 349 CURVE SMOOTH",
"231 460 OFFCURVE",
"295 528 OFFCURVE",
"422 528 CURVE SMOOTH",
"516 528 OFFCURVE",
"588 510 OFFCURVE",
"648 465 CURVE",
"648 656 LINE",
"592 693 OFFCURVE",
"510 714 OFFCURVE",
"404 714 CURVE SMOOTH",
"170 714 OFFCURVE",
"20 575 OFFCURVE",
"20 349 CURVE SMOOTH",
"20 123 OFFCURVE",
"170 -15 OFFCURVE",
"404 -15 CURVE SMOOTH"
);
},
{
closed = 1;
nodes = (
"580 757 LINE",
"580 875 LINE",
"224 875 LINE",
"224 757 LINE"
);
}
);
width = 691;
}
);
leftKerningGroup = C;
note = Gmacron;
unicode = 1E20;
},
{
glyphname = H;
lastChange = "2015-11-30 02:19:00 +0000";
layers = (
{
layerId = "13D241F5-3870-466E-AD79-DAA9175309D3";
name = Bold;
paths = (
{
closed = 1;
nodes = (
"247 0 LINE",
"247 268 LINE",
"480 268 LINE",
"480 0 LINE",
"687 0 LINE",
"687 699 LINE",
"480 699 LINE",
"480 442 LINE",
"247 442 LINE",
"247 699 LINE",
"40 699 LINE",
"40 0 LINE"
);
}
);
width = 727;
}
);
note = H;
unicode = 0048;
},
{
glyphname = Hbar;
lastChange = "2015-11-30 02:19:03 +0000";
layers = (
{
layerId = "13D241F5-3870-466E-AD79-DAA9175309D3";
name = Bold;
paths = (
{
closed = 1;
nodes = (
"283 0 LINE",
"283 257 LINE",
"508 257 LINE",
"508 0 LINE",
"719 0 LINE",
"719 517 LINE",
"762 517 LINE",
"762 649 LINE",
"719 649 LINE",
"719 699 LINE",
"508 699 LINE",
"508 649 LINE",
"283 649 LINE",
"283 699 LINE",
"72 699 LINE",
"72 649 LINE",
"30 649 LINE",
"30 517 LINE",
"72 517 LINE",
"72 0 LINE"
);
},
{
closed = 1;
nodes = (
"283 517 LINE",
"508 517 LINE",
"508 453 LINE",
"283 453 LINE"
);
}
);
width = 792;
}
);
note = Hbar;
unicode = 0126;
},
{
glyphname = Hbrevebelow;
lastChange = "2015-11-30 02:19:03 +0000";
layers = (
{
layerId = "13D241F5-3870-466E-AD79-DAA9175309D3";
name = Bold;
paths = (
{
closed = 1;
nodes = (
"247 0 LINE",
"247 268 LINE",
"480 268 LINE",
"480 0 LINE",
"687 0 LINE",
"687 699 LINE",
"480 699 LINE",
"480 442 LINE",
"247 442 LINE",
"247 699 LINE",
"40 699 LINE",
"40 0 LINE"
);
},
{
closed = 1;
nodes = (
"488 -236 OFFCURVE",
"557 -165 OFFCURVE",
"557 -52 CURVE",
"408 -52 LINE",
"408 -92 OFFCURVE",
"392 -112 OFFCURVE",
"363 -112 CURVE SMOOTH",
"333 -112 OFFCURVE",
"318 -92 OFFCURVE",
"318 -52 CURVE",
"169 -52 LINE",
"169 -165 OFFCURVE",
"238 -236 OFFCURVE",
"363 -236 CURVE SMOOTH"
);
}
);
width = 727;
}
);
note = Hbrevebelow;
unicode = 1E2A;
},
{
glyphname = Hcircumflex;
lastChange = "2015-11-30 02:19:02 +0000";
layers = (
{
layerId = "13D241F5-3870-466E-AD79-DAA9175309D3";
name = Bold;
paths = (
{
closed = 1;
nodes = (
"247 0 LINE",
"247 268 LINE",
"480 268 LINE",
"480 0 LINE",
"687 0 LINE",
"687 699 LINE",
"480 699 LINE",
"480 442 LINE",
"247 442 LINE",
"247 699 LINE",
"40 699 LINE",
"40 0 LINE"
);
},
{
closed = 1;
nodes = (
"306 748 LINE",
"364 819 LINE",
"422 748 LINE",
"594 748 LINE",
"446 920 LINE",
"281 920 LINE",
"133 748 LINE"
);
}
);
width = 727;
}
);
note = Hcircumflex;
unicode = 0124;
},
{
glyphname = Hdotbelow;
lastChange = "2015-11-30 02:19:03 +0000";
layers = (
{
layerId = "13D241F5-3870-466E-AD79-DAA9175309D3";
name = Bold;
paths = (
{
closed = 1;
nodes = (
"247 0 LINE",
"247 268 LINE",
"480 268 LINE",
"480 0 LINE",
"687 0 LINE",
"687 699 LINE",
"480 699 LINE",
"480 442 LINE",
"247 442 LINE",
"247 699 LINE",
"40 699 LINE",
"40 0 LINE"
);
},
{
closed = 1;
nodes = (
"409 -210 OFFCURVE",
"445 -174 OFFCURVE",
"445 -128 CURVE SMOOTH",
"445 -82 OFFCURVE",
"409 -46 OFFCURVE",
"364 -46 CURVE SMOOTH",
"319 -46 OFFCURVE",
"281 -82 OFFCURVE",
"281 -128 CURVE SMOOTH",
"281 -174 OFFCURVE",
"319 -210 OFFCURVE",
"364 -210 CURVE SMOOTH"
);
}
);
width = 727;
}
);
note = Hdotbelow;
unicode = 1E24;
},
{
glyphname = I;
lastChange = "2015-11-30 02:19:00 +0000";
layers = (
{
layerId = "13D241F5-3870-466E-AD79-DAA9175309D3";
name = Bold;
paths = (
{
closed = 1;
nodes = (
"247 0 LINE",
"247 699 LINE",
"40 699 LINE",
"40 0 LINE"
);
}
);
width = 287;
}
);
note = I;
unicode = 0049;
},
{
glyphname = IJ;
lastChange = "2015-11-30 02:19:03 +0000";
layers = (
{
layerId = "13D241F5-3870-466E-AD79-DAA9175309D3";
name = Bold;
paths = (
{
closed = 1;
nodes = (
"569 -15 OFFCURVE",
"645 84 OFFCURVE",
"645 222 CURVE SMOOTH",
"645 699 LINE",
"438 699 LINE",
"438 246 LINE SMOOTH",
"438 193 OFFCURVE",
"420 172 OFFCURVE",
"364 172 CURVE SMOOTH",
"333 172 OFFCURVE",
"303 178 OFFCURVE",
"282 188 CURVE",
"282 10 LINE",
"306 -4 OFFCURVE",
"367 -15 OFFCURVE",
"411 -15 CURVE SMOOTH"
);
},
{
closed = 1;
nodes = (
"247 0 LINE",
"247 699 LINE",
"40 699 LINE",
"40 0 LINE"
);
}
);
width = 680;
}
);
note = IJ;
rightKerningGroup = J;
unicode = 0132;
},
{
glyphname = Iacute;
lastChange = "2015-11-30 02:19:03 +0000";
layers = (
{
layerId = "13D241F5-3870-466E-AD79-DAA9175309D3";
name = Bold;
paths = (
{
closed = 1;
nodes = (
"247 0 LINE",
"247 699 LINE",
"40 699 LINE",
"40 0 LINE"
);
},
{
closed = 1;
nodes = (
"229 737 LINE",
"322 917 LINE",
"121 917 LINE",
"52 737 LINE"
);
}
);
width = 287;
}
);
note = Iacute;
unicode = 00CD;
},
{
glyphname = Ibreve;
lastChange = "2015-11-30 02:19:03 +0000";
layers = (
{
layerId = "13D241F5-3870-466E-AD79-DAA9175309D3";
name = Bold;
paths = (
{
closed = 1;
nodes = (
"247 0 LINE",
"247 699 LINE",
"40 699 LINE",
"40 0 LINE"
);
},
{
closed = 1;
nodes = (
"268 741 OFFCURVE",
"337 812 OFFCURVE",
"337 925 CURVE",
"188 925 LINE",
"188 885 OFFCURVE",
"172 865 OFFCURVE",
"143 865 CURVE SMOOTH",
"113 865 OFFCURVE",
"98 885 OFFCURVE",
"98 925 CURVE",
"-51 925 LINE",
"-51 812 OFFCURVE",
"18 741 OFFCURVE",
"143 741 CURVE SMOOTH"
);
}
);
width = 287;
}
);
note = Ibreve;
unicode = 012C;
},
{
glyphname = Icaron;
lastChange = "2015-11-30 02:19:03 +0000";
layers = (
{
layerId = "13D241F5-3870-466E-AD79-DAA9175309D3";
name = Bold;
paths = (
{
closed = 1;
nodes = (
"247 0 LINE",
"247 699 LINE",
"40 699 LINE",
"40 0 LINE"
);
},
{
closed = 1;
nodes = (
"226 751 LINE",
"374 923 LINE",
"202 923 LINE",
"144 852 LINE",
"86 923 LINE",
"-87 923 LINE",
"61 751 LINE"
);
}
);
width = 287;
}
);
note = Icaron;
unicode = 01CF;
},
{
glyphname = Icircumflex;
lastChange = "2015-11-30 02:19:02 +0000";
layers = (
{
layerId = "13D241F5-3870-466E-AD79-DAA9175309D3";
name = Bold;
paths = (
{
closed = 1;
nodes = (
"247 0 LINE",
"247 699 LINE",
"40 699 LINE",
"40 0 LINE"
);
},
{
closed = 1;
nodes = (
"86 741 LINE",
"144 812 LINE",
"202 741 LINE",
"374 741 LINE",
"226 913 LINE",
"61 913 LINE",
"-87 741 LINE"
);
}
);
width = 287;
}
);
note = Icircumflex;
unicode = 00CE;
},
{
glyphname = Idieresis;
lastChange = "2015-11-30 02:19:03 +0000";
layers = (
{
layerId = "13D241F5-3870-466E-AD79-DAA9175309D3";
name = Bold;
paths = (
{
closed = 1;
nodes = (
"247 0 LINE",
"247 699 LINE",
"40 699 LINE",
"40 0 LINE"
);
},
{
closed = 1;
nodes = (
"71 742 OFFCURVE",
"108 777 OFFCURVE",
"108 823 CURVE SMOOTH",
"108 869 OFFCURVE",
"71 906 OFFCURVE",
"26 906 CURVE SMOOTH",
"-18 906 OFFCURVE",
"-57 869 OFFCURVE",
"-57 823 CURVE SMOOTH",
"-57 777 OFFCURVE",
"-18 742 OFFCURVE",
"26 742 CURVE SMOOTH"
);
},
{
closed = 1;
nodes = (
"306 742 OFFCURVE",
"343 777 OFFCURVE",
"343 823 CURVE SMOOTH",
"343 869 OFFCURVE",
"306 906 OFFCURVE",
"262 906 CURVE SMOOTH",
"217 906 OFFCURVE",
"179 869 OFFCURVE",
"179 823 CURVE SMOOTH",
"179 777 OFFCURVE",
"217 742 OFFCURVE",
"262 742 CURVE SMOOTH"
);
}
);
width = 287;
}
);
note = Idieresis;
unicode = 00CF;
},
{
glyphname = Idotaccent;
lastChange = "2015-11-30 02:19:03 +0000";
layers = (
{
layerId = "13D241F5-3870-466E-AD79-DAA9175309D3";
name = Bold;
paths = (
{
closed = 1;
nodes = (
"247 0 LINE",
"247 699 LINE",
"40 699 LINE",
"40 0 LINE"
);
},
{
closed = 1;
nodes = (
"189 742 OFFCURVE",
"225 777 OFFCURVE",
"225 823 CURVE SMOOTH",
"225 869 OFFCURVE",
"189 906 OFFCURVE",
"144 906 CURVE SMOOTH",
"99 906 OFFCURVE",
"61 869 OFFCURVE",
"61 823 CURVE SMOOTH",
"61 777 OFFCURVE",
"99 742 OFFCURVE",
"144 742 CURVE SMOOTH"
);
}
);
width = 287;
}
);
note = Idotaccent;
unicode = 0130;
},
{
glyphname = Idotbelow;
lastChange = "2015-11-30 02:19:03 +0000";
layers = (
{
layerId = "13D241F5-3870-466E-AD79-DAA9175309D3";
name = Bold;
paths = (
{
closed = 1;
nodes = (
"247 0 LINE",
"247 699 LINE",
"40 699 LINE",
"40 0 LINE"
);
},
{
closed = 1;
nodes = (
"189 -210 OFFCURVE",
"225 -174 OFFCURVE",
"225 -128 CURVE SMOOTH",
"225 -82 OFFCURVE",
"189 -46 OFFCURVE",
"144 -46 CURVE SMOOTH",
"99 -46 OFFCURVE",
"61 -82 OFFCURVE",
"61 -128 CURVE SMOOTH",
"61 -174 OFFCURVE",
"99 -210 OFFCURVE",
"144 -210 CURVE SMOOTH"
);
}
);
width = 287;
}
);
note = Idotbelow;
unicode = 1ECA;
},
{
glyphname = Igrave;
lastChange = "2015-11-30 02:19:03 +0000";
layers = (
{
layerId = "13D241F5-3870-466E-AD79-DAA9175309D3";
name = Bold;
paths = (
{
closed = 1;
nodes = (
"247 0 LINE",
"247 699 LINE",
"40 699 LINE",
"40 0 LINE"
);
},
{
closed = 1;
nodes = (
"233 737 LINE",
"164 917 LINE",
"-37 917 LINE",
"56 737 LINE"
);
}
);
width = 287;
}
);
note = Igrave;
unicode = 00CC;
},
{
glyphname = Ihookabove;
lastChange = "2015-11-30 02:19:02 +0000";
layers = (
{
layerId = "13D241F5-3870-466E-AD79-DAA9175309D3";
name = Bold;
paths = (
{
closed = 1;
nodes = (
"247 0 LINE",
"247 699 LINE",
"40 699 LINE",
"40 0 LINE"
);
},
{
closed = 1;
nodes = (
"226 742 LINE",
"226 772 LINE",
"292 783 OFFCURVE",
"323 820 OFFCURVE",
"323 868 CURVE SMOOTH",
"323 933 OFFCURVE",
"268 978 OFFCURVE",
"155 978 CURVE SMOOTH",
"103 978 OFFCURVE",
"56 970 OFFCURVE",
"25 960 CURVE",
"25 876 LINE",
"37 881 OFFCURVE",
"64 886 OFFCURVE",
"87 886 CURVE SMOOTH",
"134 886 OFFCURVE",
"149 871 OFFCURVE",
"149 853 CURVE SMOOTH",
"149 825 OFFCURVE",
"115 814 OFFCURVE",
"60 814 CURVE",
"60 742 LINE"
);
}
);
width = 287;
}
);
note = Ihookabove;
unicode = 1EC8;
},
{
glyphname = Imacron;
lastChange = "2015-11-30 02:19:02 +0000";
layers = (
{
layerId = "13D241F5-3870-466E-AD79-DAA9175309D3";
name = Bold;
paths = (
{
closed = 1;
nodes = (
"247 0 LINE",
"247 699 LINE",
"40 699 LINE",
"40 0 LINE"
);
},
{
closed = 1;
nodes = (
"330 747 LINE",
"330 875 LINE",
"-43 875 LINE",
"-43 747 LINE"
);
}
);
width = 287;
}
);
note = Imacron;
unicode = 012A;
},
{
glyphname = Iogonek;
lastChange = "2015-11-30 02:19:02 +0000";
layers = (
{
layerId = "13D241F5-3870-466E-AD79-DAA9175309D3";
name = Bold;
paths = (
{
closed = 1;
nodes = (
"247 0 LINE",
"247 699 LINE",
"40 699 LINE",
"40 0 LINE"
);
},
{
closed = 1;
nodes = (
"169 -218 OFFCURVE",
"213 -211 OFFCURVE",
"242 -202 CURVE",
"242 -94 LINE",
"226 -102 OFFCURVE",
"209 -106 OFFCURVE",
"193 -106 CURVE SMOOTH",
"174 -106 OFFCURVE",
"163 -95 OFFCURVE",
"163 -78 CURVE SMOOTH",
"163 -50 OFFCURVE",
"187 -28 OFFCURVE",
"242 0 CURVE",
"60 0 LINE",
"18 -25 OFFCURVE",
"-10 -65 OFFCURVE",
"-10 -118 CURVE SMOOTH",
"-10 -188 OFFCURVE",
"49 -218 OFFCURVE",
"126 -218 CURVE SMOOTH"
);
}
);
width = 287;
}
);
note = Iogonek;
unicode = 012E;
},
{
glyphname = Itilde;
lastChange = "2015-11-30 02:19:02 +0000";
layers = (
{
layerId = "13D241F5-3870-466E-AD79-DAA9175309D3";
name = Bold;
paths = (
{
closed = 1;
nodes = (
"247 0 LINE",
"247 699 LINE",
"40 699 LINE",
"40 0 LINE"
);
},
{
closed = 1;
nodes = (
"-33 778 OFFCURVE",
"3 792 OFFCURVE",
"43 792 CURVE SMOOTH",
"107 792 OFFCURVE",
"171 742 OFFCURVE",
"244 742 CURVE SMOOTH",
"289 742 OFFCURVE",
"326 753 OFFCURVE",
"351 783 CURVE",
"351 923 LINE",
"321 888 OFFCURVE",
"285 874 OFFCURVE",
"244 874 CURVE SMOOTH",
"179 874 OFFCURVE",
"111 924 OFFCURVE",
"43 924 CURVE SMOOTH",
"-1 924 OFFCURVE",
"-39 912 OFFCURVE",
"-64 883 CURVE",
"-64 742 LINE"
);
}
);
width = 287;
}
);
note = Itilde;
unicode = 0128;
},
{
glyphname = J;
lastChange = "2015-11-30 02:19:00 +0000";
layers = (
{
layerId = "13D241F5-3870-466E-AD79-DAA9175309D3";
name = Bold;
paths = (
{
closed = 1;
nodes = (
"287 -15 OFFCURVE",
"363 84 OFFCURVE",
"363 222 CURVE SMOOTH",
"363 699 LINE",
"156 699 LINE",
"156 246 LINE SMOOTH",
"156 193 OFFCURVE",
"138 172 OFFCURVE",
"82 172 CURVE SMOOTH",
"51 172 OFFCURVE",
"21 178 OFFCURVE",
"0 188 CURVE",
"0 10 LINE",
"24 -4 OFFCURVE",
"85 -15 OFFCURVE",
"129 -15 CURVE SMOOTH"
);
}
);
width = 398;
}
);
note = J;
rightKerningGroup = J;
unicode = 004A;
},
{
glyphname = Jcircumflex;
lastChange = "2015-11-30 02:19:03 +0000";
layers = (
{
layerId = "13D241F5-3870-466E-AD79-DAA9175309D3";
name = Bold;
paths = (
{
closed = 1;
nodes = (
"287 -15 OFFCURVE",
"363 84 OFFCURVE",
"363 222 CURVE SMOOTH",
"363 699 LINE",
"156 699 LINE",
"156 246 LINE SMOOTH",
"156 193 OFFCURVE",
"138 172 OFFCURVE",
"82 172 CURVE SMOOTH",
"51 172 OFFCURVE",
"21 178 OFFCURVE",
"0 188 CURVE",
"0 10 LINE",
"24 -4 OFFCURVE",
"85 -15 OFFCURVE",
"129 -15 CURVE SMOOTH"
);
},
{
closed = 1;
nodes = (
"195 741 LINE",
"253 812 LINE",
"311 741 LINE",
"483 741 LINE",
"335 913 LINE",
"170 913 LINE",
"22 741 LINE"
);
}
);
width = 398;
}
);
note = Jcircumflex;
rightKerningGroup = J;
unicode = 0134;
},
{
glyphname = K;
lastChange = "2015-11-30 02:19:00 +0000";
layers = (
{
layerId = "13D241F5-3870-466E-AD79-DAA9175309D3";
name = Bold;
paths = (
{
closed = 1;
nodes = (
"247 0 LINE",
"247 292 LINE",
"481 0 LINE",
"725 0 LINE",
"437 360 LINE",
"706 699 LINE",
"462 699 LINE",
"247 428 LINE",
"247 699 LINE",
"40 699 LINE",
"40 0 LINE"
);
}
);
width = 745;
}
);
leftKerningGroup = K;
note = K;
rightKerningGroup = K;
unicode = 004B;
},
{
glyphname = Kcommaaccent;
lastChange = "2015-11-30 02:19:03 +0000";
layers = (
{
layerId = "13D241F5-3870-466E-AD79-DAA9175309D3";
name = Bold;
paths = (
{
closed = 1;
nodes = (
"247 0 LINE",
"247 292 LINE",
"481 0 LINE",
"725 0 LINE",
"437 360 LINE",
"706 699 LINE",
"462 699 LINE",
"247 428 LINE",
"247 699 LINE",
"40 699 LINE",
"40 0 LINE"
);
},
{
closed = 1;
nodes = (
"352 -260 LINE",
"460 -45 LINE",
"263 -45 LINE",
"180 -260 LINE"
);
}
);
width = 745;
}
);
leftKerningGroup = K;
note = Kcommaaccent;
rightKerningGroup = K;
unicode = 0136;
},
{
glyphname = L;
lastChange = "2015-11-30 02:19:00 +0000";
layers = (
{
layerId = "13D241F5-3870-466E-AD79-DAA9175309D3";
name = Bold;
paths = (
{
closed = 1;
nodes = (
"529 0 LINE",
"529 174 LINE",
"247 174 LINE",
"247 699 LINE",
"40 699 LINE",
"40 0 LINE"
);
}
);
width = 529;
}
);
note = L;
rightKerningGroup = L;
unicode = 004C;
},
{
glyphname = Lacute;
lastChange = "2015-11-30 02:19:03 +0000";
layers = (
{
layerId = "13D241F5-3870-466E-AD79-DAA9175309D3";
name = Bold;
paths = (
{
closed = 1;
nodes = (
"529 0 LINE",
"529 174 LINE",
"247 174 LINE",
"247 699 LINE",
"40 699 LINE",
"40 0 LINE"
);
},
{
closed = 1;
nodes = (
"235 740 LINE",
"328 920 LINE",
"127 920 LINE",
"58 740 LINE"
);
}
);
width = 529;
}
);
note = Lacute;
rightKerningGroup = L;
unicode = 0139;
},
{
glyphname = Lcaron;
lastChange = "2015-11-30 02:19:03 +0000";
layers = (
{
layerId = "13D241F5-3870-466E-AD79-DAA9175309D3";
name = Bold;
paths = (
{
closed = 1;
nodes = (
"529 0 LINE",
"529 174 LINE",
"247 174 LINE",
"247 699 LINE",
"40 699 LINE",
"40 0 LINE"
);
},
{
closed = 1;
nodes = (
"493 503 LINE",
"601 718 LINE",
"404 718 LINE",
"321 503 LINE"
);
}
);
width = 549;
}
);
note = Lcaron;
rightKerningGroup = L;
unicode = 013D;
},
{
glyphname = Lcommaaccent;
lastChange = "2015-11-30 02:19:03 +0000";
layers = (
{
layerId = "13D241F5-3870-466E-AD79-DAA9175309D3";
name = Bold;
paths = (
{
closed = 1;
nodes = (
"529 0 LINE",
"529 174 LINE",
"247 174 LINE",
"247 699 LINE",
"40 699 LINE",
"40 0 LINE"
);
},
{
closed = 1;
nodes = (
"303 -260 LINE",
"411 -45 LINE",
"214 -45 LINE",
"131 -260 LINE"
);
}
);
width = 529;
}
);
note = Lcommaaccent;
rightKerningGroup = L;
unicode = 013B;
},
{
glyphname = Ldot;
lastChange = "2015-11-30 02:19:03 +0000";
layers = (
{
layerId = "13D241F5-3870-466E-AD79-DAA9175309D3";
name = Bold;
paths = (
{
closed = 1;
nodes = (
"529 0 LINE",
"529 174 LINE",
"247 174 LINE",
"247 699 LINE",
"40 699 LINE",
"40 0 LINE"
);
},
{
closed = 1;
nodes = (
"451 317 OFFCURVE",
"487 352 OFFCURVE",
"487 398 CURVE SMOOTH",
"487 444 OFFCURVE",
"451 481 OFFCURVE",
"406 481 CURVE SMOOTH",
"361 481 OFFCURVE",
"323 444 OFFCURVE",
"323 398 CURVE SMOOTH",
"323 352 OFFCURVE",
"361 317 OFFCURVE",
"406 317 CURVE SMOOTH"
);
}
);
width = 529;
}
);
note = Ldot;
rightKerningGroup = L;
unicode = 013F;
},
{
glyphname = Ldotbelow;
lastChange = "2015-11-30 02:19:03 +0000";
layers = (
{
layerId = "13D241F5-3870-466E-AD79-DAA9175309D3";
name = Bold;
paths = (
{
closed = 1;
nodes = (
"529 0 LINE",
"529 174 LINE",
"247 174 LINE",
"247 699 LINE",
"40 699 LINE",
"40 0 LINE"
);
},
{
closed = 1;
nodes = (
"321 -210 OFFCURVE",
"357 -174 OFFCURVE",
"357 -128 CURVE SMOOTH",
"357 -82 OFFCURVE",
"321 -46 OFFCURVE",
"276 -46 CURVE SMOOTH",
"231 -46 OFFCURVE",
"193 -82 OFFCURVE",
"193 -128 CURVE SMOOTH",
"193 -174 OFFCURVE",
"231 -210 OFFCURVE",
"276 -210 CURVE SMOOTH"
);
}
);
width = 529;
}
);
note = Ldotbelow;
rightKerningGroup = L;
unicode = 1E36;
},
{
glyphname = Ldotbelowmacron;
lastChange = "2015-11-30 02:19:03 +0000";
layers = (
{
layerId = "13D241F5-3870-466E-AD79-DAA9175309D3";
name = Bold;
paths = (
{
closed = 1;
nodes = (
"530 0 LINE",
"530 174 LINE",
"248 174 LINE",
"248 699 LINE",
"41 699 LINE",
"41 0 LINE"
);
},
{
closed = 1;
nodes = (
"327 -210 OFFCURVE",
"363 -174 OFFCURVE",
"363 -128 CURVE SMOOTH",
"363 -82 OFFCURVE",
"327 -46 OFFCURVE",
"282 -46 CURVE SMOOTH",
"237 -46 OFFCURVE",
"199 -82 OFFCURVE",
"199 -128 CURVE SMOOTH",
"199 -174 OFFCURVE",
"237 -210 OFFCURVE",
"282 -210 CURVE SMOOTH"
);
},
{
closed = 1;
nodes = (
"355 764 LINE",
"355 882 LINE",
"-1 882 LINE",
"-1 764 LINE"
);
}
);
width = 530;
}
);
note = Ldotbelowmacron;
rightKerningGroup = L;
unicode = 1E38;
},
{
glyphname = Llinebelow;
lastChange = "2015-11-30 02:19:03 +0000";
layers = (
{
layerId = "13D241F5-3870-466E-AD79-DAA9175309D3";
name = Bold;
paths = (
{
closed = 1;
nodes = (
"529 0 LINE",
"529 174 LINE",
"247 174 LINE",
"247 699 LINE",
"40 699 LINE",
"40 0 LINE"
);
},
{
closed = 1;
nodes = (
"466 -172 LINE",
"466 -54 LINE",
"110 -54 LINE",
"110 -172 LINE"
);
}
);
width = 529;
}
);
note = Llinebelow;
rightKerningGroup = L;
unicode = 1E3A;
},
{
glyphname = Lslash;
lastChange = "2015-11-30 02:19:00 +0000";
layers = (
{
layerId = "13D241F5-3870-466E-AD79-DAA9175309D3";
name = Bold;
paths = (
{
closed = 1;
nodes = (
"537 0 LINE",
"537 177 LINE",
"259 177 LINE",
"259 337 LINE",
"386 394 LINE",
"386 587 LINE",
"259 530 LINE",
"259 699 LINE",
"48 699 LINE",
"48 436 LINE",
"-20 406 LINE",
"-20 212 LINE",
"48 242 LINE",
"48 0 LINE"
);
}
);
width = 537;
}
);
note = Lslash;
rightKerningGroup = L;
unicode = 0141;
},
{
glyphname = M;
lastChange = "2015-11-30 02:19:00 +0000";
layers = (
{
layerId = "13D241F5-3870-466E-AD79-DAA9175309D3";
name = Bold;
paths = (
{
closed = 1;
nodes = (
"233 0 LINE",
"233 310 LINE",
"376 0 LINE",
"462 0 LINE",
"605 310 LINE",
"605 0 LINE",
"798 0 LINE",
"798 699 LINE",
"609 699 LINE",
"419 288 LINE",
"229 699 LINE",
"40 699 LINE",
"40 0 LINE"
);
}
);
width = 838;
}
);
note = M;
unicode = 004D;
},
{
glyphname = Mdotbelow;
lastChange = "2015-11-30 02:19:03 +0000";
layers = (
{
layerId = "13D241F5-3870-466E-AD79-DAA9175309D3";
name = Bold;
paths = (
{
closed = 1;
nodes = (
"233 0 LINE",
"233 310 LINE",
"376 0 LINE",
"462 0 LINE",
"605 310 LINE",
"605 0 LINE",
"798 0 LINE",
"798 699 LINE",
"609 699 LINE",
"419 288 LINE",
"229 699 LINE",
"40 699 LINE",
"40 0 LINE"
);
},
{
closed = 1;
nodes = (
"471 -210 OFFCURVE",
"507 -174 OFFCURVE",
"507 -128 CURVE SMOOTH",
"507 -82 OFFCURVE",
"471 -46 OFFCURVE",
"426 -46 CURVE SMOOTH",
"381 -46 OFFCURVE",
"343 -82 OFFCURVE",
"343 -128 CURVE SMOOTH",
"343 -174 OFFCURVE",
"381 -210 OFFCURVE",
"426 -210 CURVE SMOOTH"
);
}
);
width = 838;
}
);
note = Mdotbelow;
unicode = 1E42;
},
{
glyphname = N;
lastChange = "2015-11-30 02:19:00 +0000";
layers = (
{
layerId = "13D241F5-3870-466E-AD79-DAA9175309D3";
name = Bold;
paths = (
{
closed = 1;
nodes = (
"247 0 LINE",
"247 366 LINE",
"466 0 LINE",
"666 0 LINE",
"666 699 LINE",
"459 699 LINE",
"459 333 LINE",
"241 699 LINE",
"40 699 LINE",
"40 0 LINE"
);
}
);
width = 706;
}
);
note = N;
unicode = 004E;
},
{
glyphname = Nacute;
lastChange = "2015-11-30 02:19:03 +0000";
layers = (
{
layerId = "13D241F5-3870-466E-AD79-DAA9175309D3";
name = Bold;
paths = (
{
closed = 1;
nodes = (
"247 0 LINE",
"247 366 LINE",
"466 0 LINE",
"666 0 LINE",
"666 699 LINE",
"459 699 LINE",
"459 333 LINE",
"241 699 LINE",
"40 699 LINE",
"40 0 LINE"
);
},
{
closed = 1;
nodes = (
"439 737 LINE",
"532 917 LINE",
"331 917 LINE",
"262 737 LINE"
);
}
);
width = 706;
}
);
note = Nacute;
unicode = 0143;
},
{
glyphname = Ncaron;
lastChange = "2015-11-30 02:19:03 +0000";
layers = (
{
layerId = "13D241F5-3870-466E-AD79-DAA9175309D3";
name = Bold;
paths = (
{
closed = 1;
nodes = (
"247 0 LINE",
"247 366 LINE",
"466 0 LINE",
"666 0 LINE",
"666 699 LINE",
"459 699 LINE",
"459 333 LINE",
"241 699 LINE",
"40 699 LINE",
"40 0 LINE"
);
},
{
closed = 1;
nodes = (
"443 748 LINE",
"591 920 LINE",
"419 920 LINE",
"361 849 LINE",
"303 920 LINE",
"130 920 LINE",
"278 748 LINE"
);
}
);
width = 706;
}
);
note = Ncaron;
unicode = 0147;
},
{
glyphname = Ncommaaccent;
lastChange = "2015-11-30 02:19:03 +0000";
layers = (
{
layerId = "13D241F5-3870-466E-AD79-DAA9175309D3";
name = Bold;
paths = (
{
closed = 1;
nodes = (
"247 0 LINE",
"247 366 LINE",
"466 0 LINE",
"666 0 LINE",
"666 699 LINE",
"459 699 LINE",
"459 333 LINE",
"241 699 LINE",
"40 699 LINE",
"40 0 LINE"
);
},
{
closed = 1;
nodes = (
"358 -260 LINE",
"466 -45 LINE",
"269 -45 LINE",
"186 -260 LINE"
);
}
);
width = 706;
}
);
note = Ncommaaccent;
unicode = 0145;
},
{
glyphname = Ndotaccent;
lastChange = "2015-11-30 02:19:03 +0000";
layers = (
{
layerId = "13D241F5-3870-466E-AD79-DAA9175309D3";
name = Bold;
paths = (
{
closed = 1;
nodes = (
"247 0 LINE",
"247 366 LINE",
"466 0 LINE",
"666 0 LINE",
"666 699 LINE",
"459 699 LINE",
"459 333 LINE",
"241 699 LINE",
"40 699 LINE",
"40 0 LINE"
);
},
{
closed = 1;
nodes = (
"406 742 OFFCURVE",
"442 777 OFFCURVE",
"442 823 CURVE SMOOTH",
"442 869 OFFCURVE",
"406 906 OFFCURVE",
"361 906 CURVE SMOOTH",
"316 906 OFFCURVE",
"278 869 OFFCURVE",
"278 823 CURVE SMOOTH",
"278 777 OFFCURVE",
"316 742 OFFCURVE",
"361 742 CURVE SMOOTH"
);
}
);
width = 706;
}
);
note = Ndotaccent;
unicode = 1E44;
},
{
glyphname = Ndotbelow;
lastChange = "2015-11-30 02:19:03 +0000";
layers = (
{
layerId = "13D241F5-3870-466E-AD79-DAA9175309D3";
name = Bold;
paths = (
{
closed = 1;
nodes = (
"247 0 LINE",
"247 366 LINE",
"466 0 LINE",
"666 0 LINE",
"666 699 LINE",
"459 699 LINE",
"459 333 LINE",
"241 699 LINE",
"40 699 LINE",
"40 0 LINE"
);
},
{
closed = 1;
nodes = (
"405 -210 OFFCURVE",
"441 -174 OFFCURVE",
"441 -128 CURVE SMOOTH",
"441 -82 OFFCURVE",
"405 -46 OFFCURVE",
"360 -46 CURVE SMOOTH",
"315 -46 OFFCURVE",
"277 -82 OFFCURVE",
"277 -128 CURVE SMOOTH",
"277 -174 OFFCURVE",
"315 -210 OFFCURVE",
"360 -210 CURVE SMOOTH"
);
}
);
width = 706;
}
);
note = Ndotbelow;
unicode = 1E46;
},
{
glyphname = Eng;
lastChange = "2015-11-30 02:19:00 +0000";
layers = (
{
layerId = "13D241F5-3870-466E-AD79-DAA9175309D3";
name = Bold;
paths = (
{
closed = 1;
nodes = (
"563 -231 OFFCURVE",
"666 -161 OFFCURVE",
"666 -20 CURVE SMOOTH",
"666 699 LINE",
"459 699 LINE",
"459 333 LINE",
"241 699 LINE",
"40 699 LINE",
"40 0 LINE",
"247 0 LINE",
"247 366 LINE",
"465 6 LINE",
"465 -1 LINE SMOOTH",
"465 -48 OFFCURVE",
"438 -68 OFFCURVE",
"398 -68 CURVE SMOOTH",
"368 -68 OFFCURVE",
"347 -63 OFFCURVE",
"327 -53 CURVE",
"327 -212 LINE",
"352 -224 OFFCURVE",
"386 -231 OFFCURVE",
"429 -231 CURVE SMOOTH"
);
}
);
width = 706;
}
);
note = Eng;
unicode = 014A;
},
{
glyphname = Nlinebelow;
lastChange = "2015-11-30 02:19:03 +0000";
layers = (
{
layerId = "13D241F5-3870-466E-AD79-DAA9175309D3";
name = Bold;
paths = (
{
closed = 1;
nodes = (
"247 0 LINE",
"247 366 LINE",
"466 0 LINE",
"666 0 LINE",
"666 699 LINE",
"459 699 LINE",
"459 333 LINE",
"241 699 LINE",
"40 699 LINE",
"40 0 LINE"
);
},
{
closed = 1;
nodes = (
"539 -172 LINE",
"539 -54 LINE",
"183 -54 LINE",
"183 -172 LINE"
);
}
);
width = 706;
}
);
note = Nlinebelow;
unicode = 1E48;
},
{
glyphname = Ntilde;
lastChange = "2015-11-30 02:19:03 +0000";
layers = (
{
layerId = "13D241F5-3870-466E-AD79-DAA9175309D3";
name = Bold;
paths = (
{
closed = 1;
nodes = (
"247 0 LINE",
"247 366 LINE",
"466 0 LINE",
"666 0 LINE",
"666 699 LINE",
"459 699 LINE",
"459 333 LINE",
"241 699 LINE",
"40 699 LINE",
"40 0 LINE"
);
},
{
closed = 1;
nodes = (
"189 778 OFFCURVE",
"225 792 OFFCURVE",
"265 792 CURVE SMOOTH",
"329 792 OFFCURVE",
"393 742 OFFCURVE",
"466 742 CURVE SMOOTH",
"511 742 OFFCURVE",
"548 753 OFFCURVE",
"573 783 CURVE",
"573 923 LINE",
"543 888 OFFCURVE",
"507 874 OFFCURVE",
"466 874 CURVE SMOOTH",
"401 874 OFFCURVE",
"333 924 OFFCURVE",
"265 924 CURVE SMOOTH",
"221 924 OFFCURVE",
"183 912 OFFCURVE",
"158 883 CURVE",
"158 742 LINE"
);
}
);
width = 706;
}
);
note = Ntilde;
unicode = 00D1;
},
{
glyphname = O;
lastChange = "2015-11-30 02:19:03 +0000";
layers = (
{
layerId = "13D241F5-3870-466E-AD79-DAA9175309D3";
name = Bold;
paths = (
{
closed = 1;
nodes = (
"610 -15 OFFCURVE",
"774 131 OFFCURVE",
"774 349 CURVE SMOOTH",
"774 568 OFFCURVE",
"610 714 OFFCURVE",
"398 714 CURVE SMOOTH",
"185 714 OFFCURVE",
"20 568 OFFCURVE",
"20 349 CURVE SMOOTH",
"20 131 OFFCURVE",
"185 -15 OFFCURVE",
"398 -15 CURVE SMOOTH"
);
},
{
closed = 1;
nodes = (
"305 179 OFFCURVE",
"231 242 OFFCURVE",
"231 349 CURVE SMOOTH",
"231 454 OFFCURVE",
"304 518 OFFCURVE",
"398 518 CURVE SMOOTH",
"491 518 OFFCURVE",
"563 454 OFFCURVE",
"563 349 CURVE SMOOTH",
"563 242 OFFCURVE",
"489 179 OFFCURVE",
"398 179 CURVE SMOOTH"
);
}
);
width = 794;
}
);
leftKerningGroup = O;
note = O;
rightKerningGroup = O;
unicode = 004F;
},
{
glyphname = Oacute;
lastChange = "2015-11-30 02:19:03 +0000";
layers = (
{
layerId = "13D241F5-3870-466E-AD79-DAA9175309D3";
name = Bold;
paths = (
{
closed = 1;
nodes = (
"610 -15 OFFCURVE",
"774 131 OFFCURVE",
"774 349 CURVE SMOOTH",
"774 568 OFFCURVE",
"610 714 OFFCURVE",
"398 714 CURVE SMOOTH",
"185 714 OFFCURVE",
"20 568 OFFCURVE",
"20 349 CURVE SMOOTH",
"20 131 OFFCURVE",
"185 -15 OFFCURVE",
"398 -15 CURVE SMOOTH"
);
},
{
closed = 1;
nodes = (
"305 179 OFFCURVE",
"231 242 OFFCURVE",
"231 349 CURVE SMOOTH",
"231 454 OFFCURVE",
"304 518 OFFCURVE",
"398 518 CURVE SMOOTH",
"491 518 OFFCURVE",
"563 454 OFFCURVE",
"563 349 CURVE SMOOTH",
"563 242 OFFCURVE",
"489 179 OFFCURVE",
"398 179 CURVE SMOOTH"
);
},
{
closed = 1;
nodes = (
"475 737 LINE",
"568 917 LINE",
"367 917 LINE",
"298 737 LINE"
);
}
);
width = 794;
}
);
leftKerningGroup = O;
note = Oacute;
rightKerningGroup = O;
unicode = 00D3;
},
{
glyphname = Obreve;
lastChange = "2015-11-30 02:19:02 +0000";
layers = (
{
layerId = "13D241F5-3870-466E-AD79-DAA9175309D3";
name = Bold;
paths = (
{
closed = 1;
nodes = (
"610 -15 OFFCURVE",
"774 131 OFFCURVE",
"774 349 CURVE SMOOTH",
"774 568 OFFCURVE",
"610 714 OFFCURVE",
"398 714 CURVE SMOOTH",
"185 714 OFFCURVE",
"20 568 OFFCURVE",
"20 349 CURVE SMOOTH",
"20 131 OFFCURVE",
"185 -15 OFFCURVE",
"398 -15 CURVE SMOOTH"
);
},
{
closed = 1;
nodes = (
"305 179 OFFCURVE",
"231 242 OFFCURVE",
"231 349 CURVE SMOOTH",
"231 454 OFFCURVE",
"304 518 OFFCURVE",
"398 518 CURVE SMOOTH",
"491 518 OFFCURVE",
"563 454 OFFCURVE",
"563 349 CURVE SMOOTH",
"563 242 OFFCURVE",
"489 179 OFFCURVE",
"398 179 CURVE SMOOTH"
);
},
{
closed = 1;
nodes = (
"522 741 OFFCURVE",
"591 812 OFFCURVE",
"591 925 CURVE",
"442 925 LINE",
"442 885 OFFCURVE",
"426 865 OFFCURVE",
"397 865 CURVE SMOOTH",
"367 865 OFFCURVE",
"352 885 OFFCURVE",
"352 925 CURVE",
"203 925 LINE",
"203 812 OFFCURVE",
"272 741 OFFCURVE",
"397 741 CURVE SMOOTH"
);
}
);
width = 794;
}
);
leftKerningGroup = O;
note = Obreve;
rightKerningGroup = O;
unicode = 014E;
},
{
glyphname = Ocaron;
lastChange = "2015-11-30 02:19:03 +0000";
layers = (
{
layerId = "13D241F5-3870-466E-AD79-DAA9175309D3";
name = Bold;
paths = (
{
closed = 1;
nodes = (
"610 -15 OFFCURVE",
"774 131 OFFCURVE",
"774 349 CURVE SMOOTH",
"774 568 OFFCURVE",
"610 714 OFFCURVE",
"398 714 CURVE SMOOTH",
"185 714 OFFCURVE",
"20 568 OFFCURVE",
"20 349 CURVE SMOOTH",
"20 131 OFFCURVE",
"185 -15 OFFCURVE",
"398 -15 CURVE SMOOTH"
);
},
{
closed = 1;
nodes = (
"305 179 OFFCURVE",
"231 242 OFFCURVE",
"231 349 CURVE SMOOTH",
"231 454 OFFCURVE",
"304 518 OFFCURVE",
"398 518 CURVE SMOOTH",
"491 518 OFFCURVE",
"563 454 OFFCURVE",
"563 349 CURVE SMOOTH",
"563 242 OFFCURVE",
"489 179 OFFCURVE",
"398 179 CURVE SMOOTH"
);
},
{
closed = 1;
nodes = (
"480 748 LINE",
"628 920 LINE",
"456 920 LINE",
"398 849 LINE",
"340 920 LINE",
"167 920 LINE",
"315 748 LINE"
);
}
);
width = 794;
}
);
leftKerningGroup = O;
note = Ocaron;
rightKerningGroup = O;
unicode = 01D1;
},
{
glyphname = Ocircumflex;
lastChange = "2015-11-30 02:19:03 +0000";
layers = (
{
layerId = "13D241F5-3870-466E-AD79-DAA9175309D3";
name = Bold;
paths = (
{
closed = 1;
nodes = (
"610 -15 OFFCURVE",
"774 131 OFFCURVE",
"774 349 CURVE SMOOTH",
"774 568 OFFCURVE",
"610 714 OFFCURVE",
"398 714 CURVE SMOOTH",
"185 714 OFFCURVE",
"20 568 OFFCURVE",
"20 349 CURVE SMOOTH",
"20 131 OFFCURVE",
"185 -15 OFFCURVE",
"398 -15 CURVE SMOOTH"
);
},
{
closed = 1;
nodes = (
"305 179 OFFCURVE",
"231 242 OFFCURVE",
"231 349 CURVE SMOOTH",
"231 454 OFFCURVE",
"304 518 OFFCURVE",
"398 518 CURVE SMOOTH",
"491 518 OFFCURVE",
"563 454 OFFCURVE",
"563 349 CURVE SMOOTH",
"563 242 OFFCURVE",
"489 179 OFFCURVE",
"398 179 CURVE SMOOTH"
);
},
{
closed = 1;
nodes = (
"340 749 LINE",
"398 820 LINE",
"456 749 LINE",
"628 749 LINE",
"480 921 LINE",
"315 921 LINE",
"167 749 LINE"
);
}
);
width = 794;
}
);
leftKerningGroup = O;
note = Ocircumflex;
rightKerningGroup = O;
unicode = 00D4;
},
{
glyphname = Ocircumflexacute;
lastChange = "2015-11-30 02:19:02 +0000";
layers = (
{
layerId = "13D241F5-3870-466E-AD79-DAA9175309D3";
name = Bold;
paths = (
{
closed = 1;
nodes = (
"610 -15 OFFCURVE",
"774 131 OFFCURVE",
"774 349 CURVE SMOOTH",
"774 568 OFFCURVE",
"610 714 OFFCURVE",
"398 714 CURVE SMOOTH",
"185 714 OFFCURVE",
"20 568 OFFCURVE",
"20 349 CURVE SMOOTH",
"20 131 OFFCURVE",
"185 -15 OFFCURVE",
"398 -15 CURVE SMOOTH"
);
},
{
closed = 1;
nodes = (
"305 179 OFFCURVE",
"231 242 OFFCURVE",
"231 349 CURVE SMOOTH",
"231 454 OFFCURVE",
"304 518 OFFCURVE",
"398 518 CURVE SMOOTH",
"491 518 OFFCURVE",
"563 454 OFFCURVE",
"563 349 CURVE SMOOTH",
"563 242 OFFCURVE",
"489 179 OFFCURVE",
"398 179 CURVE SMOOTH"
);
},
{
closed = 1;
nodes = (
"337 741 LINE",
"398 809 LINE",
"459 741 LINE",
"623 741 LINE",
"464 900 LINE",
"331 900 LINE",
"173 741 LINE"
);
},
{
closed = 1;
nodes = (
"673 865 LINE",
"755 1009 LINE",
"591 1009 LINE",
"533 865 LINE"
);
}
);
width = 794;
}
);
leftKerningGroup = O;
note = Ocircumflexacute;
rightKerningGroup = O;
unicode = 1ED0;
},
{
glyphname = Ocircumflexdotbelow;
lastChange = "2015-11-30 02:19:03 +0000";
layers = (
{
layerId = "13D241F5-3870-466E-AD79-DAA9175309D3";
name = Bold;
paths = (
{
closed = 1;
nodes = (
"610 -15 OFFCURVE",
"774 131 OFFCURVE",
"774 349 CURVE SMOOTH",
"774 568 OFFCURVE",
"610 714 OFFCURVE",
"398 714 CURVE SMOOTH",
"185 714 OFFCURVE",
"20 568 OFFCURVE",
"20 349 CURVE SMOOTH",
"20 131 OFFCURVE",
"185 -15 OFFCURVE",
"398 -15 CURVE SMOOTH"
);
},
{
closed = 1;
nodes = (
"443 -210 OFFCURVE",
"479 -174 OFFCURVE",
"479 -128 CURVE SMOOTH",
"479 -82 OFFCURVE",
"443 -46 OFFCURVE",
"398 -46 CURVE SMOOTH",
"353 -46 OFFCURVE",
"315 -82 OFFCURVE",
"315 -128 CURVE SMOOTH",
"315 -174 OFFCURVE",
"353 -210 OFFCURVE",
"398 -210 CURVE SMOOTH"
);
},
{
closed = 1;
nodes = (
"305 179 OFFCURVE",
"231 242 OFFCURVE",
"231 349 CURVE SMOOTH",
"231 454 OFFCURVE",
"304 518 OFFCURVE",
"398 518 CURVE SMOOTH",
"491 518 OFFCURVE",
"563 454 OFFCURVE",
"563 349 CURVE SMOOTH",
"563 242 OFFCURVE",
"489 179 OFFCURVE",
"398 179 CURVE SMOOTH"
);
},
{
closed = 1;
nodes = (
"340 748 LINE",
"398 819 LINE",
"456 748 LINE",
"628 748 LINE",
"480 920 LINE",
"315 920 LINE",
"167 748 LINE"
);
}
);
width = 794;
}
);
leftKerningGroup = O;
note = Ocircumflexdotbelow;
rightKerningGroup = O;
unicode = 1ED8;
},
{
glyphname = Ocircumflexgrave;
lastChange = "2015-11-30 02:19:03 +0000";
layers = (
{
layerId = "13D241F5-3870-466E-AD79-DAA9175309D3";
name = Bold;
paths = (
{
closed = 1;
nodes = (
"610 -15 OFFCURVE",
"774 131 OFFCURVE",
"774 349 CURVE SMOOTH",
"774 568 OFFCURVE",
"610 714 OFFCURVE",
"398 714 CURVE SMOOTH",
"185 714 OFFCURVE",
"20 568 OFFCURVE",
"20 349 CURVE SMOOTH",
"20 131 OFFCURVE",
"185 -15 OFFCURVE",
"398 -15 CURVE SMOOTH"
);
},
{
closed = 1;
nodes = (
"305 179 OFFCURVE",
"231 242 OFFCURVE",
"231 349 CURVE SMOOTH",
"231 454 OFFCURVE",
"304 518 OFFCURVE",
"398 518 CURVE SMOOTH",
"491 518 OFFCURVE",
"563 454 OFFCURVE",
"563 349 CURVE SMOOTH",
"563 242 OFFCURVE",
"489 179 OFFCURVE",
"398 179 CURVE SMOOTH"
);
},
{
closed = 1;
nodes = (
"260 865 LINE",
"202 1009 LINE",
"38 1009 LINE",
"120 865 LINE"
);
},
{
closed = 1;
nodes = (
"334 741 LINE",
"395 809 LINE",
"456 741 LINE",
"620 741 LINE",
"462 900 LINE",
"329 900 LINE",
"170 741 LINE"
);
}
);
width = 794;
}
);
leftKerningGroup = O;
note = Ocircumflexgrave;
rightKerningGroup = O;
unicode = 1ED2;
},
{
glyphname = Ocircumflexhookabove;
lastChange = "2015-11-30 02:19:03 +0000";
layers = (
{
layerId = "13D241F5-3870-466E-AD79-DAA9175309D3";
name = Bold;
paths = (
{
closed = 1;
nodes = (
"610 -15 OFFCURVE",
"774 131 OFFCURVE",
"774 349 CURVE SMOOTH",
"774 568 OFFCURVE",
"610 714 OFFCURVE",
"398 714 CURVE SMOOTH",
"185 714 OFFCURVE",
"20 568 OFFCURVE",
"20 349 CURVE SMOOTH",
"20 131 OFFCURVE",
"185 -15 OFFCURVE",
"398 -15 CURVE SMOOTH"
);
},
{
closed = 1;
nodes = (
"305 179 OFFCURVE",
"231 242 OFFCURVE",
"231 349 CURVE SMOOTH",
"231 454 OFFCURVE",
"304 518 OFFCURVE",
"398 518 CURVE SMOOTH",
"491 518 OFFCURVE",
"563 454 OFFCURVE",
"563 349 CURVE SMOOTH",
"563 242 OFFCURVE",
"489 179 OFFCURVE",
"398 179 CURVE SMOOTH"
);
},
{
closed = 1;
nodes = (
"350 741 LINE",
"411 809 LINE",
"472 741 LINE",
"636 741 LINE",
"477 900 LINE",
"344 900 LINE",
"186 741 LINE"
);
},
{
closed = 1;
nodes = (
"663 854 LINE",
"663 879 LINE",
"700 890 OFFCURVE",
"723 912 OFFCURVE",
"723 945 CURVE SMOOTH",
"723 990 OFFCURVE",
"684 1020 OFFCURVE",
"609 1020 CURVE SMOOTH",
"580 1020 OFFCURVE",
"539 1014 OFFCURVE",
"516 1008 CURVE",
"516 944 LINE",
"525 948 OFFCURVE",
"540 950 OFFCURVE",
"551 950 CURVE SMOOTH",
"577 950 OFFCURVE",
"590 943 OFFCURVE",
"590 929 CURVE SMOOTH",
"590 911 OFFCURVE",
"571 905 OFFCURVE",
"541 905 CURVE",
"541 854 LINE"
);
}
);
width = 794;
}
);
leftKerningGroup = O;
note = Ocircumflexhookabove;
rightKerningGroup = O;
unicode = 1ED4;
},
{
glyphname = Ocircumflextilde;
lastChange = "2015-11-30 02:19:03 +0000";
layers = (
{
layerId = "13D241F5-3870-466E-AD79-DAA9175309D3";
name = Bold;
paths = (
{
closed = 1;
nodes = (
"610 -15 OFFCURVE",
"774 131 OFFCURVE",
"774 349 CURVE SMOOTH",
"774 568 OFFCURVE",
"610 714 OFFCURVE",
"398 714 CURVE SMOOTH",
"185 714 OFFCURVE",
"20 568 OFFCURVE",
"20 349 CURVE SMOOTH",
"20 131 OFFCURVE",
"185 -15 OFFCURVE",
"398 -15 CURVE SMOOTH"
);
},
{
closed = 1;
nodes = (
"305 179 OFFCURVE",
"231 242 OFFCURVE",
"231 349 CURVE SMOOTH",
"231 454 OFFCURVE",
"304 518 OFFCURVE",
"398 518 CURVE SMOOTH",
"491 518 OFFCURVE",
"563 454 OFFCURVE",
"563 349 CURVE SMOOTH",
"563 242 OFFCURVE",
"489 179 OFFCURVE",
"398 179 CURVE SMOOTH"
);
},
{
closed = 1;
nodes = (
"505 741 OFFCURVE",
"579 800 OFFCURVE",
"579 897 CURVE",
"452 897 LINE",
"452 862 OFFCURVE",
"434 844 OFFCURVE",
"398 844 CURVE SMOOTH",
"361 844 OFFCURVE",
"344 862 OFFCURVE",
"344 897 CURVE",
"216 897 LINE",
"216 800 OFFCURVE",
"291 741 OFFCURVE",
"398 741 CURVE SMOOTH"
);
},
{
closed = 1;
nodes = (
"515 920 OFFCURVE",
"544 929 OFFCURVE",
"564 952 CURVE",
"564 1060 LINE",
"540 1032 OFFCURVE",
"511 1020 OFFCURVE",
"479 1020 CURVE SMOOTH",
"427 1020 OFFCURVE",
"370 1061 OFFCURVE",
"316 1061 CURVE SMOOTH",
"280 1061 OFFCURVE",
"251 1051 OFFCURVE",
"231 1028 CURVE",
"231 921 LINE",
"255 949 OFFCURVE",
"284 961 OFFCURVE",
"316 961 CURVE SMOOTH",
"367 961 OFFCURVE",
"421 920 OFFCURVE",
"479 920 CURVE SMOOTH"
);
}
);
width = 794;
}
);
leftKerningGroup = O;
note = Ocircumflextilde;
rightKerningGroup = O;
unicode = 1ED6;
},
{
glyphname = Odieresis;
lastChange = "2015-11-30 02:19:02 +0000";
layers = (
{
layerId = "13D241F5-3870-466E-AD79-DAA9175309D3";
name = Bold;
paths = (
{
closed = 1;
nodes = (
"610 -15 OFFCURVE",
"774 131 OFFCURVE",
"774 349 CURVE SMOOTH",
"774 568 OFFCURVE",
"610 714 OFFCURVE",
"398 714 CURVE SMOOTH",
"185 714 OFFCURVE",
"20 568 OFFCURVE",
"20 349 CURVE SMOOTH",
"20 131 OFFCURVE",
"185 -15 OFFCURVE",
"398 -15 CURVE SMOOTH"
);
},
{
closed = 1;
nodes = (
"305 179 OFFCURVE",
"231 242 OFFCURVE",
"231 349 CURVE SMOOTH",
"231 454 OFFCURVE",
"304 518 OFFCURVE",
"398 518 CURVE SMOOTH",
"491 518 OFFCURVE",
"563 454 OFFCURVE",
"563 349 CURVE SMOOTH",
"563 242 OFFCURVE",
"489 179 OFFCURVE",
"398 179 CURVE SMOOTH"
);
},
{
closed = 1;
nodes = (
"325 749 OFFCURVE",
"362 784 OFFCURVE",
"362 830 CURVE SMOOTH",
"362 876 OFFCURVE",
"325 913 OFFCURVE",
"280 913 CURVE SMOOTH",
"236 913 OFFCURVE",
"197 876 OFFCURVE",
"197 830 CURVE SMOOTH",
"197 784 OFFCURVE",
"236 749 OFFCURVE",
"280 749 CURVE SMOOTH"
);
},
{
closed = 1;
nodes = (
"560 749 OFFCURVE",
"597 784 OFFCURVE",
"597 830 CURVE SMOOTH",
"597 876 OFFCURVE",
"560 913 OFFCURVE",
"516 913 CURVE SMOOTH",
"471 913 OFFCURVE",
"433 876 OFFCURVE",
"433 830 CURVE SMOOTH",
"433 784 OFFCURVE",
"471 749 OFFCURVE",
"516 749 CURVE SMOOTH"
);
}
);
width = 794;
}
);
leftKerningGroup = O;
note = Odieresis;
rightKerningGroup = O;
unicode = 00D6;
},
{
glyphname = Odotbelow;
lastChange = "2015-11-30 02:19:03 +0000";
layers = (
{
layerId = "13D241F5-3870-466E-AD79-DAA9175309D3";
name = Bold;
paths = (
{
closed = 1;
nodes = (
"610 -15 OFFCURVE",
"774 131 OFFCURVE",
"774 349 CURVE SMOOTH",
"774 568 OFFCURVE",
"610 714 OFFCURVE",
"398 714 CURVE SMOOTH",
"185 714 OFFCURVE",
"20 568 OFFCURVE",
"20 349 CURVE SMOOTH",
"20 131 OFFCURVE",
"185 -15 OFFCURVE",
"398 -15 CURVE SMOOTH"
);
},
{
closed = 1;
nodes = (
"443 -210 OFFCURVE",
"479 -174 OFFCURVE",
"479 -128 CURVE SMOOTH",
"479 -82 OFFCURVE",
"443 -46 OFFCURVE",
"398 -46 CURVE SMOOTH",
"353 -46 OFFCURVE",
"315 -82 OFFCURVE",
"315 -128 CURVE SMOOTH",
"315 -174 OFFCURVE",
"353 -210 OFFCURVE",
"398 -210 CURVE SMOOTH"
);
},
{
closed = 1;
nodes = (
"305 179 OFFCURVE",
"231 242 OFFCURVE",
"231 349 CURVE SMOOTH",
"231 454 OFFCURVE",
"304 518 OFFCURVE",
"398 518 CURVE SMOOTH",
"491 518 OFFCURVE",
"563 454 OFFCURVE",
"563 349 CURVE SMOOTH",
"563 242 OFFCURVE",
"489 179 OFFCURVE",
"398 179 CURVE SMOOTH"
);
}
);
width = 794;
}
);
leftKerningGroup = O;
note = Odotbelow;
rightKerningGroup = O;
unicode = 1ECC;
},
{
glyphname = Ograve;
lastChange = "2015-11-30 02:19:02 +0000";
layers = (
{
layerId = "13D241F5-3870-466E-AD79-DAA9175309D3";
name = Bold;
paths = (
{
closed = 1;
nodes = (
"610 -15 OFFCURVE",
"774 131 OFFCURVE",
"774 349 CURVE SMOOTH",
"774 568 OFFCURVE",
"610 714 OFFCURVE",
"398 714 CURVE SMOOTH",
"185 714 OFFCURVE",
"20 568 OFFCURVE",
"20 349 CURVE SMOOTH",
"20 131 OFFCURVE",
"185 -15 OFFCURVE",
"398 -15 CURVE SMOOTH"
);
},
{
closed = 1;
nodes = (
"305 179 OFFCURVE",
"231 242 OFFCURVE",
"231 349 CURVE SMOOTH",
"231 454 OFFCURVE",
"304 518 OFFCURVE",
"398 518 CURVE SMOOTH",
"491 518 OFFCURVE",
"563 454 OFFCURVE",
"563 349 CURVE SMOOTH",
"563 242 OFFCURVE",
"489 179 OFFCURVE",
"398 179 CURVE SMOOTH"
);
},
{
closed = 1;
nodes = (
"498 737 LINE",
"429 917 LINE",
"228 917 LINE",
"321 737 LINE"
);
}
);
width = 794;
}
);
leftKerningGroup = O;
note = Ograve;
rightKerningGroup = O;
unicode = 00D2;
},
{
glyphname = Ohookabove;
lastChange = "2015-11-30 02:19:03 +0000";
layers = (
{
layerId = "13D241F5-3870-466E-AD79-DAA9175309D3";
name = Bold;
paths = (
{
closed = 1;
nodes = (
"610 -15 OFFCURVE",
"774 131 OFFCURVE",
"774 349 CURVE SMOOTH",
"774 568 OFFCURVE",
"610 714 OFFCURVE",
"398 714 CURVE SMOOTH",
"185 714 OFFCURVE",
"20 568 OFFCURVE",
"20 349 CURVE SMOOTH",
"20 131 OFFCURVE",
"185 -15 OFFCURVE",
"398 -15 CURVE SMOOTH"
);
},
{
closed = 1;
nodes = (
"305 179 OFFCURVE",
"231 242 OFFCURVE",
"231 349 CURVE SMOOTH",
"231 454 OFFCURVE",
"304 518 OFFCURVE",
"398 518 CURVE SMOOTH",
"491 518 OFFCURVE",
"563 454 OFFCURVE",
"563 349 CURVE SMOOTH",
"563 242 OFFCURVE",
"489 179 OFFCURVE",
"398 179 CURVE SMOOTH"
);
},
{
closed = 1;
nodes = (
"463 742 LINE",
"463 772 LINE",
"529 783 OFFCURVE",
"560 820 OFFCURVE",
"560 868 CURVE SMOOTH",
"560 933 OFFCURVE",
"505 978 OFFCURVE",
"392 978 CURVE SMOOTH",
"340 978 OFFCURVE",
"293 970 OFFCURVE",
"262 960 CURVE",
"262 876 LINE",
"274 881 OFFCURVE",
"301 886 OFFCURVE",
"324 886 CURVE SMOOTH",
"371 886 OFFCURVE",
"386 871 OFFCURVE",
"386 853 CURVE SMOOTH",
"386 825 OFFCURVE",
"352 814 OFFCURVE",
"297 814 CURVE",
"297 742 LINE"
);
}
);
width = 794;
}
);
leftKerningGroup = O;
note = Ohookabove;
rightKerningGroup = O;
unicode = 1ECE;
},
{
glyphname = Ohorn;
lastChange = "2015-11-30 02:19:03 +0000";
layers = (
{
layerId = "13D241F5-3870-466E-AD79-DAA9175309D3";
name = Bold;
paths = (
{
closed = 1;
nodes = (
"610 -15 OFFCURVE",
"774 131 OFFCURVE",
"774 349 CURVE SMOOTH",
"774 404 OFFCURVE",
"763 455 OFFCURVE",
"744 500 CURVE",
"851 519 OFFCURVE",
"907 599 OFFCURVE",
"907 701 CURVE SMOOTH",
"907 747 LINE",
"744 747 LINE",
"744 714 LINE SMOOTH",
"744 661 OFFCURVE",
"721 631 OFFCURVE",
"645 631 CURVE",
"580 684 OFFCURVE",
"494 714 OFFCURVE",
"398 714 CURVE SMOOTH",
"185 714 OFFCURVE",
"20 568 OFFCURVE",
"20 349 CURVE SMOOTH",
"20 131 OFFCURVE",
"185 -15 OFFCURVE",
"398 -15 CURVE SMOOTH"
);
},
{
closed = 1;
nodes = (
"306 182 OFFCURVE",
"234 244 OFFCURVE",
"234 349 CURVE SMOOTH",
"234 452 OFFCURVE",
"305 515 OFFCURVE",
"398 515 CURVE SMOOTH",
"489 515 OFFCURVE",
"560 452 OFFCURVE",
"560 349 CURVE SMOOTH",
"560 244 OFFCURVE",
"488 182 OFFCURVE",
"398 182 CURVE SMOOTH"
);
}
);
width = 907;
}
);
leftKerningGroup = O;
note = Ohorn;
rightKerningGroup = O;
unicode = 01A0;
},
{
glyphname = Ohornacute;
lastChange = "2015-11-30 02:19:03 +0000";
layers = (
{
layerId = "13D241F5-3870-466E-AD79-DAA9175309D3";
name = Bold;
paths = (
{
closed = 1;
nodes = (
"610 -15 OFFCURVE",
"774 131 OFFCURVE",
"774 349 CURVE SMOOTH",
"774 404 OFFCURVE",
"763 455 OFFCURVE",
"744 500 CURVE",
"851 519 OFFCURVE",
"907 599 OFFCURVE",
"907 701 CURVE SMOOTH",
"907 747 LINE",
"744 747 LINE",
"744 714 LINE SMOOTH",
"744 661 OFFCURVE",
"721 631 OFFCURVE",
"645 631 CURVE",
"580 684 OFFCURVE",
"494 714 OFFCURVE",
"398 714 CURVE SMOOTH",
"185 714 OFFCURVE",
"20 568 OFFCURVE",
"20 349 CURVE SMOOTH",
"20 131 OFFCURVE",
"185 -15 OFFCURVE",
"398 -15 CURVE SMOOTH"
);
},
{
closed = 1;
nodes = (
"306 182 OFFCURVE",
"234 244 OFFCURVE",
"234 349 CURVE SMOOTH",
"234 452 OFFCURVE",
"305 515 OFFCURVE",
"398 515 CURVE SMOOTH",
"489 515 OFFCURVE",
"560 452 OFFCURVE",
"560 349 CURVE SMOOTH",
"560 244 OFFCURVE",
"488 182 OFFCURVE",
"398 182 CURVE SMOOTH"
);
},
{
closed = 1;
nodes = (
"494 737 LINE",
"587 917 LINE",
"386 917 LINE",
"317 737 LINE"
);
}
);
width = 907;
}
);
leftKerningGroup = O;
note = Ohornacute;
rightKerningGroup = O;
unicode = 1EDA;
},
{
glyphname = Ohorndotbelow;
lastChange = "2015-11-30 02:19:03 +0000";
layers = (
{
layerId = "13D241F5-3870-466E-AD79-DAA9175309D3";
name = Bold;
paths = (
{
closed = 1;
nodes = (
"610 -15 OFFCURVE",
"774 131 OFFCURVE",
"774 349 CURVE SMOOTH",
"774 404 OFFCURVE",
"763 455 OFFCURVE",
"744 500 CURVE",
"851 519 OFFCURVE",
"907 599 OFFCURVE",
"907 701 CURVE SMOOTH",
"907 747 LINE",
"744 747 LINE",
"744 714 LINE SMOOTH",
"744 661 OFFCURVE",
"721 631 OFFCURVE",
"645 631 CURVE",
"580 684 OFFCURVE",
"494 714 OFFCURVE",
"398 714 CURVE SMOOTH",
"185 714 OFFCURVE",
"20 568 OFFCURVE",
"20 349 CURVE SMOOTH",
"20 131 OFFCURVE",
"185 -15 OFFCURVE",
"398 -15 CURVE SMOOTH"
);
},
{
closed = 1;
nodes = (
"447 -210 OFFCURVE",
"483 -174 OFFCURVE",
"483 -128 CURVE SMOOTH",
"483 -82 OFFCURVE",
"447 -46 OFFCURVE",
"402 -46 CURVE SMOOTH",
"357 -46 OFFCURVE",
"319 -82 OFFCURVE",
"319 -128 CURVE SMOOTH",
"319 -174 OFFCURVE",
"357 -210 OFFCURVE",
"402 -210 CURVE SMOOTH"
);
},
{
closed = 1;
nodes = (
"306 182 OFFCURVE",
"234 244 OFFCURVE",
"234 349 CURVE SMOOTH",
"234 452 OFFCURVE",
"305 515 OFFCURVE",
"398 515 CURVE SMOOTH",
"489 515 OFFCURVE",
"560 452 OFFCURVE",
"560 349 CURVE SMOOTH",
"560 244 OFFCURVE",
"488 182 OFFCURVE",
"398 182 CURVE SMOOTH"
);
}
);
width = 907;
}
);
leftKerningGroup = O;
note = Ohorndotbelow;
rightKerningGroup = O;
unicode = 1EE2;
},
{
glyphname = Ohorngrave;
lastChange = "2015-11-30 02:19:03 +0000";
layers = (
{
layerId = "13D241F5-3870-466E-AD79-DAA9175309D3";
name = Bold;
paths = (
{
closed = 1;
nodes = (
"610 -15 OFFCURVE",
"774 131 OFFCURVE",
"774 349 CURVE SMOOTH",
"774 404 OFFCURVE",
"763 455 OFFCURVE",
"744 500 CURVE",
"851 519 OFFCURVE",
"907 599 OFFCURVE",
"907 701 CURVE SMOOTH",
"907 747 LINE",
"744 747 LINE",
"744 714 LINE SMOOTH",
"744 661 OFFCURVE",
"721 631 OFFCURVE",
"645 631 CURVE",
"580 684 OFFCURVE",
"494 714 OFFCURVE",
"398 714 CURVE SMOOTH",
"185 714 OFFCURVE",
"20 568 OFFCURVE",
"20 349 CURVE SMOOTH",
"20 131 OFFCURVE",
"185 -15 OFFCURVE",
"398 -15 CURVE SMOOTH"
);
},
{
closed = 1;
nodes = (
"306 182 OFFCURVE",
"234 244 OFFCURVE",
"234 349 CURVE SMOOTH",
"234 452 OFFCURVE",
"305 515 OFFCURVE",
"398 515 CURVE SMOOTH",
"489 515 OFFCURVE",
"560 452 OFFCURVE",
"560 349 CURVE SMOOTH",
"560 244 OFFCURVE",
"488 182 OFFCURVE",
"398 182 CURVE SMOOTH"
);
},
{
closed = 1;
nodes = (
"484 737 LINE",
"415 917 LINE",
"214 917 LINE",
"307 737 LINE"
);
}
);
width = 907;
}
);
leftKerningGroup = O;
note = Ohorngrave;
rightKerningGroup = O;
unicode = 1EDC;
},
{
glyphname = Ohornhookabove;
lastChange = "2015-11-30 02:19:02 +0000";
layers = (
{
layerId = "13D241F5-3870-466E-AD79-DAA9175309D3";
name = Bold;
paths = (
{
closed = 1;
nodes = (
"610 -15 OFFCURVE",
"774 131 OFFCURVE",
"774 349 CURVE SMOOTH",
"774 404 OFFCURVE",
"763 455 OFFCURVE",
"744 500 CURVE",
"851 519 OFFCURVE",
"907 599 OFFCURVE",
"907 701 CURVE SMOOTH",
"907 747 LINE",
"744 747 LINE",
"744 714 LINE SMOOTH",
"744 661 OFFCURVE",
"721 631 OFFCURVE",
"645 631 CURVE",
"580 684 OFFCURVE",
"494 714 OFFCURVE",
"398 714 CURVE SMOOTH",
"185 714 OFFCURVE",
"20 568 OFFCURVE",
"20 349 CURVE SMOOTH",
"20 131 OFFCURVE",
"185 -15 OFFCURVE",
"398 -15 CURVE SMOOTH"
);
},
{
closed = 1;
nodes = (
"306 182 OFFCURVE",
"234 244 OFFCURVE",
"234 349 CURVE SMOOTH",
"234 452 OFFCURVE",
"305 515 OFFCURVE",
"398 515 CURVE SMOOTH",
"489 515 OFFCURVE",
"560 452 OFFCURVE",
"560 349 CURVE SMOOTH",
"560 244 OFFCURVE",
"488 182 OFFCURVE",
"398 182 CURVE SMOOTH"
);
},
{
closed = 1;
nodes = (
"477 742 LINE",
"477 772 LINE",
"543 783 OFFCURVE",
"574 820 OFFCURVE",
"574 868 CURVE SMOOTH",
"574 933 OFFCURVE",
"519 978 OFFCURVE",
"406 978 CURVE SMOOTH",
"354 978 OFFCURVE",
"307 970 OFFCURVE",
"276 960 CURVE",
"276 876 LINE",
"288 881 OFFCURVE",
"315 886 OFFCURVE",
"338 886 CURVE SMOOTH",
"385 886 OFFCURVE",
"400 871 OFFCURVE",
"400 853 CURVE SMOOTH",
"400 825 OFFCURVE",
"366 814 OFFCURVE",
"311 814 CURVE",
"311 742 LINE"
);
}
);
width = 907;
}
);
leftKerningGroup = O;
note = Ohornhookabove;
rightKerningGroup = O;
unicode = 1EDE;
},
{
glyphname = Ohorntilde;
lastChange = "2015-11-30 02:19:03 +0000";
layers = (
{
layerId = "13D241F5-3870-466E-AD79-DAA9175309D3";
name = Bold;
paths = (
{
closed = 1;
nodes = (
"610 -15 OFFCURVE",
"774 131 OFFCURVE",
"774 349 CURVE SMOOTH",
"774 404 OFFCURVE",
"763 455 OFFCURVE",
"744 500 CURVE",
"851 519 OFFCURVE",
"907 599 OFFCURVE",
"907 701 CURVE SMOOTH",
"907 747 LINE",
"744 747 LINE",
"744 714 LINE SMOOTH",
"744 661 OFFCURVE",
"721 631 OFFCURVE",
"645 631 CURVE",
"580 684 OFFCURVE",
"494 714 OFFCURVE",
"398 714 CURVE SMOOTH",
"185 714 OFFCURVE",
"20 568 OFFCURVE",
"20 349 CURVE SMOOTH",
"20 131 OFFCURVE",
"185 -15 OFFCURVE",
"398 -15 CURVE SMOOTH"
);
},
{
closed = 1;
nodes = (
"306 182 OFFCURVE",
"234 244 OFFCURVE",
"234 349 CURVE SMOOTH",
"234 452 OFFCURVE",
"305 515 OFFCURVE",
"398 515 CURVE SMOOTH",
"489 515 OFFCURVE",
"560 452 OFFCURVE",
"560 349 CURVE SMOOTH",
"560 244 OFFCURVE",
"488 182 OFFCURVE",
"398 182 CURVE SMOOTH"
);
},
{
closed = 1;
nodes = (
"238 778 OFFCURVE",
"274 792 OFFCURVE",
"314 792 CURVE SMOOTH",
"378 792 OFFCURVE",
"442 742 OFFCURVE",
"515 742 CURVE SMOOTH",
"560 742 OFFCURVE",
"597 753 OFFCURVE",
"622 783 CURVE",
"622 923 LINE",
"592 888 OFFCURVE",
"556 874 OFFCURVE",
"515 874 CURVE SMOOTH",
"450 874 OFFCURVE",
"382 924 OFFCURVE",
"314 924 CURVE SMOOTH",
"270 924 OFFCURVE",
"232 912 OFFCURVE",
"207 883 CURVE",
"207 742 LINE"
);
}
);
width = 907;
}
);
leftKerningGroup = O;
note = Ohorntilde;
rightKerningGroup = O;
unicode = 1EE0;
},
{
glyphname = Ohungarumlaut;
lastChange = "2015-11-30 02:19:03 +0000";
layers = (
{
layerId = "13D241F5-3870-466E-AD79-DAA9175309D3";
name = Bold;
paths = (
{
closed = 1;
nodes = (
"610 -15 OFFCURVE",
"774 131 OFFCURVE",
"774 349 CURVE SMOOTH",
"774 568 OFFCURVE",
"610 714 OFFCURVE",
"398 714 CURVE SMOOTH",
"185 714 OFFCURVE",
"20 568 OFFCURVE",
"20 349 CURVE SMOOTH",
"20 131 OFFCURVE",
"185 -15 OFFCURVE",
"398 -15 CURVE SMOOTH"
);
},
{
closed = 1;
nodes = (
"305 179 OFFCURVE",
"231 242 OFFCURVE",
"231 349 CURVE SMOOTH",
"231 454 OFFCURVE",
"304 518 OFFCURVE",
"398 518 CURVE SMOOTH",
"491 518 OFFCURVE",
"563 454 OFFCURVE",
"563 349 CURVE SMOOTH",
"563 242 OFFCURVE",
"489 179 OFFCURVE",
"398 179 CURVE SMOOTH"
);
},
{
closed = 1;
nodes = (
"342 741 LINE",
"435 920 LINE",
"241 920 LINE",
"173 741 LINE"
);
},
{
closed = 1;
nodes = (
"608 741 LINE",
"700 920 LINE",
"507 920 LINE",
"439 741 LINE"
);
}
);
width = 794;
}
);
leftKerningGroup = O;
note = Ohungarumlaut;
rightKerningGroup = O;
unicode = 0150;
},
{
glyphname = Omacron;
lastChange = "2015-11-30 02:19:03 +0000";
layers = (
{
layerId = "13D241F5-3870-466E-AD79-DAA9175309D3";
name = Bold;
paths = (
{
closed = 1;
nodes = (
"610 -15 OFFCURVE",
"774 131 OFFCURVE",
"774 349 CURVE SMOOTH",
"774 568 OFFCURVE",
"610 714 OFFCURVE",
"398 714 CURVE SMOOTH",
"185 714 OFFCURVE",
"20 568 OFFCURVE",
"20 349 CURVE SMOOTH",
"20 131 OFFCURVE",
"185 -15 OFFCURVE",
"398 -15 CURVE SMOOTH"
);
},
{
closed = 1;
nodes = (
"305 179 OFFCURVE",
"231 242 OFFCURVE",
"231 349 CURVE SMOOTH",
"231 454 OFFCURVE",
"304 518 OFFCURVE",
"398 518 CURVE SMOOTH",
"491 518 OFFCURVE",
"563 454 OFFCURVE",
"563 349 CURVE SMOOTH",
"563 242 OFFCURVE",
"489 179 OFFCURVE",
"398 179 CURVE SMOOTH"
);
},
{
closed = 1;
nodes = (
"576 757 LINE",
"576 875 LINE",
"220 875 LINE",
"220 757 LINE"
);
}
);
width = 794;
}
);
leftKerningGroup = O;
note = Omacron;
rightKerningGroup = O;
unicode = 014C;
},
{
glyphname = Oslash;
lastChange = "2015-11-30 02:19:03 +0000";
layers = (
{
layerId = "13D241F5-3870-466E-AD79-DAA9175309D3";
name = Bold;
paths = (
{
closed = 1;
nodes = (
"280 -86 LINE",
"312 -6 LINE",
"339 -12 OFFCURVE",
"368 -15 OFFCURVE",
"398 -15 CURVE SMOOTH",
"610 -15 OFFCURVE",
"774 131 OFFCURVE",
"774 349 CURVE SMOOTH",
"774 497 OFFCURVE",
"699 612 OFFCURVE",
"584 670 CURVE",
"630 784 LINE",
"509 784 LINE",
"478 707 LINE",
"452 712 OFFCURVE",
"425 714 OFFCURVE",
"398 714 CURVE SMOOTH",
"185 714 OFFCURVE",
"20 568 OFFCURVE",
"20 349 CURVE SMOOTH",
"20 203 OFFCURVE",
"93 90 OFFCURVE",
"206 30 CURVE",
"159 -86 LINE"
);
},
{
closed = 1;
nodes = (
"250 250 OFFCURVE",
"231 293 OFFCURVE",
"231 349 CURVE SMOOTH",
"231 454 OFFCURVE",
"304 518 OFFCURVE",
"398 518 CURVE SMOOTH",
"402 518 LINE",
"282 221 LINE"
);
},
{
closed = 1;
nodes = (
"507 480 LINE",
"542 451 OFFCURVE",
"563 406 OFFCURVE",
"563 349 CURVE SMOOTH",
"563 242 OFFCURVE",
"489 179 OFFCURVE",
"398 179 CURVE SMOOTH",
"386 179 LINE"
);
}
);
width = 794;
}
);
leftKerningGroup = O;
note = Oslash;
rightKerningGroup = O;
unicode = 00D8;
},
{
glyphname = Oslashacute;
lastChange = "2015-11-30 02:19:02 +0000";
layers = (
{
layerId = "13D241F5-3870-466E-AD79-DAA9175309D3";
name = Bold;
paths = (
{
closed = 1;
nodes = (
"288 -86 LINE",
"319 -8 LINE",
"344 -12 OFFCURVE",
"371 -15 OFFCURVE",
"398 -15 CURVE SMOOTH",
"610 -15 OFFCURVE",
"774 131 OFFCURVE",
"774 349 CURVE SMOOTH",
"774 494 OFFCURVE",
"701 607 OFFCURVE",
"591 667 CURVE",
"638 784 LINE",
"501 784 LINE",
"470 708 LINE",
"447 712 OFFCURVE",
"423 714 OFFCURVE",
"398 714 CURVE SMOOTH",
"185 714 OFFCURVE",
"20 568 OFFCURVE",
"20 349 CURVE SMOOTH",
"20 206 OFFCURVE",
"91 94 OFFCURVE",
"200 34 CURVE",
"152 -86 LINE"
);
},
{
closed = 1;
nodes = (
"250 257 OFFCURVE",
"234 298 OFFCURVE",
"234 349 CURVE SMOOTH",
"234 450 OFFCURVE",
"302 513 OFFCURVE",
"393 515 CURVE",
"278 229 LINE"
);
},
{
closed = 1;
nodes = (
"512 471 LINE",
"542 442 OFFCURVE",
"560 401 OFFCURVE",
"560 349 CURVE SMOOTH",
"560 244 OFFCURVE",
"488 182 OFFCURVE",
"398 182 CURVE SMOOTH",
"396 182 LINE"
);
},
{
closed = 1;
nodes = (
"451 742 LINE",
"543 921 LINE",
"332 921 LINE",
"264 742 LINE"
);
}
);
width = 794;
}
);
leftKerningGroup = O;
note = Oslashacute;
rightKerningGroup = O;
unicode = 01FE;
},
{
glyphname = Otilde;
lastChange = "2015-11-30 02:19:03 +0000";
layers = (
{
layerId = "13D241F5-3870-466E-AD79-DAA9175309D3";
name = Bold;
paths = (
{
closed = 1;
nodes = (
"610 -15 OFFCURVE",
"774 131 OFFCURVE",
"774 349 CURVE SMOOTH",
"774 568 OFFCURVE",
"610 714 OFFCURVE",
"398 714 CURVE SMOOTH",
"185 714 OFFCURVE",
"20 568 OFFCURVE",
"20 349 CURVE SMOOTH",
"20 131 OFFCURVE",
"185 -15 OFFCURVE",
"398 -15 CURVE SMOOTH"
);
},
{
closed = 1;
nodes = (
"305 179 OFFCURVE",
"231 242 OFFCURVE",
"231 349 CURVE SMOOTH",
"231 454 OFFCURVE",
"304 518 OFFCURVE",
"398 518 CURVE SMOOTH",
"491 518 OFFCURVE",
"563 454 OFFCURVE",
"563 349 CURVE SMOOTH",
"563 242 OFFCURVE",
"489 179 OFFCURVE",
"398 179 CURVE SMOOTH"
);
},
{
closed = 1;
nodes = (
"222 787 OFFCURVE",
"258 801 OFFCURVE",
"298 801 CURVE SMOOTH",
"362 801 OFFCURVE",
"426 751 OFFCURVE",
"499 751 CURVE SMOOTH",
"544 751 OFFCURVE",
"581 762 OFFCURVE",
"606 792 CURVE",
"606 932 LINE",
"576 897 OFFCURVE",
"540 883 OFFCURVE",
"499 883 CURVE SMOOTH",
"434 883 OFFCURVE",
"366 933 OFFCURVE",
"298 933 CURVE SMOOTH",
"254 933 OFFCURVE",
"216 921 OFFCURVE",
"191 892 CURVE",
"191 751 LINE"
);
}
);
width = 794;
}
);
leftKerningGroup = O;
note = Otilde;
rightKerningGroup = O;
unicode = 00D5;
},
{
glyphname = OE;
lastChange = "2015-11-30 02:19:03 +0000";
layers = (
{
layerId = "13D241F5-3870-466E-AD79-DAA9175309D3";
name = Bold;
paths = (
{
closed = 1;
nodes = (
"871 0 LINE",
"871 174 LINE",
"605 174 LINE",
"605 270 LINE",
"787 270 LINE",
"787 429 LINE",
"605 429 LINE",
"605 525 LINE",
"871 525 LINE",
"871 699 LINE",
"427 699 LINE SMOOTH",
"189 699 OFFCURVE",
"20 568 OFFCURVE",
"20 349 CURVE SMOOTH",
"20 131 OFFCURVE",
"189 0 OFFCURVE",
"427 0 CURVE SMOOTH"
);
},
{
closed = 1;
nodes = (
"292 186 OFFCURVE",
"231 242 OFFCURVE",
"231 349 CURVE SMOOTH",
"231 455 OFFCURVE",
"291 512 OFFCURVE",
"398 512 CURVE",
"398 186 LINE"
);
}
);
width = 891;
}
);
leftKerningGroup = O;
note = OE;
rightKerningGroup = E;
unicode = 0152;
},
{
glyphname = P;
lastChange = "2015-11-30 02:19:03 +0000";
layers = (
{
layerId = "13D241F5-3870-466E-AD79-DAA9175309D3";
name = Bold;
paths = (
{
closed = 1;
nodes = (
"247 0 LINE",
"247 200 LINE",
"362 200 LINE SMOOTH",
"526 200 OFFCURVE",
"637 286 OFFCURVE",
"637 450 CURVE SMOOTH",
"637 613 OFFCURVE",
"526 699 OFFCURVE",
"362 699 CURVE SMOOTH",
"40 699 LINE",
"40 0 LINE"
);
},
{
closed = 1;
nodes = (
"247 535 LINE",
"323 535 LINE SMOOTH",
"380 535 OFFCURVE",
"425 518 OFFCURVE",
"425 450 CURVE SMOOTH",
"425 382 OFFCURVE",
"380 364 OFFCURVE",
"323 364 CURVE SMOOTH",
"247 364 LINE"
);
}
);
width = 647;
}
);
note = P;
unicode = 0050;
},
{
glyphname = Thorn;
lastChange = "2015-11-30 02:19:03 +0000";
layers = (
{
layerId = "13D241F5-3870-466E-AD79-DAA9175309D3";
name = Bold;
paths = (
{
closed = 1;
nodes = (
"247 0 LINE",
"247 107 LINE",
"364 107 LINE SMOOTH",
"528 107 OFFCURVE",
"637 188 OFFCURVE",
"637 352 CURVE SMOOTH",
"637 516 OFFCURVE",
"528 597 OFFCURVE",
"364 597 CURVE SMOOTH",
"247 597 LINE",
"247 699 LINE",
"40 699 LINE",
"40 0 LINE"
);
},
{
closed = 1;
nodes = (
"247 433 LINE",
"323 433 LINE SMOOTH",
"380 433 OFFCURVE",
"425 418 OFFCURVE",
"425 352 CURVE SMOOTH",
"425 286 OFFCURVE",
"380 271 OFFCURVE",
"323 271 CURVE SMOOTH",
"247 271 LINE"
);
}
);
width = 647;
}
);
note = Thorn;
unicode = 00DE;
},
{
glyphname = Q;
lastChange = "2015-11-30 02:19:03 +0000";
layers = (
{
layerId = "13D241F5-3870-466E-AD79-DAA9175309D3";
name = Bold;
paths = (
{
closed = 1;
nodes = (
"794 0 LINE",
"794 155 LINE",
"687 155 LINE",
"735 198 OFFCURVE",
"774 275 OFFCURVE",
"774 349 CURVE SMOOTH",
"774 568 OFFCURVE",
"610 714 OFFCURVE",
"398 714 CURVE SMOOTH",
"185 714 OFFCURVE",
"20 568 OFFCURVE",
"20 349 CURVE SMOOTH",
"20 132 OFFCURVE",
"181 0 OFFCURVE",
"423 0 CURVE SMOOTH"
);
},
{
closed = 1;
nodes = (
"305 179 OFFCURVE",
"231 242 OFFCURVE",
"231 349 CURVE SMOOTH",
"231 454 OFFCURVE",
"304 518 OFFCURVE",
"398 518 CURVE SMOOTH",
"491 518 OFFCURVE",
"563 454 OFFCURVE",
"563 349 CURVE SMOOTH",
"563 242 OFFCURVE",
"489 179 OFFCURVE",
"398 179 CURVE SMOOTH"
);
}
);
width = 799;
}
);
leftKerningGroup = O;
note = Q;
rightKerningGroup = O;
unicode = 0051;
},
{
glyphname = R;
lastChange = "2015-11-30 02:19:03 +0000";
layers = (
{
layerId = "13D241F5-3870-466E-AD79-DAA9175309D3";
name = Bold;
paths = (
{
closed = 1;
nodes = (
"247 0 LINE",
"247 205 LINE",
"315 205 LINE",
"417 0 LINE",
"629 0 LINE",
"512 235 LINE",
"590 273 OFFCURVE",
"637 346 OFFCURVE",
"637 452 CURVE SMOOTH",
"637 615 OFFCURVE",
"529 699 OFFCURVE",
"365 699 CURVE SMOOTH",
"40 699 LINE",
"40 0 LINE"
);
},
{
closed = 1;
nodes = (
"247 535 LINE",
"324 535 LINE SMOOTH",
"382 535 OFFCURVE",
"425 518 OFFCURVE",
"425 452 CURVE SMOOTH",
"425 387 OFFCURVE",
"382 369 OFFCURVE",
"324 369 CURVE SMOOTH",
"247 369 LINE"
);
}
);
width = 657;
}
);
note = R;
rightKerningGroup = R;
unicode = 0052;
},
{
glyphname = Racute;
lastChange = "2015-11-30 02:19:03 +0000";
layers = (
{
layerId = "13D241F5-3870-466E-AD79-DAA9175309D3";
name = Bold;
paths = (
{
closed = 1;
nodes = (
"247 0 LINE",
"247 205 LINE",
"315 205 LINE",
"417 0 LINE",
"629 0 LINE",
"512 235 LINE",
"590 273 OFFCURVE",
"637 346 OFFCURVE",
"637 452 CURVE SMOOTH",
"637 615 OFFCURVE",
"529 699 OFFCURVE",
"365 699 CURVE SMOOTH",
"40 699 LINE",
"40 0 LINE"
);
},
{
closed = 1;
nodes = (
"247 535 LINE",
"324 535 LINE SMOOTH",
"382 535 OFFCURVE",
"425 518 OFFCURVE",
"425 452 CURVE SMOOTH",
"425 387 OFFCURVE",
"382 369 OFFCURVE",
"324 369 CURVE SMOOTH",
"247 369 LINE"
);
},
{
closed = 1;
nodes = (
"364 737 LINE",
"457 917 LINE",
"256 917 LINE",
"187 737 LINE"
);
}
);
width = 657;
}
);
note = Racute;
rightKerningGroup = R;
unicode = 0154;
},
{
glyphname = Rcaron;
lastChange = "2015-11-30 02:19:03 +0000";
layers = (
{
layerId = "13D241F5-3870-466E-AD79-DAA9175309D3";
name = Bold;
paths = (
{
closed = 1;
nodes = (
"247 0 LINE",
"247 205 LINE",
"315 205 LINE",
"417 0 LINE",
"629 0 LINE",
"512 235 LINE",
"590 273 OFFCURVE",
"637 346 OFFCURVE",
"637 452 CURVE SMOOTH",
"637 615 OFFCURVE",
"529 699 OFFCURVE",
"365 699 CURVE SMOOTH",
"40 699 LINE",
"40 0 LINE"
);
},
{
closed = 1;
nodes = (
"247 535 LINE",
"324 535 LINE SMOOTH",
"382 535 OFFCURVE",
"425 518 OFFCURVE",
"425 452 CURVE SMOOTH",
"425 387 OFFCURVE",
"382 369 OFFCURVE",
"324 369 CURVE SMOOTH",
"247 369 LINE"
);
},
{
closed = 1;
nodes = (
"412 748 LINE",
"560 920 LINE",
"388 920 LINE",
"330 849 LINE",
"272 920 LINE",
"99 920 LINE",
"247 748 LINE"
);
}
);
width = 657;
}
);
note = Rcaron;
rightKerningGroup = R;
unicode = 0158;
},
{
glyphname = Rcommaaccent;
lastChange = "2015-11-30 02:19:03 +0000";
layers = (
{
layerId = "13D241F5-3870-466E-AD79-DAA9175309D3";
name = Bold;
paths = (
{
closed = 1;
nodes = (
"247 0 LINE",
"247 205 LINE",
"315 205 LINE",
"417 0 LINE",
"629 0 LINE",
"512 235 LINE",
"590 273 OFFCURVE",
"637 346 OFFCURVE",
"637 452 CURVE SMOOTH",
"637 615 OFFCURVE",
"529 699 OFFCURVE",
"365 699 CURVE SMOOTH",
"40 699 LINE",
"40 0 LINE"
);
},
{
closed = 1;
nodes = (
"320 -260 LINE",
"428 -45 LINE",
"231 -45 LINE",
"148 -260 LINE"
);
},
{
closed = 1;
nodes = (
"247 535 LINE",
"324 535 LINE SMOOTH",
"382 535 OFFCURVE",
"425 518 OFFCURVE",
"425 452 CURVE SMOOTH",
"425 387 OFFCURVE",
"382 369 OFFCURVE",
"324 369 CURVE SMOOTH",
"247 369 LINE"
);
}
);
width = 657;
}
);
note = Rcommaaccent;
rightKerningGroup = R;
unicode = 0156;
},
{
glyphname = Rdotbelow;
lastChange = "2015-11-30 02:19:03 +0000";
layers = (
{
layerId = "13D241F5-3870-466E-AD79-DAA9175309D3";
name = Bold;
paths = (
{
closed = 1;
nodes = (
"247 0 LINE",
"247 205 LINE",
"315 205 LINE",
"417 0 LINE",
"629 0 LINE",
"512 235 LINE",
"590 273 OFFCURVE",
"637 346 OFFCURVE",
"637 452 CURVE SMOOTH",
"637 615 OFFCURVE",
"529 699 OFFCURVE",
"365 699 CURVE SMOOTH",
"40 699 LINE",
"40 0 LINE"
);
},
{
closed = 1;
nodes = (
"368 -210 OFFCURVE",
"404 -174 OFFCURVE",
"404 -128 CURVE SMOOTH",
"404 -82 OFFCURVE",
"368 -46 OFFCURVE",
"323 -46 CURVE SMOOTH",
"278 -46 OFFCURVE",
"240 -82 OFFCURVE",
"240 -128 CURVE SMOOTH",
"240 -174 OFFCURVE",
"278 -210 OFFCURVE",
"323 -210 CURVE SMOOTH"
);
},
{
closed = 1;
nodes = (
"247 535 LINE",
"324 535 LINE SMOOTH",
"382 535 OFFCURVE",
"425 518 OFFCURVE",
"425 452 CURVE SMOOTH",
"425 387 OFFCURVE",
"382 369 OFFCURVE",
"324 369 CURVE SMOOTH",
"247 369 LINE"
);
}
);
width = 657;
}
);
note = Rdotbelow;
rightKerningGroup = R;
unicode = 1E5A;
},
{
glyphname = Rdotbelowmacron;
lastChange = "2015-11-30 02:19:03 +0000";
layers = (
{
layerId = "13D241F5-3870-466E-AD79-DAA9175309D3";
name = Bold;
paths = (
{
closed = 1;
nodes = (
"247 0 LINE",
"247 205 LINE",
"315 205 LINE",
"417 0 LINE",
"629 0 LINE",
"512 235 LINE",
"590 273 OFFCURVE",
"637 346 OFFCURVE",
"637 452 CURVE SMOOTH",
"637 615 OFFCURVE",
"529 699 OFFCURVE",
"365 699 CURVE SMOOTH",
"40 699 LINE",
"40 0 LINE"
);
},
{
closed = 1;
nodes = (
"353 -210 OFFCURVE",
"389 -174 OFFCURVE",
"389 -128 CURVE SMOOTH",
"389 -82 OFFCURVE",
"353 -46 OFFCURVE",
"308 -46 CURVE SMOOTH",
"263 -46 OFFCURVE",
"225 -82 OFFCURVE",
"225 -128 CURVE SMOOTH",
"225 -174 OFFCURVE",
"263 -210 OFFCURVE",
"308 -210 CURVE SMOOTH"
);
},
{
closed = 1;
nodes = (
"247 535 LINE",
"324 535 LINE SMOOTH",
"382 535 OFFCURVE",
"425 518 OFFCURVE",
"425 452 CURVE SMOOTH",
"425 387 OFFCURVE",
"382 369 OFFCURVE",
"324 369 CURVE SMOOTH",
"247 369 LINE"
);
},
{
closed = 1;
nodes = (
"485 757 LINE",
"485 875 LINE",
"129 875 LINE",
"129 757 LINE"
);
}
);
width = 657;
}
);
note = Rdotbelowmacron;
rightKerningGroup = R;
unicode = 1E5C;
},
{
glyphname = Rlinebelow;
lastChange = "2015-11-30 02:19:02 +0000";
layers = (
{
layerId = "13D241F5-3870-466E-AD79-DAA9175309D3";
name = Bold;
paths = (
{
closed = 1;
nodes = (
"247 0 LINE",
"247 205 LINE",
"315 205 LINE",
"417 0 LINE",
"629 0 LINE",
"512 235 LINE",
"590 273 OFFCURVE",
"637 346 OFFCURVE",
"637 452 CURVE SMOOTH",
"637 615 OFFCURVE",
"529 699 OFFCURVE",
"365 699 CURVE SMOOTH",
"40 699 LINE",
"40 0 LINE"
);
},
{
closed = 1;
nodes = (
"501 -172 LINE",
"501 -54 LINE",
"145 -54 LINE",
"145 -172 LINE"
);
},
{
closed = 1;
nodes = (
"247 535 LINE",
"324 535 LINE SMOOTH",
"382 535 OFFCURVE",
"425 518 OFFCURVE",
"425 452 CURVE SMOOTH",
"425 387 OFFCURVE",
"382 369 OFFCURVE",
"324 369 CURVE SMOOTH",
"247 369 LINE"
);
}
);
width = 657;
}
);
note = Rlinebelow;
rightKerningGroup = R;
unicode = 1E5E;
},
{
glyphname = S;
lastChange = "2015-11-30 02:19:00 +0000";
layers = (
{
layerId = "13D241F5-3870-466E-AD79-DAA9175309D3";
name = Bold;
paths = (
{
closed = 1;
nodes = (
"464 -15 OFFCURVE",
"554 68 OFFCURVE",
"554 196 CURVE SMOOTH",
"554 308 OFFCURVE",
"510 357 OFFCURVE",
"372 414 CURVE SMOOTH",
"291 447 OFFCURVE",
"247 461 OFFCURVE",
"247 496 CURVE SMOOTH",
"247 527 OFFCURVE",
"285 541 OFFCURVE",
"335 541 CURVE SMOOTH",
"392 541 OFFCURVE",
"453 526 OFFCURVE",
"513 493 CURVE",
"513 670 LINE",
"450 700 OFFCURVE",
"386 714 OFFCURVE",
"297 714 CURVE SMOOTH",
"134 714 OFFCURVE",
"23 627 OFFCURVE",
"23 501 CURVE SMOOTH",
"23 402 OFFCURVE",
"79 340 OFFCURVE",
"207 285 CURVE SMOOTH",
"293 248 OFFCURVE",
"326 233 OFFCURVE",
"326 198 CURVE SMOOTH",
"326 171 OFFCURVE",
"302 157 OFFCURVE",
"249 157 CURVE SMOOTH",
"181 157 OFFCURVE",
"96 176 OFFCURVE",
"20 217 CURVE",
"20 34 LINE",
"77 4 OFFCURVE",
"176 -15 OFFCURVE",
"265 -15 CURVE SMOOTH"
);
}
);
width = 574;
}
);
leftKerningGroup = S;
note = S;
rightKerningGroup = S;
unicode = 0053;
},
{
glyphname = Sacute;
lastChange = "2015-11-30 02:19:03 +0000";
layers = (
{
layerId = "13D241F5-3870-466E-AD79-DAA9175309D3";
name = Bold;
paths = (
{
closed = 1;
nodes = (
"464 -15 OFFCURVE",
"554 68 OFFCURVE",
"554 196 CURVE SMOOTH",
"554 308 OFFCURVE",
"510 357 OFFCURVE",
"372 414 CURVE SMOOTH",
"291 447 OFFCURVE",
"247 461 OFFCURVE",
"247 496 CURVE SMOOTH",
"247 527 OFFCURVE",
"285 541 OFFCURVE",
"335 541 CURVE SMOOTH",
"392 541 OFFCURVE",
"453 526 OFFCURVE",
"513 493 CURVE",
"513 670 LINE",
"450 700 OFFCURVE",
"386 714 OFFCURVE",
"297 714 CURVE SMOOTH",
"134 714 OFFCURVE",
"23 627 OFFCURVE",
"23 501 CURVE SMOOTH",
"23 402 OFFCURVE",
"79 340 OFFCURVE",
"207 285 CURVE SMOOTH",
"293 248 OFFCURVE",
"326 233 OFFCURVE",
"326 198 CURVE SMOOTH",
"326 171 OFFCURVE",
"302 157 OFFCURVE",
"249 157 CURVE SMOOTH",
"181 157 OFFCURVE",
"96 176 OFFCURVE",
"20 217 CURVE",
"20 34 LINE",
"77 4 OFFCURVE",
"176 -15 OFFCURVE",
"265 -15 CURVE SMOOTH"
);
},
{
closed = 1;
nodes = (
"371 737 LINE",
"464 917 LINE",
"263 917 LINE",
"194 737 LINE"
);
}
);
width = 574;
}
);
leftKerningGroup = S;
note = Sacute;
rightKerningGroup = S;
unicode = 015A;
},
{
glyphname = Scaron;
lastChange = "2015-11-30 02:19:03 +0000";
layers = (
{
layerId = "13D241F5-3870-466E-AD79-DAA9175309D3";
name = Bold;
paths = (
{
closed = 1;
nodes = (
"464 -15 OFFCURVE",
"554 68 OFFCURVE",
"554 196 CURVE SMOOTH",
"554 308 OFFCURVE",
"510 357 OFFCURVE",
"372 414 CURVE SMOOTH",
"291 447 OFFCURVE",
"247 461 OFFCURVE",
"247 496 CURVE SMOOTH",
"247 527 OFFCURVE",
"285 541 OFFCURVE",
"335 541 CURVE SMOOTH",
"392 541 OFFCURVE",
"453 526 OFFCURVE",
"513 493 CURVE",
"513 670 LINE",
"450 700 OFFCURVE",
"386 714 OFFCURVE",
"297 714 CURVE SMOOTH",
"134 714 OFFCURVE",
"23 627 OFFCURVE",
"23 501 CURVE SMOOTH",
"23 402 OFFCURVE",
"79 340 OFFCURVE",
"207 285 CURVE SMOOTH",
"293 248 OFFCURVE",
"326 233 OFFCURVE",
"326 198 CURVE SMOOTH",
"326 171 OFFCURVE",
"302 157 OFFCURVE",
"249 157 CURVE SMOOTH",
"181 157 OFFCURVE",
"96 176 OFFCURVE",
"20 217 CURVE",
"20 34 LINE",
"77 4 OFFCURVE",
"176 -15 OFFCURVE",
"265 -15 CURVE SMOOTH"
);
},
{
closed = 1;
nodes = (
"369 748 LINE",
"517 920 LINE",
"345 920 LINE",
"287 849 LINE",
"229 920 LINE",
"56 920 LINE",
"204 748 LINE"
);
}
);
width = 574;
}
);
leftKerningGroup = S;
note = Scaron;
rightKerningGroup = S;
unicode = 0160;
},
{
glyphname = Scedilla;
lastChange = "2015-11-30 02:19:02 +0000";
layers = (
{
layerId = "13D241F5-3870-466E-AD79-DAA9175309D3";
name = Bold;
paths = (
{
closed = 1;
nodes = (
"464 -15 OFFCURVE",
"554 68 OFFCURVE",
"554 196 CURVE SMOOTH",
"554 308 OFFCURVE",
"510 357 OFFCURVE",
"372 414 CURVE SMOOTH",
"291 447 OFFCURVE",
"247 461 OFFCURVE",
"247 496 CURVE SMOOTH",
"247 527 OFFCURVE",
"285 541 OFFCURVE",
"335 541 CURVE SMOOTH",
"392 541 OFFCURVE",
"453 526 OFFCURVE",
"513 493 CURVE",
"513 670 LINE",
"450 700 OFFCURVE",
"386 714 OFFCURVE",
"297 714 CURVE SMOOTH",
"134 714 OFFCURVE",
"23 627 OFFCURVE",
"23 501 CURVE SMOOTH",
"23 402 OFFCURVE",
"79 340 OFFCURVE",
"207 285 CURVE SMOOTH",
"293 248 OFFCURVE",
"326 233 OFFCURVE",
"326 198 CURVE SMOOTH",
"326 171 OFFCURVE",
"302 157 OFFCURVE",
"249 157 CURVE SMOOTH",
"181 157 OFFCURVE",
"96 176 OFFCURVE",
"20 217 CURVE",
"20 34 LINE",
"77 4 OFFCURVE",
"176 -15 OFFCURVE",
"265 -15 CURVE SMOOTH"
);
},
{
closed = 1;
nodes = (
"359 -248 OFFCURVE",
"411 -203 OFFCURVE",
"411 -139 CURVE SMOOTH",
"411 -90 OFFCURVE",
"378 -54 OFFCURVE",
"318 -46 CURVE",
"336 0 LINE",
"205 0 LINE",
"172 -87 LINE",
"248 -87 OFFCURVE",
"274 -100 OFFCURVE",
"274 -131 CURVE SMOOTH",
"274 -160 OFFCURVE",
"250 -168 OFFCURVE",
"210 -168 CURVE SMOOTH",
"187 -168 OFFCURVE",
"160 -162 OFFCURVE",
"144 -153 CURVE",
"144 -233 LINE",
"167 -242 OFFCURVE",
"200 -248 OFFCURVE",
"253 -248 CURVE SMOOTH"
);
}
);
width = 574;
}
);
leftKerningGroup = S;
note = Scedilla;
rightKerningGroup = S;
unicode = 015E;
},
{
glyphname = Scircumflex;
lastChange = "2015-11-30 02:19:03 +0000";
layers = (
{
layerId = "13D241F5-3870-466E-AD79-DAA9175309D3";
name = Bold;
paths = (
{
closed = 1;
nodes = (
"464 -15 OFFCURVE",
"554 68 OFFCURVE",
"554 196 CURVE SMOOTH",
"554 308 OFFCURVE",
"510 357 OFFCURVE",
"372 414 CURVE SMOOTH",
"291 447 OFFCURVE",
"247 461 OFFCURVE",
"247 496 CURVE SMOOTH",
"247 527 OFFCURVE",
"285 541 OFFCURVE",
"335 541 CURVE SMOOTH",
"392 541 OFFCURVE",
"453 526 OFFCURVE",
"513 493 CURVE",
"513 670 LINE",
"450 700 OFFCURVE",
"386 714 OFFCURVE",
"297 714 CURVE SMOOTH",
"134 714 OFFCURVE",
"23 627 OFFCURVE",
"23 501 CURVE SMOOTH",
"23 402 OFFCURVE",
"79 340 OFFCURVE",
"207 285 CURVE SMOOTH",
"293 248 OFFCURVE",
"326 233 OFFCURVE",
"326 198 CURVE SMOOTH",
"326 171 OFFCURVE",
"302 157 OFFCURVE",
"249 157 CURVE SMOOTH",
"181 157 OFFCURVE",
"96 176 OFFCURVE",
"20 217 CURVE",
"20 34 LINE",
"77 4 OFFCURVE",
"176 -15 OFFCURVE",
"265 -15 CURVE SMOOTH"
);
},
{
closed = 1;
nodes = (
"230 748 LINE",
"288 819 LINE",
"346 748 LINE",
"518 748 LINE",
"370 920 LINE",
"205 920 LINE",
"57 748 LINE"
);
}
);
width = 574;
}
);
leftKerningGroup = S;
note = Scircumflex;
rightKerningGroup = S;
unicode = 015C;
},
{
glyphname = Scommaaccent;
lastChange = "2015-11-30 02:19:03 +0000";
layers = (
{
layerId = "13D241F5-3870-466E-AD79-DAA9175309D3";
name = Bold;
paths = (
{
closed = 1;
nodes = (
"464 -15 OFFCURVE",
"554 68 OFFCURVE",
"554 196 CURVE SMOOTH",
"554 308 OFFCURVE",
"510 357 OFFCURVE",
"372 414 CURVE SMOOTH",
"291 447 OFFCURVE",
"247 461 OFFCURVE",
"247 496 CURVE SMOOTH",
"247 527 OFFCURVE",
"285 541 OFFCURVE",
"335 541 CURVE SMOOTH",
"392 541 OFFCURVE",
"453 526 OFFCURVE",
"513 493 CURVE",
"513 670 LINE",
"450 700 OFFCURVE",
"386 714 OFFCURVE",
"297 714 CURVE SMOOTH",
"134 714 OFFCURVE",
"23 627 OFFCURVE",
"23 501 CURVE SMOOTH",
"23 402 OFFCURVE",
"79 340 OFFCURVE",
"207 285 CURVE SMOOTH",
"293 248 OFFCURVE",
"326 233 OFFCURVE",
"326 198 CURVE SMOOTH",
"326 171 OFFCURVE",
"302 157 OFFCURVE",
"249 157 CURVE SMOOTH",
"181 157 OFFCURVE",
"96 176 OFFCURVE",
"20 217 CURVE",
"20 34 LINE",
"77 4 OFFCURVE",
"176 -15 OFFCURVE",
"265 -15 CURVE SMOOTH"
);
},
{
closed = 1;
nodes = (
"292 -259 LINE",
"399 -45 LINE",
"193 -45 LINE",
"109 -259 LINE"
);
}
);
width = 574;
}
);
leftKerningGroup = S;
note = Scommaaccent;
rightKerningGroup = S;
unicode = 0218;
},
{
glyphname = Sdotaccent;
lastChange = "2015-11-30 02:19:02 +0000";
layers = (
{
layerId = "13D241F5-3870-466E-AD79-DAA9175309D3";
name = Bold;
paths = (
{
closed = 1;
nodes = (
"464 -15 OFFCURVE",
"554 68 OFFCURVE",
"554 196 CURVE SMOOTH",
"554 308 OFFCURVE",
"510 357 OFFCURVE",
"372 414 CURVE SMOOTH",
"291 447 OFFCURVE",
"247 461 OFFCURVE",
"247 496 CURVE SMOOTH",
"247 527 OFFCURVE",
"285 541 OFFCURVE",
"335 541 CURVE SMOOTH",
"392 541 OFFCURVE",
"453 526 OFFCURVE",
"513 493 CURVE",
"513 670 LINE",
"450 700 OFFCURVE",
"386 714 OFFCURVE",
"297 714 CURVE SMOOTH",
"134 714 OFFCURVE",
"23 627 OFFCURVE",
"23 501 CURVE SMOOTH",
"23 402 OFFCURVE",
"79 340 OFFCURVE",
"207 285 CURVE SMOOTH",
"293 248 OFFCURVE",
"326 233 OFFCURVE",
"326 198 CURVE SMOOTH",
"326 171 OFFCURVE",
"302 157 OFFCURVE",
"249 157 CURVE SMOOTH",
"181 157 OFFCURVE",
"96 176 OFFCURVE",
"20 217 CURVE",
"20 34 LINE",
"77 4 OFFCURVE",
"176 -15 OFFCURVE",
"265 -15 CURVE SMOOTH"
);
},
{
closed = 1;
nodes = (
"339 742 OFFCURVE",
"375 777 OFFCURVE",
"375 823 CURVE SMOOTH",
"375 869 OFFCURVE",
"339 906 OFFCURVE",
"294 906 CURVE SMOOTH",
"249 906 OFFCURVE",
"211 869 OFFCURVE",
"211 823 CURVE SMOOTH",
"211 777 OFFCURVE",
"249 742 OFFCURVE",
"294 742 CURVE SMOOTH"
);
}
);
width = 574;
}
);
leftKerningGroup = S;
note = Sdotaccent;
rightKerningGroup = S;
unicode = 1E60;
},
{
glyphname = Sdotbelow;
lastChange = "2015-11-30 02:19:03 +0000";
layers = (
{
layerId = "13D241F5-3870-466E-AD79-DAA9175309D3";
name = Bold;
paths = (
{
closed = 1;
nodes = (
"464 -15 OFFCURVE",
"554 68 OFFCURVE",
"554 196 CURVE SMOOTH",
"554 308 OFFCURVE",
"510 357 OFFCURVE",
"372 414 CURVE SMOOTH",
"291 447 OFFCURVE",
"247 461 OFFCURVE",
"247 496 CURVE SMOOTH",
"247 527 OFFCURVE",
"285 541 OFFCURVE",
"335 541 CURVE SMOOTH",
"392 541 OFFCURVE",
"453 526 OFFCURVE",
"513 493 CURVE",
"513 670 LINE",
"450 700 OFFCURVE",
"386 714 OFFCURVE",
"297 714 CURVE SMOOTH",
"134 714 OFFCURVE",
"23 627 OFFCURVE",
"23 501 CURVE SMOOTH",
"23 402 OFFCURVE",
"79 340 OFFCURVE",
"207 285 CURVE SMOOTH",
"293 248 OFFCURVE",
"326 233 OFFCURVE",
"326 198 CURVE SMOOTH",
"326 171 OFFCURVE",
"302 157 OFFCURVE",
"249 157 CURVE SMOOTH",
"181 157 OFFCURVE",
"96 176 OFFCURVE",
"20 217 CURVE",
"20 34 LINE",
"77 4 OFFCURVE",
"176 -15 OFFCURVE",
"265 -15 CURVE SMOOTH"
);
},
{
closed = 1;
nodes = (
"329 -210 OFFCURVE",
"365 -174 OFFCURVE",
"365 -128 CURVE SMOOTH",
"365 -82 OFFCURVE",
"329 -46 OFFCURVE",
"284 -46 CURVE SMOOTH",
"239 -46 OFFCURVE",
"201 -82 OFFCURVE",
"201 -128 CURVE SMOOTH",
"201 -174 OFFCURVE",
"239 -210 OFFCURVE",
"284 -210 CURVE SMOOTH"
);
}
);
width = 574;
}
);
leftKerningGroup = S;
note = Sdotbelow;
rightKerningGroup = S;
unicode = 1E62;
},
{
glyphname = Germandbls;
lastChange = "2015-11-30 02:19:00 +0000";
layers = (
{
layerId = "13D241F5-3870-466E-AD79-DAA9175309D3";
name = Bold;
paths = (
{
closed = 1;
nodes = (
"556 -15 OFFCURVE",
"643 62 OFFCURVE",
"643 195 CURVE SMOOTH",
"643 288 OFFCURVE",
"601 352 OFFCURVE",
"508 381 CURVE",
"603 489 LINE",
"591 602 OFFCURVE",
"510 714 OFFCURVE",
"316 714 CURVE SMOOTH",
"131 714 OFFCURVE",
"35 616 OFFCURVE",
"35 452 CURVE SMOOTH",
"35 0 LINE",
"241 0 LINE",
"241 477 LINE SMOOTH",
"241 528 OFFCURVE",
"263 561 OFFCURVE",
"318 561 CURVE SMOOTH",
"363 561 OFFCURVE",
"383 532 OFFCURVE",
"386 497 CURVE",
"287 384 LINE",
"287 286 LINE",
"343 286 LINE SMOOTH",
"405 286 OFFCURVE",
"433 264 OFFCURVE",
"433 215 CURVE SMOOTH",
"433 167 OFFCURVE",
"402 146 OFFCURVE",
"350 146 CURVE SMOOTH",
"324 146 OFFCURVE",
"297 152 OFFCURVE",
"278 165 CURVE",
"278 3 LINE",
"308 -10 OFFCURVE",
"359 -15 OFFCURVE",
"402 -15 CURVE SMOOTH"
);
}
);
width = 663;
}
);
note = uni1E9E;
unicode = 1E9E;
},
{
glyphname = Schwa;
lastChange = "2015-11-30 02:19:03 +0000";
layers = (
{
layerId = "13D241F5-3870-466E-AD79-DAA9175309D3";
name = Bold;
paths = (
{
closed = 1;
nodes = (
"665 -15 OFFCURVE",
"803 130 OFFCURVE",
"803 352 CURVE SMOOTH",
"803 583 OFFCURVE",
"640 714 OFFCURVE",
"372 714 CURVE SMOOTH",
"256 714 OFFCURVE",
"149 693 OFFCURVE",
"78 664 CURVE",
"78 500 LINE",
"148 527 OFFCURVE",
"247 542 OFFCURVE",
"333 542 CURVE SMOOTH",
"478 542 OFFCURVE",
"537 503 OFFCURVE",
"551 426 CURVE",
"20 426 LINE",
"20 341 LINE SMOOTH",
"20 141 OFFCURVE",
"147 -15 OFFCURVE",
"407 -15 CURVE SMOOTH"
);
},
{
closed = 1;
nodes = (
"308 154 OFFCURVE",
"259 212 OFFCURVE",
"250 278 CURVE",
"551 278 LINE",
"543 204 OFFCURVE",
"494 154 OFFCURVE",
"402 154 CURVE SMOOTH"
);
}
);
width = 823;
}
);
note = uni018F;
unicode = 018F;
},
{
glyphname = T;
lastChange = "2015-11-30 02:19:00 +0000";
layers = (
{
layerId = "13D241F5-3870-466E-AD79-DAA9175309D3";
name = Bold;
paths = (
{
closed = 1;
nodes = (
"400 0 LINE",
"400 525 LINE",
"588 525 LINE",
"588 699 LINE",
"5 699 LINE",
"5 525 LINE",
"193 525 LINE",
"193 0 LINE"
);
}
);
width = 593;
}
);
leftKerningGroup = T;
note = T;
rightKerningGroup = T;
unicode = 0054;
},
{
glyphname = Tbar;
lastChange = "2015-11-30 02:19:00 +0000";
layers = (
{
layerId = "13D241F5-3870-466E-AD79-DAA9175309D3";
name = Bold;
paths = (
{
closed = 1;
nodes = (
"402 0 LINE",
"402 240 LINE",
"504 240 LINE",
"504 409 LINE",
"402 409 LINE",
"402 521 LINE",
"588 521 LINE",
"588 699 LINE",
"5 699 LINE",
"5 521 LINE",
"191 521 LINE",
"191 409 LINE",
"92 409 LINE",
"92 240 LINE",
"191 240 LINE",
"191 0 LINE"
);
}
);
width = 593;
}
);
leftKerningGroup = T;
note = Tbar;
rightKerningGroup = T;
unicode = 0166;
},
{
glyphname = Tcaron;
lastChange = "2015-11-30 02:19:03 +0000";
layers = (
{
layerId = "13D241F5-3870-466E-AD79-DAA9175309D3";
name = Bold;
paths = (
{
closed = 1;
nodes = (
"400 0 LINE",
"400 525 LINE",
"588 525 LINE",
"588 699 LINE",
"5 699 LINE",
"5 525 LINE",
"193 525 LINE",
"193 0 LINE"
);
},
{
closed = 1;
nodes = (
"383 748 LINE",
"531 920 LINE",
"359 920 LINE",
"301 849 LINE",
"243 920 LINE",
"70 920 LINE",
"218 748 LINE"
);
}
);
width = 593;
}
);
leftKerningGroup = T;
note = Tcaron;
rightKerningGroup = T;
unicode = 0164;
},
{
glyphname = Tcedilla;
lastChange = "2015-11-30 02:19:02 +0000";
layers = (
{
layerId = "13D241F5-3870-466E-AD79-DAA9175309D3";
name = Bold;
paths = (
{
closed = 1;
nodes = (
"400 0 LINE",
"400 525 LINE",
"588 525 LINE",
"588 699 LINE",
"5 699 LINE",
"5 525 LINE",
"193 525 LINE",
"193 0 LINE"
);
},
{
closed = 1;
nodes = (
"386 -248 OFFCURVE",
"438 -203 OFFCURVE",
"438 -139 CURVE SMOOTH",
"438 -90 OFFCURVE",
"405 -54 OFFCURVE",
"345 -46 CURVE",
"363 0 LINE",
"232 0 LINE",
"199 -87 LINE",
"275 -87 OFFCURVE",
"301 -100 OFFCURVE",
"301 -131 CURVE SMOOTH",
"301 -160 OFFCURVE",
"277 -168 OFFCURVE",
"237 -168 CURVE SMOOTH",
"214 -168 OFFCURVE",
"187 -162 OFFCURVE",
"171 -153 CURVE",
"171 -233 LINE",
"194 -242 OFFCURVE",
"227 -248 OFFCURVE",
"280 -248 CURVE SMOOTH"
);
}
);
width = 593;
}
);
leftKerningGroup = T;
note = Tcedilla;
rightKerningGroup = T;
unicode = 0162;
},
{
glyphname = Tcommaaccent;
lastChange = "2015-11-30 02:19:03 +0000";
layers = (
{
layerId = "13D241F5-3870-466E-AD79-DAA9175309D3";
name = Bold;
paths = (
{
closed = 1;
nodes = (
"400 0 LINE",
"400 525 LINE",
"588 525 LINE",
"588 699 LINE",
"5 699 LINE",
"5 525 LINE",
"193 525 LINE",
"193 0 LINE"
);
},
{
closed = 1;
nodes = (
"285 -260 LINE",
"393 -45 LINE",
"196 -45 LINE",
"113 -260 LINE"
);
}
);
width = 593;
}
);
leftKerningGroup = T;
note = Tcommaaccent;
rightKerningGroup = T;
unicode = 021A;
},
{
glyphname = Tdotbelow;
lastChange = "2015-11-30 02:19:03 +0000";
layers = (
{
layerId = "13D241F5-3870-466E-AD79-DAA9175309D3";
name = Bold;
paths = (
{
closed = 1;
nodes = (
"400 0 LINE",
"400 525 LINE",
"588 525 LINE",
"588 699 LINE",
"5 699 LINE",
"5 525 LINE",
"193 525 LINE",
"193 0 LINE"
);
},
{
closed = 1;
nodes = (
"347 -210 OFFCURVE",
"383 -174 OFFCURVE",
"383 -128 CURVE SMOOTH",
"383 -82 OFFCURVE",
"347 -46 OFFCURVE",
"302 -46 CURVE SMOOTH",
"257 -46 OFFCURVE",
"219 -82 OFFCURVE",
"219 -128 CURVE SMOOTH",
"219 -174 OFFCURVE",
"257 -210 OFFCURVE",
"302 -210 CURVE SMOOTH"
);
}
);
width = 593;
}
);
leftKerningGroup = T;
note = Tdotbelow;
rightKerningGroup = T;
unicode = 1E6C;
},
{
glyphname = Tlinebelow;
lastChange = "2015-11-30 02:19:03 +0000";
layers = (
{
layerId = "13D241F5-3870-466E-AD79-DAA9175309D3";
name = Bold;
paths = (
{
closed = 1;
nodes = (
"400 0 LINE",
"400 525 LINE",
"588 525 LINE",
"588 699 LINE",
"5 699 LINE",
"5 525 LINE",
"193 525 LINE",
"193 0 LINE"
);
},
{
closed = 1;
nodes = (
"465 -172 LINE",
"465 -54 LINE",
"109 -54 LINE",
"109 -172 LINE"
);
}
);
width = 593;
}
);
leftKerningGroup = T;
note = Tlinebelow;
rightKerningGroup = T;
unicode = 1E6E;
},
{
glyphname = U;
lastChange = "2015-11-30 02:19:00 +0000";
layers = (
{
layerId = "13D241F5-3870-466E-AD79-DAA9175309D3";
name = Bold;
paths = (
{
closed = 1;
nodes = (
"589 -15 OFFCURVE",
"689 123 OFFCURVE",
"689 304 CURVE SMOOTH",
"689 699 LINE",
"482 699 LINE",
"482 306 LINE SMOOTH",
"482 220 OFFCURVE",
"441 176 OFFCURVE",
"362 176 CURVE SMOOTH",
"284 176 OFFCURVE",
"242 220 OFFCURVE",
"242 306 CURVE SMOOTH",
"242 699 LINE",
"35 699 LINE",
"35 304 LINE SMOOTH",
"35 123 OFFCURVE",
"135 -15 OFFCURVE",
"362 -15 CURVE SMOOTH"
);
}
);
width = 724;
}
);
leftKerningGroup = U;
note = U;
rightKerningGroup = U;
unicode = 0055;
},
{
glyphname = Uacute;
lastChange = "2015-11-30 02:19:03 +0000";
layers = (
{
layerId = "13D241F5-3870-466E-AD79-DAA9175309D3";
name = Bold;
paths = (
{
closed = 1;
nodes = (
"589 -15 OFFCURVE",
"689 123 OFFCURVE",
"689 304 CURVE SMOOTH",
"689 699 LINE",
"482 699 LINE",
"482 306 LINE SMOOTH",
"482 220 OFFCURVE",
"441 176 OFFCURVE",
"362 176 CURVE SMOOTH",
"284 176 OFFCURVE",
"242 220 OFFCURVE",
"242 306 CURVE SMOOTH",
"242 699 LINE",
"35 699 LINE",
"35 304 LINE SMOOTH",
"35 123 OFFCURVE",
"135 -15 OFFCURVE",
"362 -15 CURVE SMOOTH"
);
},
{
closed = 1;
nodes = (
"453 737 LINE",
"546 917 LINE",
"345 917 LINE",
"276 737 LINE"
);
}
);
width = 724;
}
);
leftKerningGroup = U;
note = Uacute;
rightKerningGroup = U;
unicode = 00DA;
},
{
glyphname = Ubreve;
lastChange = "2015-11-30 02:19:03 +0000";
layers = (
{
layerId = "13D241F5-3870-466E-AD79-DAA9175309D3";
name = Bold;
paths = (
{
closed = 1;
nodes = (
"589 -15 OFFCURVE",
"689 123 OFFCURVE",
"689 304 CURVE SMOOTH",
"689 699 LINE",
"482 699 LINE",
"482 306 LINE SMOOTH",
"482 220 OFFCURVE",
"441 176 OFFCURVE",
"362 176 CURVE SMOOTH",
"284 176 OFFCURVE",
"242 220 OFFCURVE",
"242 306 CURVE SMOOTH",
"242 699 LINE",
"35 699 LINE",
"35 304 LINE SMOOTH",
"35 123 OFFCURVE",
"135 -15 OFFCURVE",
"362 -15 CURVE SMOOTH"
);
},
{
closed = 1;
nodes = (
"493 741 OFFCURVE",
"562 812 OFFCURVE",
"562 925 CURVE",
"413 925 LINE",
"413 885 OFFCURVE",
"397 865 OFFCURVE",
"368 865 CURVE SMOOTH",
"338 865 OFFCURVE",
"323 885 OFFCURVE",
"323 925 CURVE",
"174 925 LINE",
"174 812 OFFCURVE",
"243 741 OFFCURVE",
"368 741 CURVE SMOOTH"
);
}
);
width = 724;
}
);
leftKerningGroup = U;
note = Ubreve;
rightKerningGroup = U;
unicode = 016C;
},
{
glyphname = Ucaron;
lastChange = "2015-11-30 02:19:03 +0000";
layers = (
{
layerId = "13D241F5-3870-466E-AD79-DAA9175309D3";
name = Bold;
paths = (
{
closed = 1;
nodes = (
"589 -15 OFFCURVE",
"689 123 OFFCURVE",
"689 304 CURVE SMOOTH",
"689 699 LINE",
"482 699 LINE",
"482 306 LINE SMOOTH",
"482 220 OFFCURVE",
"441 176 OFFCURVE",
"362 176 CURVE SMOOTH",
"284 176 OFFCURVE",
"242 220 OFFCURVE",
"242 306 CURVE SMOOTH",
"242 699 LINE",
"35 699 LINE",
"35 304 LINE SMOOTH",
"35 123 OFFCURVE",
"135 -15 OFFCURVE",
"362 -15 CURVE SMOOTH"
);
},
{
closed = 1;
nodes = (
"450 748 LINE",
"598 920 LINE",
"426 920 LINE",
"368 849 LINE",
"310 920 LINE",
"137 920 LINE",
"285 748 LINE"
);
}
);
width = 724;
}
);
leftKerningGroup = U;
note = Ucaron;
rightKerningGroup = U;
unicode = 01D3;
},
{
glyphname = Ucircumflex;
lastChange = "2015-11-30 02:19:02 +0000";
layers = (
{
layerId = "13D241F5-3870-466E-AD79-DAA9175309D3";
name = Bold;
paths = (
{
closed = 1;
nodes = (
"589 -15 OFFCURVE",
"689 123 OFFCURVE",
"689 304 CURVE SMOOTH",
"689 699 LINE",
"482 699 LINE",
"482 306 LINE SMOOTH",
"482 220 OFFCURVE",
"441 176 OFFCURVE",
"362 176 CURVE SMOOTH",
"284 176 OFFCURVE",
"242 220 OFFCURVE",
"242 306 CURVE SMOOTH",
"242 699 LINE",
"35 699 LINE",
"35 304 LINE SMOOTH",
"35 123 OFFCURVE",
"135 -15 OFFCURVE",
"362 -15 CURVE SMOOTH"
);
},
{
closed = 1;
nodes = (
"305 748 LINE",
"363 819 LINE",
"421 748 LINE",
"593 748 LINE",
"445 920 LINE",
"280 920 LINE",
"132 748 LINE"
);
}
);
width = 724;
}
);
leftKerningGroup = U;
note = Ucircumflex;
rightKerningGroup = U;
unicode = 00DB;
},
{
glyphname = Udieresis;
lastChange = "2015-11-30 02:19:02 +0000";
layers = (
{
layerId = "13D241F5-3870-466E-AD79-DAA9175309D3";
name = Bold;
paths = (
{
closed = 1;
nodes = (
"589 -15 OFFCURVE",
"689 123 OFFCURVE",
"689 304 CURVE SMOOTH",
"689 699 LINE",
"482 699 LINE",
"482 306 LINE SMOOTH",
"482 220 OFFCURVE",
"441 176 OFFCURVE",
"362 176 CURVE SMOOTH",
"284 176 OFFCURVE",
"242 220 OFFCURVE",
"242 306 CURVE SMOOTH",
"242 699 LINE",
"35 699 LINE",
"35 304 LINE SMOOTH",
"35 123 OFFCURVE",
"135 -15 OFFCURVE",
"362 -15 CURVE SMOOTH"
);
},
{
closed = 1;
nodes = (
"290 749 OFFCURVE",
"327 784 OFFCURVE",
"327 830 CURVE SMOOTH",
"327 876 OFFCURVE",
"290 913 OFFCURVE",
"245 913 CURVE SMOOTH",
"201 913 OFFCURVE",
"162 876 OFFCURVE",
"162 830 CURVE SMOOTH",
"162 784 OFFCURVE",
"201 749 OFFCURVE",
"245 749 CURVE SMOOTH"
);
},
{
closed = 1;
nodes = (
"525 749 OFFCURVE",
"562 784 OFFCURVE",
"562 830 CURVE SMOOTH",
"562 876 OFFCURVE",
"525 913 OFFCURVE",
"481 913 CURVE SMOOTH",
"436 913 OFFCURVE",
"398 876 OFFCURVE",
"398 830 CURVE SMOOTH",
"398 784 OFFCURVE",
"436 749 OFFCURVE",
"481 749 CURVE SMOOTH"
);
}
);
width = 724;
}
);
leftKerningGroup = U;
note = Udieresis;
rightKerningGroup = U;
unicode = 00DC;
},
{
glyphname = Udieresisacute;
lastChange = "2015-11-30 02:19:03 +0000";
layers = (
{
layerId = "13D241F5-3870-466E-AD79-DAA9175309D3";
name = Bold;
paths = (
{
closed = 1;
nodes = (
"589 -15 OFFCURVE",
"689 123 OFFCURVE",
"689 304 CURVE SMOOTH",
"689 699 LINE",
"482 699 LINE",
"482 306 LINE SMOOTH",
"482 220 OFFCURVE",
"441 176 OFFCURVE",
"362 176 CURVE SMOOTH",
"284 176 OFFCURVE",
"242 220 OFFCURVE",
"242 306 CURVE SMOOTH",
"242 699 LINE",
"35 699 LINE",
"35 304 LINE SMOOTH",
"35 123 OFFCURVE",
"135 -15 OFFCURVE",
"362 -15 CURVE SMOOTH"
);
},
{
closed = 1;
nodes = (
"290 752 OFFCURVE",
"324 784 OFFCURVE",
"324 826 CURVE SMOOTH",
"324 868 OFFCURVE",
"290 902 OFFCURVE",
"249 902 CURVE SMOOTH",
"209 902 OFFCURVE",
"173 868 OFFCURVE",
"173 826 CURVE SMOOTH",
"173 784 OFFCURVE",
"209 752 OFFCURVE",
"249 752 CURVE SMOOTH"
);
},
{
closed = 1;
nodes = (
"525 752 OFFCURVE",
"559 784 OFFCURVE",
"559 826 CURVE SMOOTH",
"559 868 OFFCURVE",
"525 902 OFFCURVE",
"485 902 CURVE SMOOTH",
"444 902 OFFCURVE",
"409 868 OFFCURVE",
"409 826 CURVE SMOOTH",
"409 784 OFFCURVE",
"444 752 OFFCURVE",
"485 752 CURVE SMOOTH"
);
},
{
closed = 1;
nodes = (
"437 908 LINE",
"519 1052 LINE",
"355 1052 LINE",
"297 908 LINE"
);
}
);
width = 724;
}
);
leftKerningGroup = U;
note = Udieresisacute;
rightKerningGroup = U;
unicode = 01D7;
},
{
glyphname = Udieresiscaron;
lastChange = "2015-11-30 02:19:03 +0000";
layers = (
{
layerId = "13D241F5-3870-466E-AD79-DAA9175309D3";
name = Bold;
paths = (
{
closed = 1;
nodes = (
"589 -15 OFFCURVE",
"689 123 OFFCURVE",
"689 304 CURVE SMOOTH",
"689 699 LINE",
"482 699 LINE",
"482 306 LINE SMOOTH",
"482 220 OFFCURVE",
"441 176 OFFCURVE",
"362 176 CURVE SMOOTH",
"284 176 OFFCURVE",
"242 220 OFFCURVE",
"242 306 CURVE SMOOTH",
"242 699 LINE",
"35 699 LINE",
"35 304 LINE SMOOTH",
"35 123 OFFCURVE",
"135 -15 OFFCURVE",
"362 -15 CURVE SMOOTH"
);
},
{
closed = 1;
nodes = (
"286 749 OFFCURVE",
"321 781 OFFCURVE",
"321 823 CURVE SMOOTH",
"321 865 OFFCURVE",
"286 899 OFFCURVE",
"245 899 CURVE SMOOTH",
"205 899 OFFCURVE",
"171 865 OFFCURVE",
"171 823 CURVE SMOOTH",
"171 781 OFFCURVE",
"205 749 OFFCURVE",
"245 749 CURVE SMOOTH"
);
},
{
closed = 1;
nodes = (
"521 749 OFFCURVE",
"557 781 OFFCURVE",
"557 823 CURVE SMOOTH",
"557 865 OFFCURVE",
"521 899 OFFCURVE",
"481 899 CURVE SMOOTH",
"440 899 OFFCURVE",
"406 865 OFFCURVE",
"406 823 CURVE SMOOTH",
"406 781 OFFCURVE",
"440 749 OFFCURVE",
"481 749 CURVE SMOOTH"
);
},
{
closed = 1;
nodes = (
"416 891 LINE",
"541 1017 LINE",
"404 1017 LINE",
"363 971 LINE",
"322 1017 LINE",
"185 1017 LINE",
"311 891 LINE"
);
}
);
width = 724;
}
);
leftKerningGroup = U;
note = Udieresiscaron;
rightKerningGroup = U;
unicode = 01D9;
},
{
glyphname = Udieresisgrave;
lastChange = "2015-11-30 02:19:03 +0000";
layers = (
{
layerId = "13D241F5-3870-466E-AD79-DAA9175309D3";
name = Bold;
paths = (
{
closed = 1;
nodes = (
"589 -15 OFFCURVE",
"689 123 OFFCURVE",
"689 304 CURVE SMOOTH",
"689 699 LINE",
"482 699 LINE",
"482 306 LINE SMOOTH",
"482 220 OFFCURVE",
"441 176 OFFCURVE",
"362 176 CURVE SMOOTH",
"284 176 OFFCURVE",
"242 220 OFFCURVE",
"242 306 CURVE SMOOTH",
"242 699 LINE",
"35 699 LINE",
"35 304 LINE SMOOTH",
"35 123 OFFCURVE",
"135 -15 OFFCURVE",
"362 -15 CURVE SMOOTH"
);
},
{
closed = 1;
nodes = (
"289 749 OFFCURVE",
"324 781 OFFCURVE",
"324 823 CURVE SMOOTH",
"324 865 OFFCURVE",
"289 899 OFFCURVE",
"248 899 CURVE SMOOTH",
"208 899 OFFCURVE",
"174 865 OFFCURVE",
"174 823 CURVE SMOOTH",
"174 781 OFFCURVE",
"208 749 OFFCURVE",
"248 749 CURVE SMOOTH"
);
},
{
closed = 1;
nodes = (
"436 905 LINE",
"378 1049 LINE",
"214 1049 LINE",
"296 905 LINE"
);
},
{
closed = 1;
nodes = (
"524 749 OFFCURVE",
"560 781 OFFCURVE",
"560 823 CURVE SMOOTH",
"560 865 OFFCURVE",
"524 899 OFFCURVE",
"484 899 CURVE SMOOTH",
"443 899 OFFCURVE",
"409 865 OFFCURVE",
"409 823 CURVE SMOOTH",
"409 781 OFFCURVE",
"443 749 OFFCURVE",
"484 749 CURVE SMOOTH"
);
}
);
width = 724;
}
);
leftKerningGroup = U;
note = Udieresisgrave;
rightKerningGroup = U;
unicode = 01DB;
},
{
glyphname = Udieresismacron;
lastChange = "2015-11-30 02:19:03 +0000";
layers = (
{
layerId = "13D241F5-3870-466E-AD79-DAA9175309D3";
name = Bold;
paths = (
{
closed = 1;
nodes = (
"589 -15 OFFCURVE",
"689 123 OFFCURVE",
"689 304 CURVE SMOOTH",
"689 699 LINE",
"482 699 LINE",
"482 306 LINE SMOOTH",
"482 220 OFFCURVE",
"441 176 OFFCURVE",
"362 176 CURVE SMOOTH",
"284 176 OFFCURVE",
"242 220 OFFCURVE",
"242 306 CURVE SMOOTH",
"242 699 LINE",
"35 699 LINE",
"35 304 LINE SMOOTH",
"35 123 OFFCURVE",
"135 -15 OFFCURVE",
"362 -15 CURVE SMOOTH"
);
},
{
closed = 1;
nodes = (
"296 741 OFFCURVE",
"333 776 OFFCURVE",
"333 822 CURVE SMOOTH",
"333 868 OFFCURVE",
"296 905 OFFCURVE",
"251 905 CURVE SMOOTH",
"207 905 OFFCURVE",
"168 868 OFFCURVE",
"168 822 CURVE SMOOTH",
"168 776 OFFCURVE",
"207 741 OFFCURVE",
"251 741 CURVE SMOOTH"
);
},
{
closed = 1;
nodes = (
"531 741 OFFCURVE",
"568 776 OFFCURVE",
"568 822 CURVE SMOOTH",
"568 868 OFFCURVE",
"531 905 OFFCURVE",
"487 905 CURVE SMOOTH",
"442 905 OFFCURVE",
"404 868 OFFCURVE",
"404 822 CURVE SMOOTH",
"404 776 OFFCURVE",
"442 741 OFFCURVE",
"487 741 CURVE SMOOTH"
);
},
{
closed = 1;
nodes = (
"546 954 LINE",
"546 1072 LINE",
"190 1072 LINE",
"190 954 LINE"
);
}
);
width = 724;
}
);
leftKerningGroup = U;
note = Udieresismacron;
rightKerningGroup = U;
unicode = 01D5;
},
{
glyphname = Udotbelow;
lastChange = "2015-11-30 02:19:03 +0000";
layers = (
{
layerId = "13D241F5-3870-466E-AD79-DAA9175309D3";
name = Bold;
paths = (
{
closed = 1;
nodes = (
"589 -15 OFFCURVE",
"689 123 OFFCURVE",
"689 304 CURVE SMOOTH",
"689 699 LINE",
"482 699 LINE",
"482 306 LINE SMOOTH",
"482 220 OFFCURVE",
"441 176 OFFCURVE",
"362 176 CURVE SMOOTH",
"284 176 OFFCURVE",
"242 220 OFFCURVE",
"242 306 CURVE SMOOTH",
"242 699 LINE",
"35 699 LINE",
"35 304 LINE SMOOTH",
"35 123 OFFCURVE",
"135 -15 OFFCURVE",
"362 -15 CURVE SMOOTH"
);
},
{
closed = 1;
nodes = (
"408 -210 OFFCURVE",
"444 -174 OFFCURVE",
"444 -128 CURVE SMOOTH",
"444 -82 OFFCURVE",
"408 -46 OFFCURVE",
"363 -46 CURVE SMOOTH",
"318 -46 OFFCURVE",
"280 -82 OFFCURVE",
"280 -128 CURVE SMOOTH",
"280 -174 OFFCURVE",
"318 -210 OFFCURVE",
"363 -210 CURVE SMOOTH"
);
}
);
width = 724;
}
);
leftKerningGroup = U;
note = Udotbelow;
rightKerningGroup = U;
unicode = 1EE4;
},
{
glyphname = Ugrave;
lastChange = "2015-11-30 02:19:03 +0000";
layers = (
{
layerId = "13D241F5-3870-466E-AD79-DAA9175309D3";
name = Bold;
paths = (
{
closed = 1;
nodes = (
"589 -15 OFFCURVE",
"689 123 OFFCURVE",
"689 304 CURVE SMOOTH",
"689 699 LINE",
"482 699 LINE",
"482 306 LINE SMOOTH",
"482 220 OFFCURVE",
"441 176 OFFCURVE",
"362 176 CURVE SMOOTH",
"284 176 OFFCURVE",
"242 220 OFFCURVE",
"242 306 CURVE SMOOTH",
"242 699 LINE",
"35 699 LINE",
"35 304 LINE SMOOTH",
"35 123 OFFCURVE",
"135 -15 OFFCURVE",
"362 -15 CURVE SMOOTH"
);
},
{
closed = 1;
nodes = (
"462 737 LINE",
"393 917 LINE",
"192 917 LINE",
"285 737 LINE"
);
}
);
width = 724;
}
);
leftKerningGroup = U;
note = Ugrave;
rightKerningGroup = U;
unicode = 00D9;
},
{
glyphname = Uhookabove;
lastChange = "2015-11-30 02:19:03 +0000";
layers = (
{
layerId = "13D241F5-3870-466E-AD79-DAA9175309D3";
name = Bold;
paths = (
{
closed = 1;
nodes = (
"589 -15 OFFCURVE",
"689 123 OFFCURVE",
"689 304 CURVE SMOOTH",
"689 699 LINE",
"482 699 LINE",
"482 306 LINE SMOOTH",
"482 220 OFFCURVE",
"441 176 OFFCURVE",
"362 176 CURVE SMOOTH",
"284 176 OFFCURVE",
"242 220 OFFCURVE",
"242 306 CURVE SMOOTH",
"242 699 LINE",
"35 699 LINE",
"35 304 LINE SMOOTH",
"35 123 OFFCURVE",
"135 -15 OFFCURVE",
"362 -15 CURVE SMOOTH"
);
},
{
closed = 1;
nodes = (
"438 742 LINE",
"438 772 LINE",
"504 783 OFFCURVE",
"535 820 OFFCURVE",
"535 868 CURVE SMOOTH",
"535 933 OFFCURVE",
"480 978 OFFCURVE",
"367 978 CURVE SMOOTH",
"315 978 OFFCURVE",
"268 970 OFFCURVE",
"237 960 CURVE",
"237 876 LINE",
"249 881 OFFCURVE",
"276 886 OFFCURVE",
"299 886 CURVE SMOOTH",
"346 886 OFFCURVE",
"361 871 OFFCURVE",
"361 853 CURVE SMOOTH",
"361 825 OFFCURVE",
"327 814 OFFCURVE",
"272 814 CURVE",
"272 742 LINE"
);
}
);
width = 724;
}
);
leftKerningGroup = U;
note = Uhookabove;
rightKerningGroup = U;
unicode = 1EE6;
},
{
glyphname = Uhorn;
lastChange = "2015-11-30 02:19:00 +0000";
layers = (
{
layerId = "13D241F5-3870-466E-AD79-DAA9175309D3";
name = Bold;
paths = (
{
closed = 1;
nodes = (
"577 -15 OFFCURVE",
"676 116 OFFCURVE",
"676 293 CURVE SMOOTH",
"676 506 LINE",
"838 506 OFFCURVE",
"902 591 OFFCURVE",
"902 702 CURVE SMOOTH",
"902 747 LINE",
"754 747 LINE",
"754 713 LINE SMOOTH",
"754 656 OFFCURVE",
"739 632 OFFCURVE",
"676 632 CURVE",
"676 699 LINE",
"490 699 LINE",
"490 296 LINE SMOOTH",
"490 201 OFFCURVE",
"444 154 OFFCURVE",
"358 154 CURVE SMOOTH",
"272 154 OFFCURVE",
"225 201 OFFCURVE",
"225 296 CURVE SMOOTH",
"225 699 LINE",
"40 699 LINE",
"40 293 LINE SMOOTH",
"40 116 OFFCURVE",
"139 -15 OFFCURVE",
"358 -15 CURVE SMOOTH"
);
}
);
width = 902;
}
);
leftKerningGroup = U;
note = Uhorn;
rightKerningGroup = U;
unicode = 01AF;
},
{
glyphname = Uhornacute;
lastChange = "2015-11-30 02:19:03 +0000";
layers = (
{
layerId = "13D241F5-3870-466E-AD79-DAA9175309D3";
name = Bold;
paths = (
{
closed = 1;
nodes = (
"577 -15 OFFCURVE",
"676 116 OFFCURVE",
"676 293 CURVE SMOOTH",
"676 506 LINE",
"838 506 OFFCURVE",
"902 591 OFFCURVE",
"902 702 CURVE SMOOTH",
"902 747 LINE",
"754 747 LINE",
"754 713 LINE SMOOTH",
"754 656 OFFCURVE",
"739 632 OFFCURVE",
"676 632 CURVE",
"676 699 LINE",
"490 699 LINE",
"490 296 LINE SMOOTH",
"490 201 OFFCURVE",
"444 154 OFFCURVE",
"358 154 CURVE SMOOTH",
"272 154 OFFCURVE",
"225 201 OFFCURVE",
"225 296 CURVE SMOOTH",
"225 699 LINE",
"40 699 LINE",
"40 293 LINE SMOOTH",
"40 116 OFFCURVE",
"139 -15 OFFCURVE",
"358 -15 CURVE SMOOTH"
);
},
{
closed = 1;
nodes = (
"450 737 LINE",
"543 917 LINE",
"342 917 LINE",
"273 737 LINE"
);
}
);
width = 902;
}
);
leftKerningGroup = U;
note = Uhornacute;
rightKerningGroup = U;
unicode = 1EE8;
},
{
glyphname = Uhorndotbelow;
lastChange = "2015-11-30 02:19:02 +0000";
layers = (
{
layerId = "13D241F5-3870-466E-AD79-DAA9175309D3";
name = Bold;
paths = (
{
closed = 1;
nodes = (
"577 -15 OFFCURVE",
"676 116 OFFCURVE",
"676 293 CURVE SMOOTH",
"676 506 LINE",
"838 506 OFFCURVE",
"902 591 OFFCURVE",
"902 702 CURVE SMOOTH",
"902 747 LINE",
"754 747 LINE",
"754 713 LINE SMOOTH",
"754 656 OFFCURVE",
"739 632 OFFCURVE",
"676 632 CURVE",
"676 699 LINE",
"490 699 LINE",
"490 296 LINE SMOOTH",
"490 201 OFFCURVE",
"444 154 OFFCURVE",
"358 154 CURVE SMOOTH",
"272 154 OFFCURVE",
"225 201 OFFCURVE",
"225 296 CURVE SMOOTH",
"225 699 LINE",
"40 699 LINE",
"40 293 LINE SMOOTH",
"40 116 OFFCURVE",
"139 -15 OFFCURVE",
"358 -15 CURVE SMOOTH"
);
},
{
closed = 1;
nodes = (
"415 -210 OFFCURVE",
"451 -174 OFFCURVE",
"451 -128 CURVE SMOOTH",
"451 -82 OFFCURVE",
"415 -46 OFFCURVE",
"370 -46 CURVE SMOOTH",
"325 -46 OFFCURVE",
"287 -82 OFFCURVE",
"287 -128 CURVE SMOOTH",
"287 -174 OFFCURVE",
"325 -210 OFFCURVE",
"370 -210 CURVE SMOOTH"
);
}
);
width = 902;
}
);
leftKerningGroup = U;
note = Uhorndotbelow;
rightKerningGroup = U;
unicode = 1EF0;
},
{
glyphname = Uhorngrave;
lastChange = "2015-11-30 02:19:03 +0000";
layers = (
{
layerId = "13D241F5-3870-466E-AD79-DAA9175309D3";
name = Bold;
paths = (
{
closed = 1;
nodes = (
"577 -15 OFFCURVE",
"676 116 OFFCURVE",
"676 293 CURVE SMOOTH",
"676 506 LINE",
"838 506 OFFCURVE",
"902 591 OFFCURVE",
"902 702 CURVE SMOOTH",
"902 747 LINE",
"754 747 LINE",
"754 713 LINE SMOOTH",
"754 656 OFFCURVE",
"739 632 OFFCURVE",
"676 632 CURVE",
"676 699 LINE",
"490 699 LINE",
"490 296 LINE SMOOTH",
"490 201 OFFCURVE",
"444 154 OFFCURVE",
"358 154 CURVE SMOOTH",
"272 154 OFFCURVE",
"225 201 OFFCURVE",
"225 296 CURVE SMOOTH",
"225 699 LINE",
"40 699 LINE",
"40 293 LINE SMOOTH",
"40 116 OFFCURVE",
"139 -15 OFFCURVE",
"358 -15 CURVE SMOOTH"
);
},
{
closed = 1;
nodes = (
"459 737 LINE",
"390 917 LINE",
"189 917 LINE",
"282 737 LINE"
);
}
);
width = 902;
}
);
leftKerningGroup = U;
note = Uhorngrave;
rightKerningGroup = U;
unicode = 1EEA;
},
{
glyphname = Uhornhookabove;
lastChange = "2015-11-30 02:19:03 +0000";
layers = (
{
layerId = "13D241F5-3870-466E-AD79-DAA9175309D3";
name = Bold;
paths = (
{
closed = 1;
nodes = (
"577 -15 OFFCURVE",
"676 116 OFFCURVE",
"676 293 CURVE SMOOTH",
"676 506 LINE",
"838 506 OFFCURVE",
"902 591 OFFCURVE",
"902 702 CURVE SMOOTH",
"902 747 LINE",
"754 747 LINE",
"754 713 LINE SMOOTH",
"754 656 OFFCURVE",
"739 632 OFFCURVE",
"676 632 CURVE",
"676 699 LINE",
"490 699 LINE",
"490 296 LINE SMOOTH",
"490 201 OFFCURVE",
"444 154 OFFCURVE",
"358 154 CURVE SMOOTH",
"272 154 OFFCURVE",
"225 201 OFFCURVE",
"225 296 CURVE SMOOTH",
"225 699 LINE",
"40 699 LINE",
"40 293 LINE SMOOTH",
"40 116 OFFCURVE",
"139 -15 OFFCURVE",
"358 -15 CURVE SMOOTH"
);
},
{
closed = 1;
nodes = (
"450 742 LINE",
"450 772 LINE",
"516 783 OFFCURVE",
"547 820 OFFCURVE",
"547 868 CURVE SMOOTH",
"547 933 OFFCURVE",
"492 978 OFFCURVE",
"379 978 CURVE SMOOTH",
"327 978 OFFCURVE",
"280 970 OFFCURVE",
"249 960 CURVE",
"249 876 LINE",
"261 881 OFFCURVE",
"288 886 OFFCURVE",
"311 886 CURVE SMOOTH",
"358 886 OFFCURVE",
"373 871 OFFCURVE",
"373 853 CURVE SMOOTH",
"373 825 OFFCURVE",
"339 814 OFFCURVE",
"284 814 CURVE",
"284 742 LINE"
);
}
);
width = 902;
}
);
leftKerningGroup = U;
note = Uhornhookabove;
rightKerningGroup = U;
unicode = 1EEC;
},
{
glyphname = Uhorntilde;
lastChange = "2015-11-30 02:19:03 +0000";
layers = (
{
layerId = "13D241F5-3870-466E-AD79-DAA9175309D3";
name = Bold;
paths = (
{
closed = 1;
nodes = (
"577 -15 OFFCURVE",
"676 116 OFFCURVE",
"676 293 CURVE SMOOTH",
"676 506 LINE",
"838 506 OFFCURVE",
"902 591 OFFCURVE",
"902 702 CURVE SMOOTH",
"902 747 LINE",
"754 747 LINE",
"754 713 LINE SMOOTH",
"754 656 OFFCURVE",
"739 632 OFFCURVE",
"676 632 CURVE",
"676 699 LINE",
"490 699 LINE",
"490 296 LINE SMOOTH",
"490 201 OFFCURVE",
"444 154 OFFCURVE",
"358 154 CURVE SMOOTH",
"272 154 OFFCURVE",
"225 201 OFFCURVE",
"225 296 CURVE SMOOTH",
"225 699 LINE",
"40 699 LINE",
"40 293 LINE SMOOTH",
"40 116 OFFCURVE",
"139 -15 OFFCURVE",
"358 -15 CURVE SMOOTH"
);
},
{
closed = 1;
nodes = (
"211 778 OFFCURVE",
"247 792 OFFCURVE",
"287 792 CURVE SMOOTH",
"351 792 OFFCURVE",
"415 742 OFFCURVE",
"488 742 CURVE SMOOTH",
"533 742 OFFCURVE",
"570 753 OFFCURVE",
"595 783 CURVE",
"595 923 LINE",
"565 888 OFFCURVE",
"529 874 OFFCURVE",
"488 874 CURVE SMOOTH",
"423 874 OFFCURVE",
"355 924 OFFCURVE",
"287 924 CURVE SMOOTH",
"243 924 OFFCURVE",
"205 912 OFFCURVE",
"180 883 CURVE",
"180 742 LINE"
);
}
);
width = 902;
}
);
leftKerningGroup = U;
note = Uhorntilde;
rightKerningGroup = U;
unicode = 1EEE;
},
{
glyphname = Uhungarumlaut;
lastChange = "2015-11-30 02:19:02 +0000";
layers = (
{
layerId = "13D241F5-3870-466E-AD79-DAA9175309D3";
name = Bold;
paths = (
{
closed = 1;
nodes = (
"589 -15 OFFCURVE",
"689 123 OFFCURVE",
"689 304 CURVE SMOOTH",
"689 699 LINE",
"482 699 LINE",
"482 306 LINE SMOOTH",
"482 220 OFFCURVE",
"441 176 OFFCURVE",
"362 176 CURVE SMOOTH",
"284 176 OFFCURVE",
"242 220 OFFCURVE",
"242 306 CURVE SMOOTH",
"242 699 LINE",
"35 699 LINE",
"35 304 LINE SMOOTH",
"35 123 OFFCURVE",
"135 -15 OFFCURVE",
"362 -15 CURVE SMOOTH"
);
},
{
closed = 1;
nodes = (
"317 741 LINE",
"410 920 LINE",
"216 920 LINE",
"148 741 LINE"
);
},
{
closed = 1;
nodes = (
"583 741 LINE",
"675 920 LINE",
"482 920 LINE",
"414 741 LINE"
);
}
);
width = 724;
}
);
leftKerningGroup = U;
note = Uhungarumlaut;
rightKerningGroup = U;
unicode = 0170;
},
{
glyphname = Umacron;
lastChange = "2015-11-30 02:19:03 +0000";
layers = (
{
layerId = "13D241F5-3870-466E-AD79-DAA9175309D3";
name = Bold;
paths = (
{
closed = 1;
nodes = (
"589 -15 OFFCURVE",
"689 123 OFFCURVE",
"689 304 CURVE SMOOTH",
"689 699 LINE",
"482 699 LINE",
"482 306 LINE SMOOTH",
"482 220 OFFCURVE",
"441 176 OFFCURVE",
"362 176 CURVE SMOOTH",
"284 176 OFFCURVE",
"242 220 OFFCURVE",
"242 306 CURVE SMOOTH",
"242 699 LINE",
"35 699 LINE",
"35 304 LINE SMOOTH",
"35 123 OFFCURVE",
"135 -15 OFFCURVE",
"362 -15 CURVE SMOOTH"
);
},
{
closed = 1;
nodes = (
"546 757 LINE",
"546 875 LINE",
"190 875 LINE",
"190 757 LINE"
);
}
);
width = 724;
}
);
leftKerningGroup = U;
note = Umacron;
rightKerningGroup = U;
unicode = 016A;
},
{
glyphname = Uogonek;
lastChange = "2015-11-30 02:19:03 +0000";
layers = (
{
layerId = "13D241F5-3870-466E-AD79-DAA9175309D3";
name = Bold;
paths = (
{
closed = 1;
nodes = (
"589 -15 OFFCURVE",
"689 123 OFFCURVE",
"689 304 CURVE SMOOTH",
"689 699 LINE",
"482 699 LINE",
"482 306 LINE SMOOTH",
"482 220 OFFCURVE",
"441 176 OFFCURVE",
"362 176 CURVE SMOOTH",
"284 176 OFFCURVE",
"242 220 OFFCURVE",
"242 306 CURVE SMOOTH",
"242 699 LINE",
"35 699 LINE",
"35 304 LINE SMOOTH",
"35 123 OFFCURVE",
"135 -15 OFFCURVE",
"362 -15 CURVE SMOOTH"
);
},
{
closed = 1;
nodes = (
"398 -218 OFFCURVE",
"442 -211 OFFCURVE",
"471 -202 CURVE",
"471 -94 LINE",
"455 -102 OFFCURVE",
"438 -106 OFFCURVE",
"422 -106 CURVE SMOOTH",
"403 -106 OFFCURVE",
"392 -95 OFFCURVE",
"392 -78 CURVE SMOOTH",
"392 -50 OFFCURVE",
"416 -28 OFFCURVE",
"471 0 CURVE",
"289 0 LINE",
"247 -25 OFFCURVE",
"219 -65 OFFCURVE",
"219 -118 CURVE SMOOTH",
"219 -188 OFFCURVE",
"278 -218 OFFCURVE",
"355 -218 CURVE SMOOTH"
);
}
);
width = 724;
}
);
leftKerningGroup = U;
note = Uogonek;
rightKerningGroup = U;
unicode = 0172;
},
{
glyphname = Uring;
lastChange = "2015-11-30 02:19:02 +0000";
layers = (
{
layerId = "13D241F5-3870-466E-AD79-DAA9175309D3";
name = Bold;
paths = (
{
closed = 1;
nodes = (
"589 -15 OFFCURVE",
"689 123 OFFCURVE",
"689 304 CURVE SMOOTH",
"689 699 LINE",
"482 699 LINE",
"482 306 LINE SMOOTH",
"482 220 OFFCURVE",
"441 176 OFFCURVE",
"362 176 CURVE SMOOTH",
"284 176 OFFCURVE",
"242 220 OFFCURVE",
"242 306 CURVE SMOOTH",
"242 699 LINE",
"35 699 LINE",
"35 304 LINE SMOOTH",
"35 123 OFFCURVE",
"135 -15 OFFCURVE",
"362 -15 CURVE SMOOTH"
);
},
{
closed = 1;
nodes = (
"450 741 OFFCURVE",
"517 805 OFFCURVE",
"517 887 CURVE SMOOTH",
"517 970 OFFCURVE",
"450 1034 OFFCURVE",
"367 1034 CURVE SMOOTH",
"285 1034 OFFCURVE",
"218 970 OFFCURVE",
"218 887 CURVE SMOOTH",
"218 805 OFFCURVE",
"285 741 OFFCURVE",
"367 741 CURVE SMOOTH"
);
},
{
closed = 1;
nodes = (
"339 836 OFFCURVE",
"316 859 OFFCURVE",
"316 887 CURVE SMOOTH",
"316 917 OFFCURVE",
"339 939 OFFCURVE",
"367 939 CURVE SMOOTH",
"397 939 OFFCURVE",
"419 917 OFFCURVE",
"419 887 CURVE SMOOTH",
"419 859 OFFCURVE",
"397 836 OFFCURVE",
"367 836 CURVE SMOOTH"
);
}
);
width = 724;
}
);
leftKerningGroup = U;
note = Uring;
rightKerningGroup = U;
unicode = 016E;
},
{
glyphname = Utilde;
lastChange = "2015-11-30 02:19:03 +0000";
layers = (
{
layerId = "13D241F5-3870-466E-AD79-DAA9175309D3";
name = Bold;
paths = (
{
closed = 1;
nodes = (
"589 -15 OFFCURVE",
"689 123 OFFCURVE",
"689 304 CURVE SMOOTH",
"689 699 LINE",
"482 699 LINE",
"482 306 LINE SMOOTH",
"482 220 OFFCURVE",
"441 176 OFFCURVE",
"362 176 CURVE SMOOTH",
"284 176 OFFCURVE",
"242 220 OFFCURVE",
"242 306 CURVE SMOOTH",
"242 699 LINE",
"35 699 LINE",
"35 304 LINE SMOOTH",
"35 123 OFFCURVE",
"135 -15 OFFCURVE",
"362 -15 CURVE SMOOTH"
);
},
{
closed = 1;
nodes = (
"193 778 OFFCURVE",
"229 792 OFFCURVE",
"269 792 CURVE SMOOTH",
"333 792 OFFCURVE",
"397 742 OFFCURVE",
"470 742 CURVE SMOOTH",
"515 742 OFFCURVE",
"552 753 OFFCURVE",
"577 783 CURVE",
"577 923 LINE",
"547 888 OFFCURVE",
"511 874 OFFCURVE",
"470 874 CURVE SMOOTH",
"405 874 OFFCURVE",
"337 924 OFFCURVE",
"269 924 CURVE SMOOTH",
"225 924 OFFCURVE",
"187 912 OFFCURVE",
"162 883 CURVE",
"162 742 LINE"
);
}
);
width = 724;
}
);
leftKerningGroup = U;
note = Utilde;
rightKerningGroup = U;
unicode = 0168;
},
{
glyphname = V;
lastChange = "2015-11-30 02:19:00 +0000";
layers = (
{
layerId = "13D241F5-3870-466E-AD79-DAA9175309D3";
name = Bold;
paths = (
{
closed = 1;
nodes = (
"499 0 LINE",
"778 699 LINE",
"558 699 LINE",
"399 278 LINE",
"241 699 LINE",
"20 699 LINE",
"300 0 LINE"
);
}
);
width = 798;
}
);
note = V;
unicode = 0056;
},
{
glyphname = W;
lastChange = "2015-11-30 02:19:00 +0000";
layers = (
{
layerId = "13D241F5-3870-466E-AD79-DAA9175309D3";
name = Bold;
paths = (
{
closed = 1;
nodes = (
"400 0 LINE",
"495 371 LINE",
"590 0 LINE",
"784 0 LINE",
"970 699 LINE",
"755 699 LINE",
"659 332 LINE",
"574 699 LINE",
"424 699 LINE",
"331 333 LINE",
"234 699 LINE",
"20 699 LINE",
"206 0 LINE"
);
}
);
width = 990;
}
);
leftKerningGroup = W;
note = W;
rightKerningGroup = W;
unicode = 0057;
},
{
glyphname = Wacute;
lastChange = "2015-11-30 02:19:03 +0000";
layers = (
{
layerId = "13D241F5-3870-466E-AD79-DAA9175309D3";
name = Bold;
paths = (
{
closed = 1;
nodes = (
"400 0 LINE",
"495 371 LINE",
"590 0 LINE",
"784 0 LINE",
"970 699 LINE",
"755 699 LINE",
"659 332 LINE",
"574 699 LINE",
"424 699 LINE",
"331 333 LINE",
"234 699 LINE",
"20 699 LINE",
"206 0 LINE"
);
},
{
closed = 1;
nodes = (
"592 737 LINE",
"685 917 LINE",
"484 917 LINE",
"415 737 LINE"
);
}
);
width = 990;
}
);
leftKerningGroup = W;
note = Wacute;
rightKerningGroup = W;
unicode = 1E82;
},
{
glyphname = Wcircumflex;
lastChange = "2015-11-30 02:19:03 +0000";
layers = (
{
layerId = "13D241F5-3870-466E-AD79-DAA9175309D3";
name = Bold;
paths = (
{
closed = 1;
nodes = (
"400 0 LINE",
"495 371 LINE",
"590 0 LINE",
"784 0 LINE",
"970 699 LINE",
"755 699 LINE",
"659 332 LINE",
"574 699 LINE",
"424 699 LINE",
"331 333 LINE",
"234 699 LINE",
"20 699 LINE",
"206 0 LINE"
);
},
{
closed = 1;
nodes = (
"443 748 LINE",
"501 819 LINE",
"559 748 LINE",
"731 748 LINE",
"583 920 LINE",
"418 920 LINE",
"270 748 LINE"
);
}
);
width = 990;
}
);
leftKerningGroup = W;
note = Wcircumflex;
rightKerningGroup = W;
unicode = 0174;
},
{
glyphname = Wdieresis;
lastChange = "2015-11-30 02:19:03 +0000";
layers = (
{
layerId = "13D241F5-3870-466E-AD79-DAA9175309D3";
name = Bold;
paths = (
{
closed = 1;
nodes = (
"400 0 LINE",
"495 371 LINE",
"590 0 LINE",
"784 0 LINE",
"970 699 LINE",
"755 699 LINE",
"659 332 LINE",
"574 699 LINE",
"424 699 LINE",
"331 333 LINE",
"234 699 LINE",
"20 699 LINE",
"206 0 LINE"
);
},
{
closed = 1;
nodes = (
"429 742 OFFCURVE",
"466 777 OFFCURVE",
"466 823 CURVE SMOOTH",
"466 869 OFFCURVE",
"429 906 OFFCURVE",
"384 906 CURVE SMOOTH",
"340 906 OFFCURVE",
"301 869 OFFCURVE",
"301 823 CURVE SMOOTH",
"301 777 OFFCURVE",
"340 742 OFFCURVE",
"384 742 CURVE SMOOTH"
);
},
{
closed = 1;
nodes = (
"664 742 OFFCURVE",
"701 777 OFFCURVE",
"701 823 CURVE SMOOTH",
"701 869 OFFCURVE",
"664 906 OFFCURVE",
"620 906 CURVE SMOOTH",
"575 906 OFFCURVE",
"537 869 OFFCURVE",
"537 823 CURVE SMOOTH",
"537 777 OFFCURVE",
"575 742 OFFCURVE",
"620 742 CURVE SMOOTH"
);
}
);
width = 990;
}
);
leftKerningGroup = W;
note = Wdieresis;
rightKerningGroup = W;
unicode = 1E84;
},
{
glyphname = Wgrave;
lastChange = "2015-11-30 02:19:02 +0000";
layers = (
{
layerId = "13D241F5-3870-466E-AD79-DAA9175309D3";
name = Bold;
paths = (
{
closed = 1;
nodes = (
"400 0 LINE",
"495 371 LINE",
"590 0 LINE",
"784 0 LINE",
"970 699 LINE",
"755 699 LINE",
"659 332 LINE",
"574 699 LINE",
"424 699 LINE",
"331 333 LINE",
"234 699 LINE",
"20 699 LINE",
"206 0 LINE"
);
},
{
closed = 1;
nodes = (
"590 737 LINE",
"521 917 LINE",
"320 917 LINE",
"413 737 LINE"
);
}
);
width = 990;
}
);
leftKerningGroup = W;
note = Wgrave;
rightKerningGroup = W;
unicode = 1E80;
},
{
glyphname = X;
lastChange = "2015-11-30 02:19:00 +0000";
layers = (
{
layerId = "13D241F5-3870-466E-AD79-DAA9175309D3";
name = Bold;
paths = (
{
closed = 1;
nodes = (
"257 0 LINE",
"391 186 LINE",
"525 0 LINE",
"762 0 LINE",
"510 351 LINE",
"760 699 LINE",
"523 699 LINE",
"391 516 LINE",
"260 699 LINE",
"23 699 LINE",
"273 351 LINE",
"20 0 LINE"
);
}
);
width = 782;
}
);
note = X;
unicode = 0058;
},
{
glyphname = Y;
lastChange = "2015-11-30 02:19:00 +0000";
layers = (
{
layerId = "13D241F5-3870-466E-AD79-DAA9175309D3";
name = Bold;
paths = (
{
closed = 1;
nodes = (
"482 0 LINE",
"482 266 LINE",
"746 699 LINE",
"526 699 LINE",
"379 458 LINE",
"241 699 LINE",
"20 699 LINE",
"275 266 LINE",
"275 0 LINE"
);
}
);
width = 766;
}
);
leftKerningGroup = Y;
note = Y;
rightKerningGroup = Y;
unicode = 0059;
},
{
glyphname = Yacute;
lastChange = "2015-11-30 02:19:03 +0000";
layers = (
{
layerId = "13D241F5-3870-466E-AD79-DAA9175309D3";
name = Bold;
paths = (
{
closed = 1;
nodes = (
"482 0 LINE",
"482 266 LINE",
"746 699 LINE",
"526 699 LINE",
"379 458 LINE",
"241 699 LINE",
"20 699 LINE",
"275 266 LINE",
"275 0 LINE"
);
},
{
closed = 1;
nodes = (
"469 743 LINE",
"562 923 LINE",
"361 923 LINE",
"292 743 LINE"
);
}
);
width = 766;
}
);
leftKerningGroup = Y;
note = Yacute;
rightKerningGroup = Y;
unicode = 00DD;
},
{
glyphname = Ycircumflex;
lastChange = "2015-11-30 02:19:02 +0000";
layers = (
{
layerId = "13D241F5-3870-466E-AD79-DAA9175309D3";
name = Bold;
paths = (
{
closed = 1;
nodes = (
"482 0 LINE",
"482 266 LINE",
"746 699 LINE",
"526 699 LINE",
"379 458 LINE",
"241 699 LINE",
"20 699 LINE",
"275 266 LINE",
"275 0 LINE"
);
},
{
closed = 1;
nodes = (
"327 748 LINE",
"385 819 LINE",
"443 748 LINE",
"615 748 LINE",
"467 920 LINE",
"302 920 LINE",
"154 748 LINE"
);
}
);
width = 766;
}
);
leftKerningGroup = Y;
note = Ycircumflex;
rightKerningGroup = Y;
unicode = 0176;
},
{
glyphname = Ydieresis;
lastChange = "2015-11-30 02:19:02 +0000";
layers = (
{
layerId = "13D241F5-3870-466E-AD79-DAA9175309D3";
name = Bold;
paths = (
{
closed = 1;
nodes = (
"482 0 LINE",
"482 266 LINE",
"746 699 LINE",
"526 699 LINE",
"379 458 LINE",
"241 699 LINE",
"20 699 LINE",
"275 266 LINE",
"275 0 LINE"
);
},
{
closed = 1;
nodes = (
"307 747 OFFCURVE",
"344 782 OFFCURVE",
"344 828 CURVE SMOOTH",
"344 874 OFFCURVE",
"307 911 OFFCURVE",
"262 911 CURVE SMOOTH",
"218 911 OFFCURVE",
"179 874 OFFCURVE",
"179 828 CURVE SMOOTH",
"179 782 OFFCURVE",
"218 747 OFFCURVE",
"262 747 CURVE SMOOTH"
);
},
{
closed = 1;
nodes = (
"542 747 OFFCURVE",
"579 782 OFFCURVE",
"579 828 CURVE SMOOTH",
"579 874 OFFCURVE",
"542 911 OFFCURVE",
"498 911 CURVE SMOOTH",
"453 911 OFFCURVE",
"415 874 OFFCURVE",
"415 828 CURVE SMOOTH",
"415 782 OFFCURVE",
"453 747 OFFCURVE",
"498 747 CURVE SMOOTH"
);
}
);
width = 766;
}
);
leftKerningGroup = Y;
note = Ydieresis;
rightKerningGroup = Y;
unicode = 0178;
},
{
glyphname = Ydotaccent;
lastChange = "2015-11-30 02:19:03 +0000";
layers = (
{
layerId = "13D241F5-3870-466E-AD79-DAA9175309D3";
name = Bold;
paths = (
{
closed = 1;
nodes = (
"482 0 LINE",
"482 266 LINE",
"746 699 LINE",
"526 699 LINE",
"379 458 LINE",
"241 699 LINE",
"20 699 LINE",
"275 266 LINE",
"275 0 LINE"
);
},
{
closed = 1;
nodes = (
"426 742 OFFCURVE",
"462 777 OFFCURVE",
"462 823 CURVE SMOOTH",
"462 869 OFFCURVE",
"426 906 OFFCURVE",
"381 906 CURVE SMOOTH",
"336 906 OFFCURVE",
"298 869 OFFCURVE",
"298 823 CURVE SMOOTH",
"298 777 OFFCURVE",
"336 742 OFFCURVE",
"381 742 CURVE SMOOTH"
);
}
);
width = 766;
}
);
leftKerningGroup = Y;
note = Ydotaccent;
rightKerningGroup = Y;
unicode = 1E8E;
},
{
glyphname = Ydotbelow;
lastChange = "2015-11-30 02:19:03 +0000";
layers = (
{
layerId = "13D241F5-3870-466E-AD79-DAA9175309D3";
name = Bold;
paths = (
{
closed = 1;
nodes = (
"482 0 LINE",
"482 266 LINE",
"746 699 LINE",
"526 699 LINE",
"379 458 LINE",
"241 699 LINE",
"20 699 LINE",
"275 266 LINE",
"275 0 LINE"
);
},
{
closed = 1;
nodes = (
"431 -210 OFFCURVE",
"467 -174 OFFCURVE",
"467 -128 CURVE SMOOTH",
"467 -82 OFFCURVE",
"431 -46 OFFCURVE",
"386 -46 CURVE SMOOTH",
"341 -46 OFFCURVE",
"303 -82 OFFCURVE",
"303 -128 CURVE SMOOTH",
"303 -174 OFFCURVE",
"341 -210 OFFCURVE",
"386 -210 CURVE SMOOTH"
);
}
);
width = 766;
}
);
leftKerningGroup = Y;
note = Ydotbelow;
rightKerningGroup = Y;
unicode = 1EF4;
},
{
glyphname = Ygrave;
lastChange = "2015-11-30 02:19:03 +0000";
layers = (
{
layerId = "13D241F5-3870-466E-AD79-DAA9175309D3";
name = Bold;
paths = (
{
closed = 1;
nodes = (
"482 0 LINE",
"482 266 LINE",
"746 699 LINE",
"526 699 LINE",
"379 458 LINE",
"241 699 LINE",
"20 699 LINE",
"275 266 LINE",
"275 0 LINE"
);
},
{
closed = 1;
nodes = (
"474 737 LINE",
"405 917 LINE",
"204 917 LINE",
"297 737 LINE"
);
}
);
width = 766;
}
);
leftKerningGroup = Y;
note = Ygrave;
rightKerningGroup = Y;
unicode = 1EF2;
},
{
glyphname = Yhookabove;
lastChange = "2015-11-30 02:19:02 +0000";
layers = (
{
layerId = "13D241F5-3870-466E-AD79-DAA9175309D3";
name = Bold;
paths = (
{
closed = 1;
nodes = (
"482 0 LINE",
"482 266 LINE",
"746 699 LINE",
"526 699 LINE",
"379 458 LINE",
"241 699 LINE",
"20 699 LINE",
"275 266 LINE",
"275 0 LINE"
);
},
{
closed = 1;
nodes = (
"461 742 LINE",
"461 772 LINE",
"527 783 OFFCURVE",
"558 820 OFFCURVE",
"558 868 CURVE SMOOTH",
"558 933 OFFCURVE",
"503 978 OFFCURVE",
"390 978 CURVE SMOOTH",
"338 978 OFFCURVE",
"291 970 OFFCURVE",
"260 960 CURVE",
"260 876 LINE",
"272 881 OFFCURVE",
"299 886 OFFCURVE",
"322 886 CURVE SMOOTH",
"369 886 OFFCURVE",
"384 871 OFFCURVE",
"384 853 CURVE SMOOTH",
"384 825 OFFCURVE",
"350 814 OFFCURVE",
"295 814 CURVE",
"295 742 LINE"
);
}
);
width = 766;
}
);
leftKerningGroup = Y;
note = Yhookabove;
rightKerningGroup = Y;
unicode = 1EF6;
},
{
glyphname = Ytilde;
lastChange = "2015-11-30 02:19:03 +0000";
layers = (
{
layerId = "13D241F5-3870-466E-AD79-DAA9175309D3";
name = Bold;
paths = (
{
closed = 1;
nodes = (
"482 0 LINE",
"482 266 LINE",
"746 699 LINE",
"526 699 LINE",
"379 458 LINE",
"241 699 LINE",
"20 699 LINE",
"275 266 LINE",
"275 0 LINE"
);
},
{
closed = 1;
nodes = (
"203 778 OFFCURVE",
"239 792 OFFCURVE",
"279 792 CURVE SMOOTH",
"343 792 OFFCURVE",
"407 742 OFFCURVE",
"480 742 CURVE SMOOTH",
"525 742 OFFCURVE",
"562 753 OFFCURVE",
"587 783 CURVE",
"587 923 LINE",
"557 888 OFFCURVE",
"521 874 OFFCURVE",
"480 874 CURVE SMOOTH",
"415 874 OFFCURVE",
"347 924 OFFCURVE",
"279 924 CURVE SMOOTH",
"235 924 OFFCURVE",
"197 912 OFFCURVE",
"172 883 CURVE",
"172 742 LINE"
);
}
);
width = 766;
}
);
leftKerningGroup = Y;
note = Ytilde;
rightKerningGroup = Y;
unicode = 1EF8;
},
{
glyphname = Z;
lastChange = "2015-11-30 02:19:00 +0000";
layers = (
{
layerId = "13D241F5-3870-466E-AD79-DAA9175309D3";
name = Bold;
paths = (
{
closed = 1;
nodes = (
"591 0 LINE",
"591 174 LINE",
"277 174 LINE",
"568 562 LINE",
"568 699 LINE",
"27 699 LINE",
"27 525 LINE",
"312 525 LINE",
"20 136 LINE",
"20 0 LINE"
);
}
);
width = 611;
}
);
leftKerningGroup = Z;
note = Z;
rightKerningGroup = Z;
unicode = 005A;
},
{
glyphname = Zacute;
lastChange = "2015-11-30 02:19:03 +0000";
layers = (
{
layerId = "13D241F5-3870-466E-AD79-DAA9175309D3";
name = Bold;
paths = (
{
closed = 1;
nodes = (
"591 0 LINE",
"591 174 LINE",
"277 174 LINE",
"568 562 LINE",
"568 699 LINE",
"27 699 LINE",
"27 525 LINE",
"312 525 LINE",
"20 136 LINE",
"20 0 LINE"
);
},
{
closed = 1;
nodes = (
"371 737 LINE",
"464 917 LINE",
"263 917 LINE",
"194 737 LINE"
);
}
);
width = 611;
}
);
leftKerningGroup = Z;
note = Zacute;
rightKerningGroup = Z;
unicode = 0179;
},
{
glyphname = Zcaron;
lastChange = "2015-11-30 02:19:03 +0000";
layers = (
{
layerId = "13D241F5-3870-466E-AD79-DAA9175309D3";
name = Bold;
paths = (
{
closed = 1;
nodes = (
"591 0 LINE",
"591 174 LINE",
"277 174 LINE",
"568 562 LINE",
"568 699 LINE",
"27 699 LINE",
"27 525 LINE",
"312 525 LINE",
"20 136 LINE",
"20 0 LINE"
);
},
{
closed = 1;
nodes = (
"387 748 LINE",
"535 920 LINE",
"363 920 LINE",
"305 849 LINE",
"247 920 LINE",
"74 920 LINE",
"222 748 LINE"
);
}
);
width = 611;
}
);
leftKerningGroup = Z;
note = Zcaron;
rightKerningGroup = Z;
unicode = 017D;
},
{
glyphname = Zdotaccent;
lastChange = "2015-11-30 02:19:02 +0000";
layers = (
{
layerId = "13D241F5-3870-466E-AD79-DAA9175309D3";
name = Bold;
paths = (
{
closed = 1;
nodes = (
"591 0 LINE",
"591 174 LINE",
"277 174 LINE",
"568 562 LINE",
"568 699 LINE",
"27 699 LINE",
"27 525 LINE",
"312 525 LINE",
"20 136 LINE",
"20 0 LINE"
);
},
{
closed = 1;
nodes = (
"348 742 OFFCURVE",
"384 777 OFFCURVE",
"384 823 CURVE SMOOTH",
"384 869 OFFCURVE",
"348 906 OFFCURVE",
"303 906 CURVE SMOOTH",
"258 906 OFFCURVE",
"220 869 OFFCURVE",
"220 823 CURVE SMOOTH",
"220 777 OFFCURVE",
"258 742 OFFCURVE",
"303 742 CURVE SMOOTH"
);
}
);
width = 611;
}
);
leftKerningGroup = Z;
note = Zdotaccent;
rightKerningGroup = Z;
unicode = 017B;
},
{
glyphname = Zdotbelow;
lastChange = "2015-11-30 02:19:02 +0000";
layers = (
{
layerId = "13D241F5-3870-466E-AD79-DAA9175309D3";
name = Bold;
paths = (
{
closed = 1;
nodes = (
"591 0 LINE",
"591 174 LINE",
"277 174 LINE",
"568 562 LINE",
"568 699 LINE",
"27 699 LINE",
"27 525 LINE",
"312 525 LINE",
"20 136 LINE",
"20 0 LINE"
);
},
{
closed = 1;
nodes = (
"342 -210 OFFCURVE",
"378 -174 OFFCURVE",
"378 -128 CURVE SMOOTH",
"378 -82 OFFCURVE",
"342 -46 OFFCURVE",
"297 -46 CURVE SMOOTH",
"252 -46 OFFCURVE",
"214 -82 OFFCURVE",
"214 -128 CURVE SMOOTH",
"214 -174 OFFCURVE",
"252 -210 OFFCURVE",
"297 -210 CURVE SMOOTH"
);
}
);
width = 611;
}
);
leftKerningGroup = Z;
note = Zdotbelow;
rightKerningGroup = Z;
unicode = 1E92;
},
{
glyphname = a;
lastChange = "2015-11-30 02:19:03 +0000";
layers = (
{
layerId = "13D241F5-3870-466E-AD79-DAA9175309D3";
name = Bold;
paths = (
{
closed = 1;
nodes = (
"293 -15 OFFCURVE",
"351 8 OFFCURVE",
"382 38 CURVE",
"382 0 LINE",
"571 0 LINE",
"571 292 LINE SMOOTH",
"571 419 OFFCURVE",
"474 495 OFFCURVE",
"286 495 CURVE SMOOTH",
"203 495 OFFCURVE",
"129 480 OFFCURVE",
"87 460 CURVE",
"87 328 LINE",
"133 350 OFFCURVE",
"188 363 OFFCURVE",
"247 363 CURVE SMOOTH",
"324 363 OFFCURVE",
"370 340 OFFCURVE",
"370 296 CURVE SMOOTH",
"370 287 LINE",
"336 303 OFFCURVE",
"281 315 OFFCURVE",
"231 315 CURVE SMOOTH",
"93 315 OFFCURVE",
"20 256 OFFCURVE",
"20 149 CURVE SMOOTH",
"20 40 OFFCURVE",
"105 -15 OFFCURVE",
"223 -15 CURVE SMOOTH"
);
},
{
closed = 1;
nodes = (
"247 101 OFFCURVE",
"227 120 OFFCURVE",
"227 149 CURVE SMOOTH",
"227 180 OFFCURVE",
"248 198 OFFCURVE",
"286 198 CURVE SMOOTH",
"318 198 OFFCURVE",
"347 189 OFFCURVE",
"370 174 CURVE",
"370 137 LINE",
"354 116 OFFCURVE",
"321 101 OFFCURVE",
"285 101 CURVE SMOOTH"
);
}
);
width = 606;
}
);
leftKerningGroup = a;
note = a;
rightKerningGroup = a;
unicode = 0061;
},
{
glyphname = aacute;
lastChange = "2015-11-30 02:19:02 +0000";
layers = (
{
layerId = "13D241F5-3870-466E-AD79-DAA9175309D3";
name = Bold;
paths = (
{
closed = 1;
nodes = (
"263 -15 OFFCURVE",
"321 8 OFFCURVE",
"352 38 CURVE",
"352 0 LINE",
"541 0 LINE",
"541 292 LINE SMOOTH",
"541 419 OFFCURVE",
"444 495 OFFCURVE",
"256 495 CURVE SMOOTH",
"173 495 OFFCURVE",
"99 480 OFFCURVE",
"57 460 CURVE",
"57 328 LINE",
"103 350 OFFCURVE",
"158 363 OFFCURVE",
"217 363 CURVE SMOOTH",
"294 363 OFFCURVE",
"340 340 OFFCURVE",
"340 296 CURVE SMOOTH",
"340 287 LINE",
"306 303 OFFCURVE",
"251 315 OFFCURVE",
"201 315 CURVE SMOOTH",
"63 315 OFFCURVE",
"-10 256 OFFCURVE",
"-10 149 CURVE SMOOTH",
"-10 40 OFFCURVE",
"75 -15 OFFCURVE",
"193 -15 CURVE SMOOTH"
);
},
{
closed = 1;
nodes = (
"217 101 OFFCURVE",
"197 120 OFFCURVE",
"197 149 CURVE SMOOTH",
"197 180 OFFCURVE",
"218 198 OFFCURVE",
"256 198 CURVE SMOOTH",
"288 198 OFFCURVE",
"317 189 OFFCURVE",
"340 174 CURVE",
"340 137 LINE",
"324 116 OFFCURVE",
"291 101 OFFCURVE",
"255 101 CURVE SMOOTH"
);
},
{
closed = 1;
nodes = (
"394 517 LINE",
"487 697 LINE",
"286 697 LINE",
"217 517 LINE"
);
}
);
width = 606;
}
);
leftKerningGroup = a;
note = aacute;
rightKerningGroup = a;
unicode = 00E1;
},
{
glyphname = abreve;
lastChange = "2015-11-30 02:19:02 +0000";
layers = (
{
layerId = "13D241F5-3870-466E-AD79-DAA9175309D3";
name = Bold;
paths = (
{
closed = 1;
nodes = (
"263 -15 OFFCURVE",
"321 8 OFFCURVE",
"352 38 CURVE",
"352 0 LINE",
"541 0 LINE",
"541 292 LINE SMOOTH",
"541 419 OFFCURVE",
"444 495 OFFCURVE",
"256 495 CURVE SMOOTH",
"173 495 OFFCURVE",
"99 480 OFFCURVE",
"57 460 CURVE",
"57 328 LINE",
"103 350 OFFCURVE",
"158 363 OFFCURVE",
"217 363 CURVE SMOOTH",
"294 363 OFFCURVE",
"340 340 OFFCURVE",
"340 296 CURVE SMOOTH",
"340 287 LINE",
"306 303 OFFCURVE",
"251 315 OFFCURVE",
"201 315 CURVE SMOOTH",
"63 315 OFFCURVE",
"-10 256 OFFCURVE",
"-10 149 CURVE SMOOTH",
"-10 40 OFFCURVE",
"75 -15 OFFCURVE",
"193 -15 CURVE SMOOTH"
);
},
{
closed = 1;
nodes = (
"217 101 OFFCURVE",
"197 120 OFFCURVE",
"197 149 CURVE SMOOTH",
"197 180 OFFCURVE",
"218 198 OFFCURVE",
"256 198 CURVE SMOOTH",
"288 198 OFFCURVE",
"317 189 OFFCURVE",
"340 174 CURVE",
"340 137 LINE",
"324 116 OFFCURVE",
"291 101 OFFCURVE",
"255 101 CURVE SMOOTH"
);
},
{
closed = 1;
nodes = (
"452 521 OFFCURVE",
"521 592 OFFCURVE",
"521 705 CURVE",
"372 705 LINE",
"372 665 OFFCURVE",
"356 645 OFFCURVE",
"327 645 CURVE SMOOTH",
"297 645 OFFCURVE",
"282 665 OFFCURVE",
"282 705 CURVE",
"133 705 LINE",
"133 592 OFFCURVE",
"202 521 OFFCURVE",
"327 521 CURVE SMOOTH"
);
}
);
width = 606;
}
);
leftKerningGroup = a;
note = abreve;
rightKerningGroup = a;
unicode = 0103;
},
{
glyphname = abreveacute;
lastChange = "2015-11-30 02:19:03 +0000";
layers = (
{
layerId = "13D241F5-3870-466E-AD79-DAA9175309D3";
name = Bold;
paths = (
{
closed = 1;
nodes = (
"263 -15 OFFCURVE",
"321 8 OFFCURVE",
"352 38 CURVE",
"352 0 LINE",
"541 0 LINE",
"541 292 LINE SMOOTH",
"541 419 OFFCURVE",
"444 495 OFFCURVE",
"256 495 CURVE SMOOTH",
"173 495 OFFCURVE",
"99 480 OFFCURVE",
"57 460 CURVE",
"57 328 LINE",
"103 350 OFFCURVE",
"158 363 OFFCURVE",
"217 363 CURVE SMOOTH",
"294 363 OFFCURVE",
"340 340 OFFCURVE",
"340 296 CURVE SMOOTH",
"340 287 LINE",
"306 303 OFFCURVE",
"251 315 OFFCURVE",
"201 315 CURVE SMOOTH",
"63 315 OFFCURVE",
"-10 256 OFFCURVE",
"-10 149 CURVE SMOOTH",
"-10 40 OFFCURVE",
"75 -15 OFFCURVE",
"193 -15 CURVE SMOOTH"
);
},
{
closed = 1;
nodes = (
"217 101 OFFCURVE",
"197 120 OFFCURVE",
"197 149 CURVE SMOOTH",
"197 180 OFFCURVE",
"218 198 OFFCURVE",
"256 198 CURVE SMOOTH",
"288 198 OFFCURVE",
"317 189 OFFCURVE",
"340 174 CURVE",
"340 137 LINE",
"324 116 OFFCURVE",
"291 101 OFFCURVE",
"255 101 CURVE SMOOTH"
);
},
{
closed = 1;
nodes = (
"426 520 OFFCURVE",
"500 579 OFFCURVE",
"500 676 CURVE",
"373 676 LINE",
"373 641 OFFCURVE",
"355 623 OFFCURVE",
"319 623 CURVE SMOOTH",
"282 623 OFFCURVE",
"264 641 OFFCURVE",
"264 676 CURVE",
"137 676 LINE",
"137 579 OFFCURVE",
"212 520 OFFCURVE",
"319 520 CURVE SMOOTH"
);
},
{
closed = 1;
nodes = (
"389 696 LINE",
"464 830 LINE",
"299 830 LINE",
"247 696 LINE"
);
}
);
width = 606;
}
);
leftKerningGroup = a;
note = abreveacute;
rightKerningGroup = a;
unicode = 1EAF;
},
{
glyphname = abrevedotbelow;
lastChange = "2015-11-30 02:19:03 +0000";
layers = (
{
layerId = "13D241F5-3870-466E-AD79-DAA9175309D3";
name = Bold;
paths = (
{
closed = 1;
nodes = (
"263 -15 OFFCURVE",
"321 8 OFFCURVE",
"352 38 CURVE",
"352 0 LINE",
"541 0 LINE",
"541 292 LINE SMOOTH",
"541 419 OFFCURVE",
"444 495 OFFCURVE",
"256 495 CURVE SMOOTH",
"173 495 OFFCURVE",
"99 480 OFFCURVE",
"57 460 CURVE",
"57 328 LINE",
"103 350 OFFCURVE",
"158 363 OFFCURVE",
"217 363 CURVE SMOOTH",
"294 363 OFFCURVE",
"340 340 OFFCURVE",
"340 296 CURVE SMOOTH",
"340 287 LINE",
"306 303 OFFCURVE",
"251 315 OFFCURVE",
"201 315 CURVE SMOOTH",
"63 315 OFFCURVE",
"-10 256 OFFCURVE",
"-10 149 CURVE SMOOTH",
"-10 40 OFFCURVE",
"75 -15 OFFCURVE",
"193 -15 CURVE SMOOTH"
);
},
{
closed = 1;
nodes = (
"363 -210 OFFCURVE",
"399 -174 OFFCURVE",
"399 -128 CURVE SMOOTH",
"399 -82 OFFCURVE",
"363 -46 OFFCURVE",
"318 -46 CURVE SMOOTH",
"273 -46 OFFCURVE",
"235 -82 OFFCURVE",
"235 -128 CURVE SMOOTH",
"235 -174 OFFCURVE",
"273 -210 OFFCURVE",
"318 -210 CURVE SMOOTH"
);
},
{
closed = 1;
nodes = (
"217 101 OFFCURVE",
"197 120 OFFCURVE",
"197 149 CURVE SMOOTH",
"197 180 OFFCURVE",
"218 198 OFFCURVE",
"256 198 CURVE SMOOTH",
"288 198 OFFCURVE",
"317 189 OFFCURVE",
"340 174 CURVE",
"340 137 LINE",
"324 116 OFFCURVE",
"291 101 OFFCURVE",
"255 101 CURVE SMOOTH"
);
},
{
closed = 1;
nodes = (
"443 521 OFFCURVE",
"512 592 OFFCURVE",
"512 705 CURVE",
"363 705 LINE",
"363 665 OFFCURVE",
"347 645 OFFCURVE",
"318 645 CURVE SMOOTH",
"288 645 OFFCURVE",
"273 665 OFFCURVE",
"273 705 CURVE",
"124 705 LINE",
"124 592 OFFCURVE",
"193 521 OFFCURVE",
"318 521 CURVE SMOOTH"
);
}
);
width = 606;
}
);
leftKerningGroup = a;
note = abrevedotbelow;
rightKerningGroup = a;
unicode = 1EB7;
},
{
glyphname = abrevegrave;
lastChange = "2015-11-30 02:19:02 +0000";
layers = (
{
layerId = "13D241F5-3870-466E-AD79-DAA9175309D3";
name = Bold;
paths = (
{
closed = 1;
nodes = (
"263 -15 OFFCURVE",
"321 8 OFFCURVE",
"352 38 CURVE",
"352 0 LINE",
"541 0 LINE",
"541 292 LINE SMOOTH",
"541 419 OFFCURVE",
"444 495 OFFCURVE",
"256 495 CURVE SMOOTH",
"173 495 OFFCURVE",
"99 480 OFFCURVE",
"57 460 CURVE",
"57 328 LINE",
"103 350 OFFCURVE",
"158 363 OFFCURVE",
"217 363 CURVE SMOOTH",
"294 363 OFFCURVE",
"340 340 OFFCURVE",
"340 296 CURVE SMOOTH",
"340 287 LINE",
"306 303 OFFCURVE",
"251 315 OFFCURVE",
"201 315 CURVE SMOOTH",
"63 315 OFFCURVE",
"-10 256 OFFCURVE",
"-10 149 CURVE SMOOTH",
"-10 40 OFFCURVE",
"75 -15 OFFCURVE",
"193 -15 CURVE SMOOTH"
);
},
{
closed = 1;
nodes = (
"217 101 OFFCURVE",
"197 120 OFFCURVE",
"197 149 CURVE SMOOTH",
"197 180 OFFCURVE",
"218 198 OFFCURVE",
"256 198 CURVE SMOOTH",
"288 198 OFFCURVE",
"317 189 OFFCURVE",
"340 174 CURVE",
"340 137 LINE",
"324 116 OFFCURVE",
"291 101 OFFCURVE",
"255 101 CURVE SMOOTH"
);
},
{
closed = 1;
nodes = (
"432 519 OFFCURVE",
"506 578 OFFCURVE",
"506 675 CURVE",
"379 675 LINE",
"379 640 OFFCURVE",
"361 622 OFFCURVE",
"325 622 CURVE SMOOTH",
"288 622 OFFCURVE",
"271 640 OFFCURVE",
"271 675 CURVE",
"143 675 LINE",
"143 578 OFFCURVE",
"218 519 OFFCURVE",
"325 519 CURVE SMOOTH"
);
},
{
closed = 1;
nodes = (
"397 695 LINE",
"345 829 LINE",
"180 829 LINE",
"254 695 LINE"
);
}
);
width = 606;
}
);
leftKerningGroup = a;
note = abrevegrave;
rightKerningGroup = a;
unicode = 1EB1;
},
{
glyphname = abrevehookabove;
lastChange = "2015-11-30 02:19:02 +0000";
layers = (
{
layerId = "13D241F5-3870-466E-AD79-DAA9175309D3";
name = Bold;
paths = (
{
closed = 1;
nodes = (
"263 -15 OFFCURVE",
"321 8 OFFCURVE",
"352 38 CURVE",
"352 0 LINE",
"541 0 LINE",
"541 292 LINE SMOOTH",
"541 419 OFFCURVE",
"444 495 OFFCURVE",
"256 495 CURVE SMOOTH",
"173 495 OFFCURVE",
"99 480 OFFCURVE",
"57 460 CURVE",
"57 328 LINE",
"103 350 OFFCURVE",
"158 363 OFFCURVE",
"217 363 CURVE SMOOTH",
"294 363 OFFCURVE",
"340 340 OFFCURVE",
"340 296 CURVE SMOOTH",
"340 287 LINE",
"306 303 OFFCURVE",
"251 315 OFFCURVE",
"201 315 CURVE SMOOTH",
"63 315 OFFCURVE",
"-10 256 OFFCURVE",
"-10 149 CURVE SMOOTH",
"-10 40 OFFCURVE",
"75 -15 OFFCURVE",
"193 -15 CURVE SMOOTH"
);
},
{
closed = 1;
nodes = (
"217 101 OFFCURVE",
"197 120 OFFCURVE",
"197 149 CURVE SMOOTH",
"197 180 OFFCURVE",
"218 198 OFFCURVE",
"256 198 CURVE SMOOTH",
"288 198 OFFCURVE",
"317 189 OFFCURVE",
"340 174 CURVE",
"340 137 LINE",
"324 116 OFFCURVE",
"291 101 OFFCURVE",
"255 101 CURVE SMOOTH"
);
},
{
closed = 1;
nodes = (
"429 519 OFFCURVE",
"503 578 OFFCURVE",
"503 675 CURVE",
"376 675 LINE",
"376 640 OFFCURVE",
"358 622 OFFCURVE",
"322 622 CURVE SMOOTH",
"285 622 OFFCURVE",
"268 640 OFFCURVE",
"268 675 CURVE",
"140 675 LINE",
"140 578 OFFCURVE",
"215 519 OFFCURVE",
"322 519 CURVE SMOOTH"
);
},
{
closed = 1;
nodes = (
"387 689 LINE",
"387 709 LINE",
"425 719 OFFCURVE",
"446 741 OFFCURVE",
"446 776 CURVE SMOOTH",
"446 821 OFFCURVE",
"409 851 OFFCURVE",
"332 851 CURVE SMOOTH",
"303 851 OFFCURVE",
"262 846 OFFCURVE",
"240 839 CURVE",
"240 775 LINE",
"247 779 OFFCURVE",
"263 781 OFFCURVE",
"274 781 CURVE SMOOTH",
"300 781 OFFCURVE",
"313 774 OFFCURVE",
"313 760 CURVE SMOOTH",
"313 742 OFFCURVE",
"294 736 OFFCURVE",
"264 736 CURVE",
"264 689 LINE"
);
}
);
width = 606;
}
);
leftKerningGroup = a;
note = abrevehookabove;
rightKerningGroup = a;
unicode = 1EB3;
},
{
glyphname = abrevetilde;
lastChange = "2015-11-30 02:19:03 +0000";
layers = (
{
layerId = "13D241F5-3870-466E-AD79-DAA9175309D3";
name = Bold;
paths = (
{
closed = 1;
nodes = (
"263 -15 OFFCURVE",
"321 8 OFFCURVE",
"352 38 CURVE",
"352 0 LINE",
"541 0 LINE",
"541 292 LINE SMOOTH",
"541 419 OFFCURVE",
"444 495 OFFCURVE",
"256 495 CURVE SMOOTH",
"173 495 OFFCURVE",
"99 480 OFFCURVE",
"57 460 CURVE",
"57 328 LINE",
"103 350 OFFCURVE",
"158 363 OFFCURVE",
"217 363 CURVE SMOOTH",
"294 363 OFFCURVE",
"340 340 OFFCURVE",
"340 296 CURVE SMOOTH",
"340 287 LINE",
"306 303 OFFCURVE",
"251 315 OFFCURVE",
"201 315 CURVE SMOOTH",
"63 315 OFFCURVE",
"-10 256 OFFCURVE",
"-10 149 CURVE SMOOTH",
"-10 40 OFFCURVE",
"75 -15 OFFCURVE",
"193 -15 CURVE SMOOTH"
);
},
{
closed = 1;
nodes = (
"217 101 OFFCURVE",
"197 120 OFFCURVE",
"197 149 CURVE SMOOTH",
"197 180 OFFCURVE",
"218 198 OFFCURVE",
"256 198 CURVE SMOOTH",
"288 198 OFFCURVE",
"317 189 OFFCURVE",
"340 174 CURVE",
"340 137 LINE",
"324 116 OFFCURVE",
"291 101 OFFCURVE",
"255 101 CURVE SMOOTH"
);
},
{
closed = 1;
nodes = (
"432 520 OFFCURVE",
"506 579 OFFCURVE",
"506 676 CURVE",
"379 676 LINE",
"379 641 OFFCURVE",
"361 623 OFFCURVE",
"325 623 CURVE SMOOTH",
"288 623 OFFCURVE",
"271 641 OFFCURVE",
"271 676 CURVE",
"143 676 LINE",
"143 579 OFFCURVE",
"218 520 OFFCURVE",
"325 520 CURVE SMOOTH"
);
},
{
closed = 1;
nodes = (
"442 699 OFFCURVE",
"471 708 OFFCURVE",
"491 731 CURVE",
"491 839 LINE",
"467 811 OFFCURVE",
"438 799 OFFCURVE",
"406 799 CURVE SMOOTH",
"354 799 OFFCURVE",
"297 840 OFFCURVE",
"243 840 CURVE SMOOTH",
"207 840 OFFCURVE",
"178 830 OFFCURVE",
"158 807 CURVE",
"158 700 LINE",
"182 728 OFFCURVE",
"211 740 OFFCURVE",
"243 740 CURVE SMOOTH",
"294 740 OFFCURVE",
"348 699 OFFCURVE",
"406 699 CURVE SMOOTH"
);
}
);
width = 606;
}
);
leftKerningGroup = a;
note = abrevetilde;
rightKerningGroup = a;
unicode = 1EB5;
},
{
glyphname = acaron;
lastChange = "2015-11-30 02:19:02 +0000";
layers = (
{
layerId = "13D241F5-3870-466E-AD79-DAA9175309D3";
name = Bold;
paths = (
{
closed = 1;
nodes = (
"263 -15 OFFCURVE",
"321 8 OFFCURVE",
"352 38 CURVE",
"352 0 LINE",
"541 0 LINE",
"541 292 LINE SMOOTH",
"541 419 OFFCURVE",
"444 495 OFFCURVE",
"256 495 CURVE SMOOTH",
"173 495 OFFCURVE",
"99 480 OFFCURVE",
"57 460 CURVE",
"57 328 LINE",
"103 350 OFFCURVE",
"158 363 OFFCURVE",
"217 363 CURVE SMOOTH",
"294 363 OFFCURVE",
"340 340 OFFCURVE",
"340 296 CURVE SMOOTH",
"340 287 LINE",
"306 303 OFFCURVE",
"251 315 OFFCURVE",
"201 315 CURVE SMOOTH",
"63 315 OFFCURVE",
"-10 256 OFFCURVE",
"-10 149 CURVE SMOOTH",
"-10 40 OFFCURVE",
"75 -15 OFFCURVE",
"193 -15 CURVE SMOOTH"
);
},
{
closed = 1;
nodes = (
"217 101 OFFCURVE",
"197 120 OFFCURVE",
"197 149 CURVE SMOOTH",
"197 180 OFFCURVE",
"218 198 OFFCURVE",
"256 198 CURVE SMOOTH",
"288 198 OFFCURVE",
"317 189 OFFCURVE",
"340 174 CURVE",
"340 137 LINE",
"324 116 OFFCURVE",
"291 101 OFFCURVE",
"255 101 CURVE SMOOTH"
);
},
{
closed = 1;
nodes = (
"417 528 LINE",
"565 700 LINE",
"393 700 LINE",
"335 629 LINE",
"277 700 LINE",
"104 700 LINE",
"252 528 LINE"
);
}
);
width = 620;
}
);
leftKerningGroup = a;
note = acaron;
rightKerningGroup = a;
unicode = 01CE;
},
{
glyphname = acircumflex;
lastChange = "2015-11-30 02:19:02 +0000";
layers = (
{
layerId = "13D241F5-3870-466E-AD79-DAA9175309D3";
name = Bold;
paths = (
{
closed = 1;
nodes = (
"263 -15 OFFCURVE",
"321 8 OFFCURVE",
"352 38 CURVE",
"352 0 LINE",
"541 0 LINE",
"541 292 LINE SMOOTH",
"541 419 OFFCURVE",
"444 495 OFFCURVE",
"256 495 CURVE SMOOTH",
"173 495 OFFCURVE",
"99 480 OFFCURVE",
"57 460 CURVE",
"57 328 LINE",
"103 350 OFFCURVE",
"158 363 OFFCURVE",
"217 363 CURVE SMOOTH",
"294 363 OFFCURVE",
"340 340 OFFCURVE",
"340 296 CURVE SMOOTH",
"340 287 LINE",
"306 303 OFFCURVE",
"251 315 OFFCURVE",
"201 315 CURVE SMOOTH",
"63 315 OFFCURVE",
"-10 256 OFFCURVE",
"-10 149 CURVE SMOOTH",
"-10 40 OFFCURVE",
"75 -15 OFFCURVE",
"193 -15 CURVE SMOOTH"
);
},
{
closed = 1;
nodes = (
"217 101 OFFCURVE",
"197 120 OFFCURVE",
"197 149 CURVE SMOOTH",
"197 180 OFFCURVE",
"218 198 OFFCURVE",
"256 198 CURVE SMOOTH",
"288 198 OFFCURVE",
"317 189 OFFCURVE",
"340 174 CURVE",
"340 137 LINE",
"324 116 OFFCURVE",
"291 101 OFFCURVE",
"255 101 CURVE SMOOTH"
);
},
{
closed = 1;
nodes = (
"263 528 LINE",
"321 599 LINE",
"379 528 LINE",
"551 528 LINE",
"403 700 LINE",
"238 700 LINE",
"90 528 LINE"
);
}
);
width = 606;
}
);
leftKerningGroup = a;
note = acircumflex;
rightKerningGroup = a;
unicode = 00E2;
},
{
glyphname = acircumflexacute;
lastChange = "2015-11-30 02:19:03 +0000";
layers = (
{
layerId = "13D241F5-3870-466E-AD79-DAA9175309D3";
name = Bold;
paths = (
{
closed = 1;
nodes = (
"263 -15 OFFCURVE",
"321 8 OFFCURVE",
"352 38 CURVE",
"352 0 LINE",
"541 0 LINE",
"541 292 LINE SMOOTH",
"541 419 OFFCURVE",
"444 495 OFFCURVE",
"256 495 CURVE SMOOTH",
"173 495 OFFCURVE",
"99 480 OFFCURVE",
"57 460 CURVE",
"57 328 LINE",
"103 350 OFFCURVE",
"158 363 OFFCURVE",
"217 363 CURVE SMOOTH",
"294 363 OFFCURVE",
"340 340 OFFCURVE",
"340 296 CURVE SMOOTH",
"340 287 LINE",
"306 303 OFFCURVE",
"251 315 OFFCURVE",
"201 315 CURVE SMOOTH",
"63 315 OFFCURVE",
"-10 256 OFFCURVE",
"-10 149 CURVE SMOOTH",
"-10 40 OFFCURVE",
"75 -15 OFFCURVE",
"193 -15 CURVE SMOOTH"
);
},
{
closed = 1;
nodes = (
"217 101 OFFCURVE",
"197 120 OFFCURVE",
"197 149 CURVE SMOOTH",
"197 180 OFFCURVE",
"218 198 OFFCURVE",
"256 198 CURVE SMOOTH",
"288 198 OFFCURVE",
"317 189 OFFCURVE",
"340 174 CURVE",
"340 137 LINE",
"324 116 OFFCURVE",
"291 101 OFFCURVE",
"255 101 CURVE SMOOTH"
);
},
{
closed = 1;
nodes = (
"246 521 LINE",
"307 589 LINE",
"368 521 LINE",
"532 521 LINE",
"373 680 LINE",
"240 680 LINE",
"82 521 LINE"
);
},
{
closed = 1;
nodes = (
"582 645 LINE",
"664 789 LINE",
"500 789 LINE",
"442 645 LINE"
);
}
);
width = 606;
}
);
leftKerningGroup = a;
note = acircumflexacute;
rightKerningGroup = a;
unicode = 1EA5;
},
{
glyphname = acircumflexdotbelow;
lastChange = "2015-11-30 02:19:03 +0000";
layers = (
{
layerId = "13D241F5-3870-466E-AD79-DAA9175309D3";
name = Bold;
paths = (
{
closed = 1;
nodes = (
"263 -15 OFFCURVE",
"321 8 OFFCURVE",
"352 38 CURVE",
"352 0 LINE",
"541 0 LINE",
"541 292 LINE SMOOTH",
"541 419 OFFCURVE",
"444 495 OFFCURVE",
"256 495 CURVE SMOOTH",
"173 495 OFFCURVE",
"99 480 OFFCURVE",
"57 460 CURVE",
"57 328 LINE",
"103 350 OFFCURVE",
"158 363 OFFCURVE",
"217 363 CURVE SMOOTH",
"294 363 OFFCURVE",
"340 340 OFFCURVE",
"340 296 CURVE SMOOTH",
"340 287 LINE",
"306 303 OFFCURVE",
"251 315 OFFCURVE",
"201 315 CURVE SMOOTH",
"63 315 OFFCURVE",
"-10 256 OFFCURVE",
"-10 149 CURVE SMOOTH",
"-10 40 OFFCURVE",
"75 -15 OFFCURVE",
"193 -15 CURVE SMOOTH"
);
},
{
closed = 1;
nodes = (
"357 -210 OFFCURVE",
"393 -174 OFFCURVE",
"393 -128 CURVE SMOOTH",
"393 -82 OFFCURVE",
"357 -46 OFFCURVE",
"312 -46 CURVE SMOOTH",
"267 -46 OFFCURVE",
"229 -82 OFFCURVE",
"229 -128 CURVE SMOOTH",
"229 -174 OFFCURVE",
"267 -210 OFFCURVE",
"312 -210 CURVE SMOOTH"
);
},
{
closed = 1;
nodes = (
"217 101 OFFCURVE",
"197 120 OFFCURVE",
"197 149 CURVE SMOOTH",
"197 180 OFFCURVE",
"218 198 OFFCURVE",
"256 198 CURVE SMOOTH",
"288 198 OFFCURVE",
"317 189 OFFCURVE",
"340 174 CURVE",
"340 137 LINE",
"324 116 OFFCURVE",
"291 101 OFFCURVE",
"255 101 CURVE SMOOTH"
);
},
{
closed = 1;
nodes = (
"252 528 LINE",
"310 599 LINE",
"368 528 LINE",
"540 528 LINE",
"392 700 LINE",
"227 700 LINE",
"79 528 LINE"
);
}
);
width = 606;
}
);
leftKerningGroup = a;
note = acircumflexdotbelow;
rightKerningGroup = a;
unicode = 1EAD;
},
{
glyphname = acircumflexgrave;
lastChange = "2015-11-30 02:19:03 +0000";
layers = (
{
layerId = "13D241F5-3870-466E-AD79-DAA9175309D3";
name = Bold;
paths = (
{
closed = 1;
nodes = (
"263 -15 OFFCURVE",
"321 8 OFFCURVE",
"352 38 CURVE",
"352 0 LINE",
"541 0 LINE",
"541 292 LINE SMOOTH",
"541 419 OFFCURVE",
"444 495 OFFCURVE",
"256 495 CURVE SMOOTH",
"173 495 OFFCURVE",
"99 480 OFFCURVE",
"57 460 CURVE",
"57 328 LINE",
"103 350 OFFCURVE",
"158 363 OFFCURVE",
"217 363 CURVE SMOOTH",
"294 363 OFFCURVE",
"340 340 OFFCURVE",
"340 296 CURVE SMOOTH",
"340 287 LINE",
"306 303 OFFCURVE",
"251 315 OFFCURVE",
"201 315 CURVE SMOOTH",
"63 315 OFFCURVE",
"-10 256 OFFCURVE",
"-10 149 CURVE SMOOTH",
"-10 40 OFFCURVE",
"75 -15 OFFCURVE",
"193 -15 CURVE SMOOTH"
);
},
{
closed = 1;
nodes = (
"217 101 OFFCURVE",
"197 120 OFFCURVE",
"197 149 CURVE SMOOTH",
"197 180 OFFCURVE",
"218 198 OFFCURVE",
"256 198 CURVE SMOOTH",
"288 198 OFFCURVE",
"317 189 OFFCURVE",
"340 174 CURVE",
"340 137 LINE",
"324 116 OFFCURVE",
"291 101 OFFCURVE",
"255 101 CURVE SMOOTH"
);
},
{
closed = 1;
nodes = (
"182 645 LINE",
"124 789 LINE",
"-40 789 LINE",
"42 645 LINE"
);
},
{
closed = 1;
nodes = (
"256 521 LINE",
"317 589 LINE",
"378 521 LINE",
"542 521 LINE",
"384 680 LINE",
"251 680 LINE",
"92 521 LINE"
);
}
);
width = 606;
}
);
leftKerningGroup = a;
note = acircumflexgrave;
rightKerningGroup = a;
unicode = 1EA7;
},
{
glyphname = acircumflexhookabove;
lastChange = "2015-11-30 02:19:03 +0000";
layers = (
{
layerId = "13D241F5-3870-466E-AD79-DAA9175309D3";
name = Bold;
paths = (
{
closed = 1;
nodes = (
"263 -15 OFFCURVE",
"321 8 OFFCURVE",
"352 38 CURVE",
"352 0 LINE",
"541 0 LINE",
"541 292 LINE SMOOTH",
"541 419 OFFCURVE",
"444 495 OFFCURVE",
"256 495 CURVE SMOOTH",
"173 495 OFFCURVE",
"99 480 OFFCURVE",
"57 460 CURVE",
"57 328 LINE",
"103 350 OFFCURVE",
"158 363 OFFCURVE",
"217 363 CURVE SMOOTH",
"294 363 OFFCURVE",
"340 340 OFFCURVE",
"340 296 CURVE SMOOTH",
"340 287 LINE",
"306 303 OFFCURVE",
"251 315 OFFCURVE",
"201 315 CURVE SMOOTH",
"63 315 OFFCURVE",
"-10 256 OFFCURVE",
"-10 149 CURVE SMOOTH",
"-10 40 OFFCURVE",
"75 -15 OFFCURVE",
"193 -15 CURVE SMOOTH"
);
},
{
closed = 1;
nodes = (
"217 101 OFFCURVE",
"197 120 OFFCURVE",
"197 149 CURVE SMOOTH",
"197 180 OFFCURVE",
"218 198 OFFCURVE",
"256 198 CURVE SMOOTH",
"288 198 OFFCURVE",
"317 189 OFFCURVE",
"340 174 CURVE",
"340 137 LINE",
"324 116 OFFCURVE",
"291 101 OFFCURVE",
"255 101 CURVE SMOOTH"
);
},
{
closed = 1;
nodes = (
"250 521 LINE",
"311 589 LINE",
"372 521 LINE",
"536 521 LINE",
"377 680 LINE",
"244 680 LINE",
"86 521 LINE"
);
},
{
closed = 1;
nodes = (
"563 634 LINE",
"563 659 LINE",
"600 670 OFFCURVE",
"623 692 OFFCURVE",
"623 725 CURVE SMOOTH",
"623 770 OFFCURVE",
"584 800 OFFCURVE",
"509 800 CURVE SMOOTH",
"480 800 OFFCURVE",
"439 794 OFFCURVE",
"416 788 CURVE",
"416 724 LINE",
"425 728 OFFCURVE",
"440 730 OFFCURVE",
"451 730 CURVE SMOOTH",
"477 730 OFFCURVE",
"490 723 OFFCURVE",
"490 709 CURVE SMOOTH",
"490 691 OFFCURVE",
"471 685 OFFCURVE",
"441 685 CURVE",
"441 634 LINE"
);
}
);
width = 606;
}
);
leftKerningGroup = a;
note = acircumflexhookabove;
rightKerningGroup = a;
unicode = 1EA9;
},
{
glyphname = acircumflextilde;
lastChange = "2015-11-30 02:19:03 +0000";
layers = (
{
layerId = "13D241F5-3870-466E-AD79-DAA9175309D3";
name = Bold;
paths = (
{
closed = 1;
nodes = (
"263 -15 OFFCURVE",
"321 8 OFFCURVE",
"352 38 CURVE",
"352 0 LINE",
"541 0 LINE",
"541 292 LINE SMOOTH",
"541 419 OFFCURVE",
"444 495 OFFCURVE",
"256 495 CURVE SMOOTH",
"173 495 OFFCURVE",
"99 480 OFFCURVE",
"57 460 CURVE",
"57 328 LINE",
"103 350 OFFCURVE",
"158 363 OFFCURVE",
"217 363 CURVE SMOOTH",
"294 363 OFFCURVE",
"340 340 OFFCURVE",
"340 296 CURVE SMOOTH",
"340 287 LINE",
"306 303 OFFCURVE",
"251 315 OFFCURVE",
"201 315 CURVE SMOOTH",
"63 315 OFFCURVE",
"-10 256 OFFCURVE",
"-10 149 CURVE SMOOTH",
"-10 40 OFFCURVE",
"75 -15 OFFCURVE",
"193 -15 CURVE SMOOTH"
);
},
{
closed = 1;
nodes = (
"217 101 OFFCURVE",
"197 120 OFFCURVE",
"197 149 CURVE SMOOTH",
"197 180 OFFCURVE",
"218 198 OFFCURVE",
"256 198 CURVE SMOOTH",
"288 198 OFFCURVE",
"317 189 OFFCURVE",
"340 174 CURVE",
"340 137 LINE",
"324 116 OFFCURVE",
"291 101 OFFCURVE",
"255 101 CURVE SMOOTH"
);
},
{
closed = 1;
nodes = (
"255 521 LINE",
"316 589 LINE",
"377 521 LINE",
"541 521 LINE",
"382 680 LINE",
"249 680 LINE",
"91 521 LINE"
);
},
{
closed = 1;
nodes = (
"443 691 OFFCURVE",
"472 700 OFFCURVE",
"492 723 CURVE",
"492 831 LINE",
"468 803 OFFCURVE",
"439 791 OFFCURVE",
"406 791 CURVE SMOOTH",
"355 791 OFFCURVE",
"298 832 OFFCURVE",
"244 832 CURVE SMOOTH",
"208 832 OFFCURVE",
"179 822 OFFCURVE",
"159 799 CURVE",
"159 692 LINE",
"183 720 OFFCURVE",
"212 732 OFFCURVE",
"244 732 CURVE SMOOTH",
"295 732 OFFCURVE",
"349 691 OFFCURVE",
"406 691 CURVE SMOOTH"
);
}
);
width = 606;
}
);
leftKerningGroup = a;
note = acircumflextilde;
rightKerningGroup = a;
unicode = 1EAB;
},
{
glyphname = adieresis;
lastChange = "2015-11-30 02:19:03 +0000";
layers = (
{
layerId = "13D241F5-3870-466E-AD79-DAA9175309D3";
name = Bold;
paths = (
{
closed = 1;
nodes = (
"263 -15 OFFCURVE",
"321 8 OFFCURVE",
"352 38 CURVE",
"352 0 LINE",
"541 0 LINE",
"541 292 LINE SMOOTH",
"541 419 OFFCURVE",
"444 495 OFFCURVE",
"256 495 CURVE SMOOTH",
"173 495 OFFCURVE",
"99 480 OFFCURVE",
"57 460 CURVE",
"57 328 LINE",
"103 350 OFFCURVE",
"158 363 OFFCURVE",
"217 363 CURVE SMOOTH",
"294 363 OFFCURVE",
"340 340 OFFCURVE",
"340 296 CURVE SMOOTH",
"340 287 LINE",
"306 303 OFFCURVE",
"251 315 OFFCURVE",
"201 315 CURVE SMOOTH",
"63 315 OFFCURVE",
"-10 256 OFFCURVE",
"-10 149 CURVE SMOOTH",
"-10 40 OFFCURVE",
"75 -15 OFFCURVE",
"193 -15 CURVE SMOOTH"
);
},
{
closed = 1;
nodes = (
"217 101 OFFCURVE",
"197 120 OFFCURVE",
"197 149 CURVE SMOOTH",
"197 180 OFFCURVE",
"218 198 OFFCURVE",
"256 198 CURVE SMOOTH",
"288 198 OFFCURVE",
"317 189 OFFCURVE",
"340 174 CURVE",
"340 137 LINE",
"324 116 OFFCURVE",
"291 101 OFFCURVE",
"255 101 CURVE SMOOTH"
);
},
{
closed = 1;
nodes = (
"244 519 OFFCURVE",
"281 554 OFFCURVE",
"281 600 CURVE SMOOTH",
"281 646 OFFCURVE",
"244 683 OFFCURVE",
"199 683 CURVE SMOOTH",
"155 683 OFFCURVE",
"116 646 OFFCURVE",
"116 600 CURVE SMOOTH",
"116 554 OFFCURVE",
"155 519 OFFCURVE",
"199 519 CURVE SMOOTH"
);
},
{
closed = 1;
nodes = (
"479 519 OFFCURVE",
"516 554 OFFCURVE",
"516 600 CURVE SMOOTH",
"516 646 OFFCURVE",
"479 683 OFFCURVE",
"435 683 CURVE SMOOTH",
"390 683 OFFCURVE",
"352 646 OFFCURVE",
"352 600 CURVE SMOOTH",
"352 554 OFFCURVE",
"390 519 OFFCURVE",
"435 519 CURVE SMOOTH"
);
}
);
width = 606;
}
);
leftKerningGroup = a;
note = adieresis;
rightKerningGroup = a;
unicode = 00E4;
},
{
glyphname = adotbelow;
lastChange = "2015-11-30 02:19:03 +0000";
layers = (
{
layerId = "13D241F5-3870-466E-AD79-DAA9175309D3";
name = Bold;
paths = (
{
closed = 1;
nodes = (
"263 -15 OFFCURVE",
"321 8 OFFCURVE",
"352 38 CURVE",
"352 0 LINE",
"541 0 LINE",
"541 292 LINE SMOOTH",
"541 419 OFFCURVE",
"444 495 OFFCURVE",
"256 495 CURVE SMOOTH",
"173 495 OFFCURVE",
"99 480 OFFCURVE",
"57 460 CURVE",
"57 328 LINE",
"103 350 OFFCURVE",
"158 363 OFFCURVE",
"217 363 CURVE SMOOTH",
"294 363 OFFCURVE",
"340 340 OFFCURVE",
"340 296 CURVE SMOOTH",
"340 287 LINE",
"306 303 OFFCURVE",
"251 315 OFFCURVE",
"201 315 CURVE SMOOTH",
"63 315 OFFCURVE",
"-10 256 OFFCURVE",
"-10 149 CURVE SMOOTH",
"-10 40 OFFCURVE",
"75 -15 OFFCURVE",
"193 -15 CURVE SMOOTH"
);
},
{
closed = 1;
nodes = (
"358 -210 OFFCURVE",
"394 -174 OFFCURVE",
"394 -128 CURVE SMOOTH",
"394 -82 OFFCURVE",
"358 -46 OFFCURVE",
"313 -46 CURVE SMOOTH",
"268 -46 OFFCURVE",
"230 -82 OFFCURVE",
"230 -128 CURVE SMOOTH",
"230 -174 OFFCURVE",
"268 -210 OFFCURVE",
"313 -210 CURVE SMOOTH"
);
},
{
closed = 1;
nodes = (
"217 101 OFFCURVE",
"197 120 OFFCURVE",
"197 149 CURVE SMOOTH",
"197 180 OFFCURVE",
"218 198 OFFCURVE",
"256 198 CURVE SMOOTH",
"288 198 OFFCURVE",
"317 189 OFFCURVE",
"340 174 CURVE",
"340 137 LINE",
"324 116 OFFCURVE",
"291 101 OFFCURVE",
"255 101 CURVE SMOOTH"
);
}
);
width = 606;
}
);
leftKerningGroup = a;
note = adotbelow;
rightKerningGroup = a;
unicode = 1EA1;
},
{
glyphname = agrave;
lastChange = "2015-11-30 02:19:03 +0000";
layers = (
{
layerId = "13D241F5-3870-466E-AD79-DAA9175309D3";
name = Bold;
paths = (
{
closed = 1;
nodes = (
"263 -15 OFFCURVE",
"321 8 OFFCURVE",
"352 38 CURVE",
"352 0 LINE",
"541 0 LINE",
"541 292 LINE SMOOTH",
"541 419 OFFCURVE",
"444 495 OFFCURVE",
"256 495 CURVE SMOOTH",
"173 495 OFFCURVE",
"99 480 OFFCURVE",
"57 460 CURVE",
"57 328 LINE",
"103 350 OFFCURVE",
"158 363 OFFCURVE",
"217 363 CURVE SMOOTH",
"294 363 OFFCURVE",
"340 340 OFFCURVE",
"340 296 CURVE SMOOTH",
"340 287 LINE",
"306 303 OFFCURVE",
"251 315 OFFCURVE",
"201 315 CURVE SMOOTH",
"63 315 OFFCURVE",
"-10 256 OFFCURVE",
"-10 149 CURVE SMOOTH",
"-10 40 OFFCURVE",
"75 -15 OFFCURVE",
"193 -15 CURVE SMOOTH"
);
},
{
closed = 1;
nodes = (
"217 101 OFFCURVE",
"197 120 OFFCURVE",
"197 149 CURVE SMOOTH",
"197 180 OFFCURVE",
"218 198 OFFCURVE",
"256 198 CURVE SMOOTH",
"288 198 OFFCURVE",
"317 189 OFFCURVE",
"340 174 CURVE",
"340 137 LINE",
"324 116 OFFCURVE",
"291 101 OFFCURVE",
"255 101 CURVE SMOOTH"
);
},
{
closed = 1;
nodes = (
"439 517 LINE",
"370 697 LINE",
"169 697 LINE",
"262 517 LINE"
);
}
);
width = 606;
}
);
leftKerningGroup = a;
note = agrave;
rightKerningGroup = a;
unicode = 00E0;
},
{
glyphname = ahookabove;
lastChange = "2015-11-30 02:19:03 +0000";
layers = (
{
layerId = "13D241F5-3870-466E-AD79-DAA9175309D3";
name = Bold;
paths = (
{
closed = 1;
nodes = (
"263 -15 OFFCURVE",
"321 8 OFFCURVE",
"352 38 CURVE",
"352 0 LINE",
"541 0 LINE",
"541 292 LINE SMOOTH",
"541 419 OFFCURVE",
"444 495 OFFCURVE",
"256 495 CURVE SMOOTH",
"173 495 OFFCURVE",
"99 480 OFFCURVE",
"57 460 CURVE",
"57 328 LINE",
"103 350 OFFCURVE",
"158 363 OFFCURVE",
"217 363 CURVE SMOOTH",
"294 363 OFFCURVE",
"340 340 OFFCURVE",
"340 296 CURVE SMOOTH",
"340 287 LINE",
"306 303 OFFCURVE",
"251 315 OFFCURVE",
"201 315 CURVE SMOOTH",
"63 315 OFFCURVE",
"-10 256 OFFCURVE",
"-10 149 CURVE SMOOTH",
"-10 40 OFFCURVE",
"75 -15 OFFCURVE",
"193 -15 CURVE SMOOTH"
);
},
{
closed = 1;
nodes = (
"217 101 OFFCURVE",
"197 120 OFFCURVE",
"197 149 CURVE SMOOTH",
"197 180 OFFCURVE",
"218 198 OFFCURVE",
"256 198 CURVE SMOOTH",
"288 198 OFFCURVE",
"317 189 OFFCURVE",
"340 174 CURVE",
"340 137 LINE",
"324 116 OFFCURVE",
"291 101 OFFCURVE",
"255 101 CURVE SMOOTH"
);
},
{
closed = 1;
nodes = (
"383 521 LINE",
"383 551 LINE",
"449 562 OFFCURVE",
"480 599 OFFCURVE",
"480 647 CURVE SMOOTH",
"480 712 OFFCURVE",
"425 757 OFFCURVE",
"312 757 CURVE SMOOTH",
"260 757 OFFCURVE",
"213 749 OFFCURVE",
"182 739 CURVE",
"182 655 LINE",
"194 660 OFFCURVE",
"221 665 OFFCURVE",
"244 665 CURVE SMOOTH",
"291 665 OFFCURVE",
"306 650 OFFCURVE",
"306 632 CURVE SMOOTH",
"306 604 OFFCURVE",
"272 593 OFFCURVE",
"217 593 CURVE",
"217 521 LINE"
);
}
);
width = 606;
}
);
leftKerningGroup = a;
note = ahookabove;
rightKerningGroup = a;
unicode = 1EA3;
},
